Dhyana.ufo
<glyph name="quotedbl" format="1">
  <advance width="796"/>
  <unicode hex="0022"/>
  <outline>
    <contour>
      <point x="453" y="1508" type="line" smooth="yes"/>
      <point x="452" y="1515"/>
      <point x="452" y="1523"/>
      <point x="452" y="1531" type="curve" smooth="yes"/>
      <point x="452" y="1547"/>
      <point x="453" y="1564"/>
      <point x="453" y="1579" type="curve" smooth="no"/>
      <point x="681" y="1579" type="line" smooth="no"/>
      <point x="681" y="1564"/>
      <point x="682" y="1547"/>
      <point x="682" y="1531" type="curve" smooth="yes"/>
      <point x="682" y="1523"/>
      <point x="682" y="1515"/>
      <point x="681" y="1508" type="curve" smooth="yes"/>
      <point x="621" y="1058" type="line" smooth="no"/>
      <point x="513" y="1058" type="line" smooth="no"/>
    </contour>
    <contour>
      <point x="115" y="1508" type="line" smooth="yes"/>
      <point x="114" y="1515"/>
      <point x="114" y="1523"/>
      <point x="114" y="1531" type="curve" smooth="yes"/>
      <point x="114" y="1547"/>
      <point x="115" y="1564"/>
      <point x="115" y="1579" type="curve" smooth="no"/>
      <point x="343" y="1579" type="line" smooth="no"/>
      <point x="343" y="1564"/>
      <point x="344" y="1547"/>
      <point x="344" y="1531" type="curve" smooth="yes"/>
      <point x="344" y="1523"/>
      <point x="344" y="1515"/>
      <point x="343" y="1508" type="curve" smooth="yes"/>
      <point x="283" y="1058" type="line" smooth="no"/>
      <point x="175" y="1058" type="line" smooth="no"/>
    </contour>
  </outline>
</glyph>
<glyph name="numbersign" format="1">
  <advance width="1056"/>
  <unicode hex="0023"/>
  <outline>
    <contour>
      <point x="599" y="561" type="line" smooth="no"/>
      <point x="413" y="561" type="line" smooth="no"/>
      <point x="380" y="295" type="line" smooth="no"/>
      <point x="239" y="295" type="line" smooth="no"/>
      <point x="272" y="561" type="line" smooth="no"/>
      <point x="106" y="561" type="line" smooth="no"/>
      <point x="106" y="684" type="line" smooth="no"/>
      <point x="282" y="684" type="line" smooth="no"/>
      <point x="309" y="905" type="line" smooth="no"/>
      <point x="134" y="905" type="line" smooth="no"/>
      <point x="134" y="1030" type="line" smooth="no"/>
      <point x="323" y="1030" type="line" smooth="no"/>
      <point x="354" y="1309" type="line" smooth="no"/>
      <point x="493" y="1309" type="line" smooth="no"/>
      <point x="462" y="1030" type="line" smooth="no"/>
      <point x="651" y="1030" type="line" smooth="no"/>
      <point x="679" y="1307" type="line" smooth="no"/>
      <point x="821" y="1307" type="line" smooth="no"/>
      <point x="790" y="1030" type="line" smooth="no"/>
      <point x="950" y="1030" type="line" smooth="no"/>
      <point x="950" y="905" type="line" smooth="no"/>
      <point x="778" y="905" type="line" smooth="no"/>
      <point x="751" y="684" type="line" smooth="no"/>
      <point x="927" y="684" type="line" smooth="no"/>
      <point x="927" y="561" type="line" smooth="no"/>
      <point x="739" y="561" type="line" smooth="no"/>
      <point x="708" y="295" type="line" smooth="no"/>
      <point x="567" y="295" type="line" smooth="no"/>
    </contour>
    <contour>
      <point x="425" y="684" type="line" smooth="no"/>
      <point x="608" y="684" type="line" smooth="no"/>
      <point x="634" y="905" type="line" smooth="no"/>
      <point x="452" y="905" type="line" smooth="no"/>
    </contour>
  </outline>
</glyph>
<glyph name="dollar" format="1">
  <advance width="1019"/>
  <unicode hex="0024"/>
  <outline>
    <contour>
      <point x="576" y="1236" type="line" smooth="no"/>
      <point x="618" y="1235"/>
      <point x="907" y="1215"/>
      <point x="907" y="1172" type="curve" smooth="yes"/>
      <point x="907" y="1171" type="line" smooth="no"/>
      <point x="855" y="1040" type="line" smooth="no"/>
      <point x="767" y="1077"/>
      <point x="670" y="1092"/>
      <point x="576" y="1098" type="curve" smooth="no"/>
      <point x="576" y="709" type="line" smooth="no"/>
      <point x="763" y="646"/>
      <point x="962" y="568"/>
      <point x="962" y="340" type="curve" smooth="yes"/>
      <point x="962" y="101"/>
      <point x="793" y="0"/>
      <point x="576" y="-18" type="curve" smooth="no"/>
      <point x="576" y="-178" type="line" smooth="no"/>
      <point x="473" y="-178" type="line" smooth="no"/>
      <point x="473" y="-20" type="line" smooth="no"/>
      <point x="347" y="-11"/>
      <point x="244" y="23"/>
      <point x="124" y="63" type="curve" smooth="no"/>
      <point x="173" y="207" type="line" smooth="no"/>
      <point x="274" y="169"/>
      <point x="365" y="142"/>
      <point x="473" y="129" type="curve" smooth="no"/>
      <point x="473" y="572" type="line" smooth="no"/>
      <point x="259" y="618"/>
      <point x="60" y="664"/>
      <point x="60" y="929" type="curve" smooth="yes"/>
      <point x="60" y="1156"/>
      <point x="285" y="1234"/>
      <point x="473" y="1240" type="curve" smooth="no"/>
      <point x="473" y="1390" type="line" smooth="no"/>
      <point x="576" y="1390" type="line" smooth="no"/>
    </contour>
    <contour>
      <point x="473" y="745" type="curve" smooth="no"/>
      <point x="473" y="1100" type="line" smooth="no"/>
      <point x="348" y="1100"/>
      <point x="223" y="1078"/>
      <point x="223" y="924" type="curve" smooth="yes"/>
      <point x="223" y="805"/>
      <point x="380" y="759"/>
    </contour>
    <contour>
      <point x="576" y="539" type="curve" smooth="no"/>
      <point x="576" y="134" type="line" smooth="no"/>
      <point x="692" y="137"/>
      <point x="797" y="204"/>
      <point x="797" y="329" type="curve" smooth="yes"/>
      <point x="797" y="464"/>
      <point x="679" y="498"/>
    </contour>
  </outline>
</glyph>
<glyph name="quotesingle" format="1">
  <advance width="353"/>
  <unicode hex="0027"/>
  <outline>
    <contour>
      <point x="61" y="1508" type="line" smooth="yes"/>
      <point x="60" y="1515"/>
      <point x="60" y="1523"/>
      <point x="60" y="1531" type="curve" smooth="yes"/>
      <point x="60" y="1547"/>
      <point x="61" y="1564"/>
      <point x="61" y="1579" type="curve" smooth="no"/>
      <point x="289" y="1579" type="line" smooth="no"/>
      <point x="289" y="1564"/>
      <point x="290" y="1547"/>
      <point x="290" y="1531" type="curve" smooth="yes"/>
      <point x="290" y="1523"/>
      <point x="290" y="1515"/>
      <point x="289" y="1508" type="curve" smooth="yes"/>
      <point x="229" y="1058" type="line" smooth="no"/>
      <point x="121" y="1058" type="line" smooth="no"/>
    </contour>
  </outline>
</glyph>
<glyph name="plus" format="1">
  <advance width="1005"/>
  <unicode hex="002b"/>
  <outline>
    <contour>
      <point x="886" y="518" type="line" smooth="no"/>
      <point x="572" y="518" type="line" smooth="no"/>
      <point x="572" y="174" type="line" smooth="no"/>
      <point x="431" y="174" type="line" smooth="no"/>
      <point x="431" y="518" type="line" smooth="no"/>
      <point x="118" y="518" type="line" smooth="no"/>
      <point x="118" y="651" type="line" smooth="no"/>
      <point x="431" y="651" type="line" smooth="no"/>
      <point x="431" y="995" type="line" smooth="no"/>
      <point x="572" y="995" type="line" smooth="no"/>
      <point x="572" y="651" type="line" smooth="no"/>
      <point x="886" y="651" type="line" smooth="no"/>
    </contour>
  </outline>
</glyph>
<glyph name="period" format="1">
  <advance width="456"/>
  <unicode hex="002e"/>
  <outline>
    <contour>
      <point x="230" y="213" type="curve" smooth="yes"/>
      <point x="295" y="213"/>
      <point x="338" y="160"/>
      <point x="338" y="98" type="curve" smooth="yes"/>
      <point x="338" y="36"/>
      <point x="295" y="-17"/>
      <point x="230" y="-17" type="curve" smooth="yes"/>
      <point x="166" y="-17"/>
      <point x="118" y="35"/>
      <point x="118" y="98" type="curve" smooth="yes"/>
      <point x="118" y="160"/>
      <point x="167" y="213"/>
    </contour>
  </outline>
</glyph>
<glyph name="zero" format="1">
  <advance width="1374"/>
  <unicode hex="0030"/>
  <outline>
    <contour>
      <point x="685" y="1069" type="curve" smooth="yes"/>
      <point x="395" y="1069"/>
      <point x="304" y="846"/>
      <point x="304" y="592" type="curve" smooth="yes"/>
      <point x="304" y="336"/>
      <point x="399" y="111"/>
      <point x="685" y="111" type="curve" smooth="yes"/>
      <point x="985" y="111"/>
      <point x="1070" y="348"/>
      <point x="1070" y="606" type="curve" smooth="yes"/>
      <point x="1070" y="857"/>
      <point x="966" y="1069"/>
    </contour>
    <contour>
      <point x="1256" y="590" type="curve" smooth="yes"/>
      <point x="1256" y="238"/>
      <point x="1055" y="-31"/>
      <point x="685" y="-31" type="curve" smooth="yes"/>
      <point x="318" y="-31"/>
      <point x="118" y="244"/>
      <point x="118" y="590" type="curve" smooth="yes"/>
      <point x="118" y="945"/>
      <point x="311" y="1210"/>
      <point x="685" y="1210" type="curve" smooth="yes"/>
      <point x="1057" y="1210"/>
      <point x="1256" y="942"/>
    </contour>
  </outline>
</glyph>
<glyph name="six" format="1">
  <advance width="1235"/>
  <unicode hex="0036"/>
  <outline>
    <contour>
      <point x="945" y="335" type="curve" smooth="yes"/>
      <point x="945" y="138"/>
      <point x="828" y="-14"/>
      <point x="621" y="-14" type="curve" smooth="yes"/>
      <point x="371" y="-14"/>
      <point x="294" y="184"/>
      <point x="294" y="401" type="curve" smooth="yes"/>
      <point x="294" y="442"/>
      <point x="294" y="483"/>
      <point x="300" y="523" type="curve" smooth="no"/>
      <point x="369" y="600"/>
      <point x="555" y="657"/>
      <point x="655" y="657" type="curve" smooth="yes"/>
      <point x="846" y="657"/>
      <point x="945" y="516"/>
    </contour>
    <contour>
      <point x="116" y="425" type="curve" smooth="yes"/>
      <point x="116" y="99"/>
      <point x="268" y="-156"/>
      <point x="621" y="-156" type="curve" smooth="yes"/>
      <point x="916" y="-156"/>
      <point x="1121" y="38"/>
      <point x="1121" y="335" type="curve" smooth="yes"/>
      <point x="1121" y="612"/>
      <point x="930" y="793"/>
      <point x="655" y="793" type="curve" smooth="yes"/>
      <point x="524" y="793"/>
      <point x="400" y="752"/>
      <point x="314" y="649" type="curve" smooth="no"/>
      <point x="366" y="931"/>
      <point x="604" y="1117"/>
      <point x="874" y="1174" type="curve" smooth="no"/>
      <point x="831" y="1319" type="line" smooth="no"/>
      <point x="393" y="1216"/>
      <point x="116" y="878"/>
    </contour>
  </outline>
</glyph>
<glyph name="seven" format="1">
  <advance width="1114"/>
  <unicode hex="0037"/>
  <outline>
    <contour>
      <point x="952" y="1229" type="line" smooth="no"/>
      <point x="1009" y="1107" type="line" smooth="no"/>
      <point x="437" y="-176" type="line" smooth="no"/>
      <point x="269" y="-100" type="line" smooth="no"/>
      <point x="794" y="1074" type="line" smooth="no"/>
      <point x="116" y="1074" type="line" smooth="no"/>
      <point x="116" y="1229" type="line" smooth="no"/>
    </contour>
  </outline>
</glyph>
<glyph name="less" format="1">
  <advance width="868"/>
  <unicode hex="003c"/>
  <outline>
    <contour>
      <point x="52" y="663" type="line" smooth="no"/>
      <point x="707" y="1266" type="line" smooth="no"/>
      <point x="809" y="1156" type="line" smooth="no"/>
      <point x="258" y="663" type="line" smooth="no"/>
      <point x="809" y="170" type="line" smooth="no"/>
      <point x="707" y="60" type="line" smooth="no"/>
    </contour>
  </outline>
</glyph>
<glyph name="at" format="1">
  <advance width="1873"/>
  <unicode hex="0040"/>
  <outline>
    <contour>
      <point x="1207" y="987" type="curve" smooth="no"/>
      <point x="1150" y="999"/>
      <point x="1090" y="1008"/>
      <point x="1031" y="1008" type="curve" smooth="yes"/>
      <point x="788" y="1008"/>
      <point x="603" y="814"/>
      <point x="603" y="573" type="curve" smooth="yes"/>
      <point x="603" y="422"/>
      <point x="670" y="330"/>
      <point x="828" y="330" type="curve" smooth="yes"/>
      <point x="1168" y="330"/>
      <point x="1205" y="734"/>
    </contour>
    <contour>
      <point x="1440" y="134" type="curve" smooth="no"/>
      <point x="1531" y="42" type="line" smooth="no"/>
      <point x="1395" y="-109"/>
      <point x="1136" y="-155"/>
      <point x="943" y="-155" type="curve" smooth="yes"/>
      <point x="475" y="-155"/>
      <point x="108" y="78"/>
      <point x="108" y="578" type="curve" smooth="yes"/>
      <point x="108" y="1072"/>
      <point x="459" y="1456"/>
      <point x="960" y="1456" type="curve" smooth="yes"/>
      <point x="1396" y="1456"/>
      <point x="1769" y="1230"/>
      <point x="1769" y="756" type="curve" smooth="yes"/>
      <point x="1769" y="490"/>
      <point x="1630" y="199"/>
      <point x="1328" y="199" type="curve" smooth="yes"/>
      <point x="1238" y="199"/>
      <point x="1220" y="289"/>
      <point x="1220" y="383" type="curve" smooth="yes"/>
      <point x="1220" y="445"/>
      <point x="1228" y="508"/>
      <point x="1228" y="548" type="curve" smooth="no"/>
      <point x="1186" y="343"/>
      <point x="1025" y="199"/>
      <point x="812" y="199" type="curve" smooth="yes"/>
      <point x="574" y="199"/>
      <point x="448" y="361"/>
      <point x="448" y="590" type="curve" smooth="yes"/>
      <point x="448" y="886"/>
      <point x="728" y="1128"/>
      <point x="1015" y="1128" type="curve" smooth="yes"/>
      <point x="1108" y="1128"/>
      <point x="1208" y="1111"/>
      <point x="1300" y="1096" type="curve" smooth="no"/>
      <point x="1355" y="987" type="line" smooth="no"/>
      <point x="1355" y="317" type="line" smooth="yes"/>
      <point x="1358" y="317" type="line" smooth="yes"/>
      <point x="1586" y="317"/>
      <point x="1609" y="586"/>
      <point x="1609" y="758" type="curve" smooth="yes"/>
      <point x="1609" y="1158"/>
      <point x="1331" y="1317"/>
      <point x="966" y="1317" type="curve" smooth="yes"/>
      <point x="527" y="1317"/>
      <point x="267" y="1004"/>
      <point x="267" y="578" type="curve" smooth="yes"/>
      <point x="267" y="159"/>
      <point x="565" y="-16"/>
      <point x="953" y="-16" type="curve" smooth="yes"/>
      <point x="1138" y="-16"/>
      <point x="1295" y="20"/>
    </contour>
  </outline>
</glyph>
<glyph name="A" format="1">
  <advance width="1501"/>
  <unicode hex="0041"/>
  <outline>
    <contour>
      <point x="1067" y="485" type="line" smooth="no"/>
      <point x="750" y="1460" type="line" smooth="no"/>
      <point x="433" y="485" type="line" smooth="no"/>
    </contour>
    <contour>
      <point x="1100" y="383" type="line" smooth="no"/>
      <point x="400" y="383" type="line" smooth="no"/>
      <point x="277" y="0" type="line" smooth="no"/>
      <point x="84" y="0" type="line" smooth="no"/>
      <point x="600" y="1579" type="line" smooth="no"/>
      <point x="900" y="1579" type="line" smooth="no"/>
      <point x="1416" y="0" type="line" smooth="no"/>
      <point x="1223" y="0" type="line" smooth="no"/>
    </contour>
  </outline>
</glyph>
<glyph name="B" format="1">
  <advance width="1350"/>
  <unicode hex="0042"/>
  <outline>
    <contour>
      <point x="996" y="1188" type="curve" smooth="yes"/>
      <point x="996" y="1425"/>
      <point x="736" y="1436"/>
      <point x="546" y="1436" type="curve" smooth="yes"/>
      <point x="488" y="1436" type="line" smooth="yes"/>
      <point x="317" y="1436" type="line" smooth="no"/>
      <point x="317" y="915" type="line" smooth="no"/>
      <point x="576" y="915" type="line" smooth="yes"/>
      <point x="783" y="915"/>
      <point x="996" y="935"/>
    </contour>
    <contour>
      <point x="543" y="143" type="line" smooth="yes"/>
      <point x="792" y="143"/>
      <point x="1061" y="152"/>
      <point x="1061" y="466" type="curve" smooth="yes"/>
      <point x="1061" y="759"/>
      <point x="818" y="786"/>
      <point x="580" y="786" type="curve" smooth="yes"/>
      <point x="317" y="786" type="line" smooth="no"/>
      <point x="317" y="143" type="line" smooth="no"/>
    </contour>
    <contour>
      <point x="836" y="862" type="curve" smooth="no"/>
      <point x="1092" y="833"/>
      <point x="1243" y="699"/>
      <point x="1243" y="434" type="curve" smooth="yes"/>
      <point x="1243" y="46"/>
      <point x="844" y="0"/>
      <point x="543" y="0" type="curve" smooth="yes"/>
      <point x="123" y="0" type="line" smooth="no"/>
      <point x="123" y="1579" type="line" smooth="no"/>
      <point x="484" y="1579" type="line" smooth="yes"/>
      <point x="783" y="1579"/>
      <point x="1161" y="1570"/>
      <point x="1161" y="1188" type="curve" smooth="yes"/>
      <point x="1161" y="976"/>
      <point x="1038" y="892"/>
    </contour>
  </outline>
</glyph>
<glyph name="F" format="1">
  <advance width="1154"/>
  <unicode hex="0046"/>
  <outline>
    <contour>
      <point x="319" y="762" type="line" smooth="no"/>
      <point x="319" y="0" type="line" smooth="no"/>
      <point x="123" y="0" type="line" smooth="no"/>
      <point x="123" y="1579" type="line" smooth="no"/>
      <point x="1044" y="1579" type="line" smooth="no"/>
      <point x="1044" y="1436" type="line" smooth="no"/>
      <point x="319" y="1436" type="line" smooth="no"/>
      <point x="319" y="879" type="line" smooth="no"/>
      <point x="983" y="879" type="line" smooth="no"/>
      <point x="983" y="762" type="line" smooth="no"/>
    </contour>
  </outline>
</glyph>
<glyph name="I" format="1">
  <advance width="823"/>
  <unicode hex="0049"/>
  <outline>
    <contour>
      <point x="114" y="112" type="line" smooth="no"/>
      <point x="318" y="112" type="line" smooth="no"/>
      <point x="318" y="1461" type="line" smooth="no"/>
      <point x="114" y="1461" type="line" smooth="no"/>
      <point x="114" y="1579" type="line" smooth="no"/>
      <point x="707" y="1579" type="line" smooth="no"/>
      <point x="707" y="1461" type="line" smooth="no"/>
      <point x="501" y="1461" type="line" smooth="no"/>
      <point x="501" y="112" type="line" smooth="no"/>
      <point x="707" y="112" type="line" smooth="no"/>
      <point x="707" y="0" type="line" smooth="no"/>
      <point x="114" y="0" type="line" smooth="no"/>
    </contour>
  </outline>
</glyph>
<glyph name="L" format="1">
  <advance width="1175"/>
  <unicode hex="004c"/>
  <outline>
    <contour>
      <point x="1063" y="0" type="line" smooth="no"/>
      <point x="123" y="0" type="line" smooth="no"/>
      <point x="123" y="1579" type="line" smooth="no"/>
      <point x="317" y="1579" type="line" smooth="no"/>
      <point x="317" y="143" type="line" smooth="no"/>
      <point x="1063" y="143" type="line" smooth="no"/>
    </contour>
  </outline>
</glyph>
<glyph name="M" format="1">
  <advance width="1779"/>
  <unicode hex="004d"/>
  <outline>
    <contour>
      <point x="791" y="0" type="line" smooth="no"/>
      <point x="278" y="1469" type="line" smooth="no"/>
      <point x="278" y="0" type="line" smooth="no"/>
      <point x="123" y="0" type="line" smooth="no"/>
      <point x="123" y="1579" type="line" smooth="no"/>
      <point x="414" y="1579" type="line" smooth="no"/>
      <point x="889" y="178" type="line" smooth="no"/>
      <point x="1364" y="1579" type="line" smooth="no"/>
      <point x="1655" y="1579" type="line" smooth="no"/>
      <point x="1655" y="0" type="line" smooth="no"/>
      <point x="1500" y="0" type="line" smooth="no"/>
      <point x="1500" y="1469" type="line" smooth="no"/>
      <point x="987" y="0" type="line" smooth="no"/>
    </contour>
  </outline>
</glyph>
<glyph name="N" format="1">
  <advance width="1500"/>
  <unicode hex="004e"/>
  <outline>
    <contour>
      <point x="1214" y="145" type="line" smooth="no"/>
      <point x="1214" y="1579" type="line" smooth="no"/>
      <point x="1376" y="1579" type="line" smooth="no"/>
      <point x="1376" y="0" type="line" smooth="no"/>
      <point x="1114" y="0" type="line" smooth="no"/>
      <point x="285" y="1434" type="line" smooth="no"/>
      <point x="285" y="0" type="line" smooth="no"/>
      <point x="123" y="0" type="line" smooth="no"/>
      <point x="123" y="1579" type="line" smooth="no"/>
      <point x="385" y="1579" type="line" smooth="no"/>
    </contour>
  </outline>
</glyph>
<glyph name="O" format="1">
  <advance width="1536"/>
  <unicode hex="004f"/>
  <outline>
    <contour>
      <point x="1424" y="784" type="curve" smooth="yes"/>
      <point x="1424" y="344"/>
      <point x="1270" y="-41"/>
      <point x="768" y="-41" type="curve" smooth="yes"/>
      <point x="270" y="-41"/>
      <point x="114" y="335"/>
      <point x="114" y="784" type="curve" smooth="yes"/>
      <point x="114" y="1214"/>
      <point x="269" y="1610"/>
      <point x="754" y="1610" type="curve" smooth="yes"/>
      <point x="1265" y="1610"/>
      <point x="1424" y="1236"/>
    </contour>
    <contour>
      <point x="1224" y="784" type="curve" smooth="yes"/>
      <point x="1224" y="1103"/>
      <point x="1160" y="1458"/>
      <point x="770" y="1458" type="curve" smooth="yes"/>
      <point x="377" y="1458"/>
      <point x="314" y="1101"/>
      <point x="314" y="784" type="curve" smooth="yes"/>
      <point x="314" y="458"/>
      <point x="385" y="111"/>
      <point x="779" y="111" type="curve" smooth="yes"/>
      <point x="1160" y="111"/>
      <point x="1224" y="480"/>
    </contour>
  </outline>
</glyph>
<glyph name="P" format="1">
  <advance width="1330"/>
  <unicode hex="0050"/>
  <outline>
    <contour>
      <point x="487" y="784" type="line" smooth="yes"/>
      <point x="708" y="784"/>
      <point x="1038" y="790"/>
      <point x="1038" y="1084" type="curve" smooth="yes"/>
      <point x="1038" y="1422"/>
      <point x="831" y="1436"/>
      <point x="532" y="1436" type="curve" smooth="yes"/>
      <point x="317" y="1436" type="line" smooth="no"/>
      <point x="317" y="784" type="line" smooth="no"/>
    </contour>
    <contour>
      <point x="1220" y="1108" type="curve" smooth="yes"/>
      <point x="1220" y="661"/>
      <point x="777" y="639"/>
      <point x="427" y="639" type="curve" smooth="yes"/>
      <point x="317" y="639" type="line" smooth="no"/>
      <point x="317" y="0" type="line" smooth="no"/>
      <point x="123" y="0" type="line" smooth="no"/>
      <point x="123" y="1579" type="line" smooth="no"/>
      <point x="520" y="1579" type="line" smooth="yes"/>
      <point x="874" y="1579"/>
      <point x="1220" y="1536"/>
    </contour>
  </outline>
</glyph>
<glyph name="Q" format="1">
  <advance width="1549"/>
  <unicode hex="0051"/>
  <outline>
    <contour>
      <point x="776" y="1458" type="curve" smooth="yes"/>
      <point x="383" y="1458"/>
      <point x="313" y="1103"/>
      <point x="313" y="784" type="curve" smooth="yes"/>
      <point x="313" y="466"/>
      <point x="385" y="111"/>
      <point x="776" y="111" type="curve" smooth="yes"/>
      <point x="1169" y="111"/>
      <point x="1239" y="465"/>
      <point x="1239" y="784" type="curve" smooth="yes"/>
      <point x="1239" y="1101"/>
      <point x="1166" y="1458"/>
    </contour>
    <contour>
      <point x="1439" y="784" type="curve" smooth="yes"/>
      <point x="1439" y="414"/>
      <point x="1327" y="37"/>
      <point x="911" y="-29" type="curve" smooth="no"/>
      <point x="1290" y="-293" type="line" smooth="no"/>
      <point x="1171" y="-424" type="line" smooth="no"/>
      <point x="678" y="-35" type="line" smooth="no"/>
      <point x="233" y="15"/>
      <point x="112" y="399"/>
      <point x="112" y="792" type="curve" smooth="yes"/>
      <point x="112" y="1228"/>
      <point x="285" y="1610"/>
      <point x="776" y="1610" type="curve" smooth="yes"/>
      <point x="1270" y="1610"/>
      <point x="1439" y="1230"/>
    </contour>
  </outline>
</glyph>
<glyph name="R" format="1">
  <advance width="1333"/>
  <unicode hex="0052"/>
  <outline>
    <contour>
      <point x="803" y="797" type="curve" smooth="no"/>
      <point x="1053" y="770"/>
      <point x="1214" y="668"/>
      <point x="1214" y="397" type="curve" smooth="yes"/>
      <point x="1214" y="0" type="line" smooth="no"/>
      <point x="1032" y="0" type="line" smooth="no"/>
      <point x="1032" y="121"/>
      <point x="1036" y="224"/>
      <point x="1036" y="312" type="curve" smooth="yes"/>
      <point x="1036" y="619"/>
      <point x="983" y="733"/>
      <point x="497" y="733" type="curve" smooth="yes"/>
      <point x="317" y="733" type="line" smooth="no"/>
      <point x="317" y="0" type="line" smooth="no"/>
      <point x="123" y="0" type="line" smooth="no"/>
      <point x="123" y="1579" type="line" smooth="no"/>
      <point x="499" y="1579" type="line" smooth="yes"/>
      <point x="813" y="1579"/>
      <point x="1216" y="1579"/>
      <point x="1216" y="1160" type="curve" smooth="yes"/>
      <point x="1216" y="926"/>
      <point x="1021" y="797"/>
    </contour>
    <contour>
      <point x="317" y="862" type="line" smooth="no"/>
      <point x="558" y="862" type="line" smooth="yes"/>
      <point x="758" y="862"/>
      <point x="1046" y="885"/>
      <point x="1046" y="1150" type="curve" smooth="yes"/>
      <point x="1046" y="1416"/>
      <point x="822" y="1437"/>
      <point x="612" y="1437" type="curve" smooth="yes"/>
      <point x="573" y="1437"/>
      <point x="535" y="1436"/>
      <point x="499" y="1436" type="curve" smooth="yes"/>
      <point x="317" y="1436" type="line" smooth="no"/>
    </contour>
  </outline>
</glyph>
<glyph name="S" format="1">
  <advance width="1096"/>
  <unicode hex="0053"/>
  <outline>
    <contour>
      <point x="70" y="72" type="curve" smooth="no"/>
      <point x="90" y="222" type="line" smooth="no"/>
      <point x="233" y="147"/>
      <point x="335" y="111"/>
      <point x="500" y="111" type="curve" smooth="yes"/>
      <point x="712" y="111"/>
      <point x="911" y="166"/>
      <point x="911" y="416" type="curve" smooth="yes"/>
      <point x="911" y="866"/>
      <point x="1" y="654"/>
      <point x="1" y="1217" type="curve" smooth="yes"/>
      <point x="1" y="1494"/>
      <point x="258" y="1610"/>
      <point x="500" y="1610" type="curve" smooth="yes"/>
      <point x="672" y="1610"/>
      <point x="843" y="1569"/>
      <point x="993" y="1484" type="curve" smooth="no"/>
      <point x="963" y="1337" type="line" smooth="no"/>
      <point x="850" y="1409"/>
      <point x="696" y="1458"/>
      <point x="562" y="1458" type="curve" smooth="yes"/>
      <point x="381" y="1458"/>
      <point x="184" y="1429"/>
      <point x="184" y="1208" type="curve" smooth="yes"/>
      <point x="184" y="820"/>
      <point x="1095" y="1050"/>
      <point x="1095" y="426" type="curve" smooth="yes"/>
      <point x="1095" y="91"/>
      <point x="838" y="-41"/>
      <point x="532" y="-41" type="curve" smooth="yes"/>
      <point x="388" y="-41"/>
      <point x="193" y="-5"/>
    </contour>
  </outline>
</glyph>
<glyph name="bracketleft" format="1">
  <advance width="900"/>
  <unicode hex="005b"/>
  <outline>
    <contour>
      <point x="121" y="1579" type="line" smooth="no"/>
      <point x="785" y="1579" type="line" smooth="no"/>
      <point x="785" y="1436" type="line" smooth="no"/>
      <point x="314" y="1436" type="line" smooth="no"/>
      <point x="314" y="143" type="line" smooth="no"/>
      <point x="785" y="143" type="line" smooth="no"/>
      <point x="785" y="0" type="line" smooth="no"/>
      <point x="121" y="0" type="line" smooth="no"/>
    </contour>
  </outline>
</glyph>
<glyph name="grave" format="1">
  <advance width="458"/>
  <unicode hex="0060"/>
  <outline>
    <contour>
      <point x="424" y="356" type="line" smooth="no"/>
      <point x="357" y="330" type="line" smooth="no"/>
      <point x="29" y="885" type="line" smooth="no"/>
      <point x="271" y="974" type="line" smooth="no"/>
    </contour>
  </outline>
</glyph>
<glyph name="a" format="1">
  <advance width="1193"/>
  <unicode hex="0061"/>
  <outline>
    <contour>
      <point x="549" y="117" type="curve" smooth="yes"/>
      <point x="678" y="117"/>
      <point x="793" y="185"/>
      <point x="885" y="271" type="curve" smooth="no"/>
      <point x="885" y="569" type="line" smooth="no"/>
      <point x="798" y="583"/>
      <point x="711" y="590"/>
      <point x="623" y="590" type="curve" smooth="yes"/>
      <point x="451" y="590"/>
      <point x="301" y="556"/>
      <point x="301" y="356" type="curve" smooth="yes"/>
      <point x="301" y="182"/>
      <point x="381" y="117"/>
    </contour>
    <contour>
      <point x="885" y="665" type="curve" smooth="no"/>
      <point x="885" y="713" type="line" smooth="yes"/>
      <point x="885" y="925"/>
      <point x="857" y="1047"/>
      <point x="613" y="1047" type="curve" smooth="yes"/>
      <point x="495" y="1047"/>
      <point x="350" y="999"/>
      <point x="250" y="935" type="curve" smooth="no"/>
      <point x="183" y="1057" type="line" smooth="no"/>
      <point x="316" y="1132"/>
      <point x="446" y="1190"/>
      <point x="603" y="1190" type="curve" smooth="yes"/>
      <point x="974" y="1190"/>
      <point x="1075" y="1043"/>
      <point x="1075" y="686" type="curve" smooth="yes"/>
      <point x="1075" y="0" type="line" smooth="no"/>
      <point x="935" y="0" type="line" smooth="no"/>
      <point x="907" y="178" type="line" smooth="no"/>
      <point x="809" y="44"/>
      <point x="669" y="-20"/>
      <point x="502" y="-20" type="curve" smooth="yes"/>
      <point x="263" y="-20"/>
      <point x="110" y="97"/>
      <point x="110" y="343" type="curve" smooth="yes"/>
      <point x="110" y="603"/>
      <point x="318" y="715"/>
      <point x="554" y="715" type="curve" smooth="yes"/>
      <point x="640" y="715"/>
      <point x="804" y="694"/>
    </contour>
  </outline>
</glyph>
<glyph name="c" format="1">
  <advance width="1115"/>
  <unicode hex="0063"/>
  <outline>
    <contour>
      <point x="301" y="580" type="curve" smooth="yes"/>
      <point x="301" y="810"/>
      <point x="369" y="1040"/>
      <point x="639" y="1040" type="curve" smooth="yes"/>
      <point x="755" y="1040"/>
      <point x="865" y="1000"/>
      <point x="953" y="924" type="curve" smooth="no"/>
      <point x="1010" y="1057" type="line" smooth="no"/>
      <point x="896" y="1138"/>
      <point x="763" y="1190"/>
      <point x="622" y="1190" type="curve" smooth="yes"/>
      <point x="269" y="1190"/>
      <point x="111" y="903"/>
      <point x="111" y="580" type="curve" smooth="yes"/>
      <point x="111" y="260"/>
      <point x="269" y="-20"/>
      <point x="619" y="-20" type="curve" smooth="yes"/>
      <point x="761" y="-20"/>
      <point x="896" y="31"/>
      <point x="1010" y="111" type="curve" smooth="no"/>
      <point x="953" y="245" type="line" smooth="no"/>
      <point x="863" y="155"/>
      <point x="745" y="117"/>
      <point x="624" y="117" type="curve" smooth="yes"/>
      <point x="368" y="117"/>
      <point x="301" y="360"/>
    </contour>
  </outline>
</glyph>
<glyph name="f" format="1">
  <advance width="898"/>
  <unicode hex="0066"/>
  <outline>
    <contour>
      <point x="617" y="1516" type="curve" smooth="yes"/>
      <point x="470" y="1516"/>
      <point x="447" y="1430"/>
      <point x="447" y="1324" type="curve" smooth="yes"/>
      <point x="447" y="1275"/>
      <point x="452" y="1221"/>
      <point x="452" y="1169" type="curve" smooth="no"/>
      <point x="800" y="1169" type="line" smooth="no"/>
      <point x="800" y="1064" type="line" smooth="no"/>
      <point x="452" y="1064" type="line" smooth="no"/>
      <point x="452" y="0" type="line" smooth="no"/>
      <point x="262" y="0" type="line" smooth="no"/>
      <point x="262" y="1064" type="line" smooth="no"/>
      <point x="67" y="1064" type="line" smooth="no"/>
      <point x="67" y="1169" type="line" smooth="no"/>
      <point x="262" y="1169" type="line" smooth="no"/>
      <point x="262" y="1421"/>
      <point x="289" y="1659"/>
      <point x="593" y="1659" type="curve" smooth="yes"/>
      <point x="674" y="1659"/>
      <point x="770" y="1615"/>
      <point x="835" y="1567" type="curve" smooth="no"/>
      <point x="772" y="1442" type="line" smooth="no"/>
      <point x="730" y="1480"/>
      <point x="676" y="1516"/>
    </contour>
  </outline>
</glyph>
<glyph name="g" format="1">
  <advance width="1225"/>
  <unicode hex="0067"/>
  <outline>
    <contour>
      <point x="240" y="-110" type="curve" smooth="yes"/>
      <point x="240" y="-37"/>
      <point x="274" y="37"/>
      <point x="337" y="76" type="curve" smooth="no"/>
      <point x="659" y="76" type="line" smooth="yes"/>
      <point x="796" y="76"/>
      <point x="954" y="65"/>
      <point x="954" y="-111" type="curve" smooth="yes"/>
      <point x="954" y="-270"/>
      <point x="734" y="-277"/>
      <point x="605" y="-277" type="curve" smooth="yes"/>
      <point x="572" y="-277" type="line" smooth="yes"/>
      <point x="539" y="-277" type="line" smooth="yes"/>
      <point x="414" y="-277"/>
      <point x="240" y="-270"/>
    </contour>
    <contour>
      <point x="279" y="845" type="curve" smooth="yes"/>
      <point x="279" y="1009"/>
      <point x="414" y="1058"/>
      <point x="555" y="1058" type="curve" smooth="yes"/>
      <point x="698" y="1058"/>
      <point x="822" y="1031"/>
      <point x="822" y="860" type="curve" smooth="yes"/>
      <point x="822" y="593"/>
      <point x="685" y="580"/>
      <point x="462" y="552" type="curve" smooth="no"/>
      <point x="353" y="599"/>
      <point x="279" y="729"/>
    </contour>
    <contour>
      <point x="248" y="107" type="curve" smooth="no"/>
      <point x="149" y="62"/>
      <point x="82" y="-12"/>
      <point x="82" y="-125" type="curve" smooth="yes"/>
      <point x="82" y="-407"/>
      <point x="378" y="-427"/>
      <point x="592" y="-427" type="curve" smooth="yes"/>
      <point x="799" y="-427"/>
      <point x="1116" y="-372"/>
      <point x="1116" y="-106" type="curve" smooth="yes"/>
      <point x="1116" y="176"/>
      <point x="833" y="217"/>
      <point x="575" y="217" type="curve" smooth="yes"/>
      <point x="468" y="217"/>
      <point x="365" y="210"/>
      <point x="289" y="210" type="curve" smooth="no"/>
      <point x="278" y="246"/>
      <point x="268" y="284"/>
      <point x="268" y="322" type="curve" smooth="yes"/>
      <point x="268" y="511"/>
      <point x="989" y="296"/>
      <point x="989" y="812" type="curve" smooth="yes"/>
      <point x="989" y="888"/>
      <point x="979" y="983"/>
      <point x="906" y="1026" type="curve" smooth="no"/>
      <point x="1144" y="1026" type="line" smooth="no"/>
      <point x="1144" y="1171" type="line" smooth="no"/>
      <point x="1035" y="1170"/>
      <point x="938" y="1165"/>
      <point x="839" y="1114" type="curve" smooth="no"/>
      <point x="760" y="1175"/>
      <point x="656" y="1190"/>
      <point x="559" y="1190" type="curve" smooth="yes"/>
      <point x="356" y="1190"/>
      <point x="118" y="1089"/>
      <point x="118" y="854" type="curve" smooth="yes"/>
      <point x="118" y="718"/>
      <point x="186" y="578"/>
      <point x="315" y="521" type="curve" smooth="no"/>
      <point x="215" y="506"/>
      <point x="129" y="424"/>
      <point x="129" y="320" type="curve" smooth="yes"/>
      <point x="129" y="235"/>
      <point x="179" y="154"/>
    </contour>
  </outline>
</glyph>
<glyph name="j" format="1">
  <advance width="606"/>
  <unicode hex="006a"/>
  <outline>
    <contour>
      <point x="93" y="-258" type="line" smooth="no"/>
      <point x="267" y="-147"/>
      <point x="281" y="-14"/>
      <point x="281" y="176" type="curve" smooth="yes"/>
      <point x="281" y="1169" type="line" smooth="no"/>
      <point x="471" y="1169" type="line" smooth="no"/>
      <point x="471" y="154" type="line" smooth="yes"/>
      <point x="471" y="-68"/>
      <point x="378" y="-315"/>
      <point x="140" y="-373" type="curve" smooth="no"/>
    </contour>
    <contour>
      <point x="375" y="1577" type="curve" smooth="yes"/>
      <point x="440" y="1577"/>
      <point x="483" y="1524"/>
      <point x="483" y="1462" type="curve" smooth="yes"/>
      <point x="483" y="1400"/>
      <point x="440" y="1347"/>
      <point x="375" y="1347" type="curve" smooth="yes"/>
      <point x="311" y="1347"/>
      <point x="263" y="1399"/>
      <point x="263" y="1462" type="curve" smooth="yes"/>
      <point x="263" y="1524"/>
      <point x="312" y="1577"/>
    </contour>
  </outline>
</glyph>
<glyph name="p" format="1">
  <advance width="1256"/>
  <unicode hex="0070"/>
  <outline>
    <contour>
      <point x="675" y="-20" type="curve" smooth="yes"/>
      <point x="536" y="-20"/>
      <point x="403" y="58"/>
      <point x="316" y="164" type="curve" smooth="no"/>
      <point x="316" y="-465" type="line" smooth="no"/>
      <point x="126" y="-487" type="line" smooth="no"/>
      <point x="126" y="1169" type="line" smooth="no"/>
      <point x="267" y="1169" type="line" smooth="no"/>
      <point x="300" y="971" type="line" smooth="no"/>
      <point x="387" y="1088"/>
      <point x="523" y="1190"/>
      <point x="674" y="1190" type="curve" smooth="yes"/>
      <point x="1018" y="1190"/>
      <point x="1144" y="882"/>
      <point x="1144" y="584" type="curve" smooth="yes"/>
      <point x="1144" y="291"/>
      <point x="1012" y="-20"/>
    </contour>
    <contour>
      <point x="962" y="543" type="curve" smooth="yes"/>
      <point x="962" y="735"/>
      <point x="931" y="1047"/>
      <point x="675" y="1047" type="curve" smooth="yes"/>
      <point x="565" y="1047"/>
      <point x="393" y="972"/>
      <point x="316" y="890" type="curve" smooth="no"/>
      <point x="316" y="285" type="line" smooth="no"/>
      <point x="381" y="202"/>
      <point x="555" y="117"/>
      <point x="656" y="117" type="curve" smooth="yes"/>
      <point x="898" y="117"/>
      <point x="962" y="331"/>
    </contour>
  </outline>
</glyph>
<glyph name="q" format="1">
  <advance width="1245"/>
  <unicode hex="0071"/>
  <outline>
    <contour>
      <point x="570" y="1190" type="curve" smooth="yes"/>
      <point x="719" y="1190"/>
      <point x="872" y="1093"/>
      <point x="953" y="971" type="curve" smooth="no"/>
      <point x="987" y="1169" type="line" smooth="no"/>
      <point x="1126" y="1169" type="line" smooth="no"/>
      <point x="1126" y="-479" type="line" smooth="no"/>
      <point x="936" y="-502" type="line" smooth="no"/>
      <point x="936" y="164" type="line" smooth="no"/>
      <point x="852" y="57"/>
      <point x="718" y="-20"/>
      <point x="580" y="-20" type="curve" smooth="yes"/>
      <point x="240" y="-20"/>
      <point x="109" y="288"/>
      <point x="109" y="584" type="curve" smooth="yes"/>
      <point x="109" y="878"/>
      <point x="228" y="1190"/>
    </contour>
    <contour>
      <point x="291" y="584" type="curve" smooth="yes"/>
      <point x="291" y="385"/>
      <point x="333" y="117"/>
      <point x="580" y="117" type="curve" smooth="yes"/>
      <point x="694" y="117"/>
      <point x="854" y="184"/>
      <point x="936" y="268" type="curve" smooth="no"/>
      <point x="936" y="891" type="line" smooth="no"/>
      <point x="852" y="975"/>
      <point x="690" y="1047"/>
      <point x="570" y="1047" type="curve" smooth="yes"/>
      <point x="324" y="1047"/>
      <point x="291" y="774"/>
    </contour>
  </outline>
</glyph>
<glyph name="r" format="1">
  <advance width="831"/>
  <unicode hex="0072"/>
  <outline>
    <contour>
      <point x="618" y="1190" type="curve" smooth="yes"/>
      <point x="652" y="1190"/>
      <point x="686" y="1187"/>
      <point x="718" y="1178" type="curve" smooth="no"/>
      <point x="718" y="1026" type="line" smooth="no"/>
      <point x="698" y="1030"/>
      <point x="676" y="1030"/>
      <point x="656" y="1030" type="curve" smooth="yes"/>
      <point x="555" y="1030"/>
      <point x="388" y="966"/>
      <point x="313" y="894" type="curve" smooth="no"/>
      <point x="313" y="0" type="line" smooth="no"/>
      <point x="123" y="0" type="line" smooth="no"/>
      <point x="123" y="1169" type="line" smooth="no"/>
      <point x="266" y="1169" type="line" smooth="no"/>
      <point x="296" y="977" type="line" smooth="no"/>
      <point x="372" y="1076"/>
      <point x="483" y="1190"/>
    </contour>
  </outline>
</glyph>
<glyph name="s" format="1">
  <advance width="1007"/>
  <unicode hex="0073"/>
  <outline>
    <contour>
      <point x="99" y="100" type="curve" smooth="no"/>
      <point x="163" y="245" type="line" smooth="no"/>
      <point x="246" y="174"/>
      <point x="381" y="117"/>
      <point x="490" y="117" type="curve" smooth="yes"/>
      <point x="602" y="117"/>
      <point x="749" y="156"/>
      <point x="749" y="314" type="curve" smooth="yes"/>
      <point x="749" y="622"/>
      <point x="89" y="441"/>
      <point x="89" y="891" type="curve" smooth="yes"/>
      <point x="89" y="1102"/>
      <point x="304" y="1190"/>
      <point x="486" y="1190" type="curve" smooth="yes"/>
      <point x="590" y="1190"/>
      <point x="787" y="1135"/>
      <point x="868" y="1067" type="curve" smooth="no"/>
      <point x="806" y="924" type="line" smooth="no"/>
      <point x="718" y="995"/>
      <point x="611" y="1042"/>
      <point x="497" y="1042" type="curve" smooth="yes"/>
      <point x="388" y="1042"/>
      <point x="249" y="1015"/>
      <point x="249" y="880" type="curve" smooth="yes"/>
      <point x="249" y="652"/>
      <point x="921" y="759"/>
      <point x="921" y="309" type="curve" smooth="yes"/>
      <point x="921" y="64"/>
      <point x="695" y="-20"/>
      <point x="483" y="-20" type="curve" smooth="yes"/>
      <point x="374" y="-20"/>
      <point x="184" y="32"/>
    </contour>
  </outline>
</glyph>
<glyph name="t" format="1">
  <advance width="915"/>
  <unicode hex="0074"/>
  <outline>
    <contour>
      <point x="815" y="40" type="line" smooth="no"/>
      <point x="741" y="5"/>
      <point x="660" y="-14"/>
      <point x="578" y="-14" type="curve" smooth="yes"/>
      <point x="389" y="-14"/>
      <point x="279" y="116"/>
      <point x="279" y="300" type="curve" smooth="yes"/>
      <point x="279" y="1065" type="line" smooth="no"/>
      <point x="96" y="1065" type="line" smooth="no"/>
      <point x="96" y="1169" type="line" smooth="no"/>
      <point x="307" y="1169" type="line" smooth="no"/>
      <point x="307" y="1530" type="line" smooth="no"/>
      <point x="469" y="1576" type="line" smooth="no"/>
      <point x="469" y="1169" type="line" smooth="no"/>
      <point x="802" y="1169" type="line" smooth="no"/>
      <point x="802" y="1065" type="line" smooth="no"/>
      <point x="469" y="1065" type="line" smooth="no"/>
      <point x="469" y="298" type="line" smooth="yes"/>
      <point x="469" y="206"/>
      <point x="512" y="125"/>
      <point x="610" y="125" type="curve" smooth="yes"/>
      <point x="668" y="125"/>
      <point x="727" y="144"/>
      <point x="779" y="169" type="curve" smooth="no"/>
    </contour>
  </outline>
</glyph>
<glyph name="u" format="1">
  <advance width="1210"/>
  <unicode hex="0075"/>
  <outline>
    <contour>
      <point x="543" y="117" type="curve" smooth="yes"/>
      <point x="678" y="117"/>
      <point x="800" y="179"/>
      <point x="897" y="274" type="curve" smooth="no"/>
      <point x="897" y="1169" type="line" smooth="no"/>
      <point x="1087" y="1169" type="line" smooth="no"/>
      <point x="1087" y="0" type="line" smooth="no"/>
      <point x="946" y="0" type="line" smooth="no"/>
      <point x="919" y="176" type="line" smooth="no"/>
      <point x="815" y="59"/>
      <point x="694" y="-20"/>
      <point x="533" y="-20" type="curve" smooth="yes"/>
      <point x="238" y="-20"/>
      <point x="121" y="163"/>
      <point x="121" y="442" type="curve" smooth="yes"/>
      <point x="121" y="1169" type="line" smooth="no"/>
      <point x="311" y="1169" type="line" smooth="no"/>
      <point x="311" y="442" type="line" smooth="yes"/>
      <point x="311" y="276"/>
      <point x="349" y="117"/>
    </contour>
  </outline>
</glyph>
<glyph name="v" format="1">
  <advance width="1229"/>
  <unicode hex="0076"/>
  <outline>
    <contour>
      <point x="707" y="0" type="line" smooth="no"/>
      <point x="521" y="0" type="line" smooth="no"/>
      <point x="93" y="1169" type="line" smooth="no"/>
      <point x="281" y="1169" type="line" smooth="no"/>
      <point x="617" y="199" type="line" smooth="no"/>
      <point x="947" y="1169" type="line" smooth="no"/>
      <point x="1137" y="1169" type="line" smooth="no"/>
    </contour>
  </outline>
</glyph>
<glyph name="w" format="1">
  <advance width="1751"/>
  <unicode hex="0077"/>
  <outline>
    <contour>
      <point x="876" y="996" type="line" smooth="no"/>
      <point x="628" y="0" type="line" smooth="no"/>
      <point x="422" y="0" type="line" smooth="no"/>
      <point x="93" y="1169" type="line" smooth="no"/>
      <point x="277" y="1169" type="line" smooth="no"/>
      <point x="527" y="153" type="line" smooth="no"/>
      <point x="778" y="1169" type="line" smooth="no"/>
      <point x="980" y="1169" type="line" smooth="no"/>
      <point x="1243" y="151" type="line" smooth="no"/>
      <point x="1477" y="1169" type="line" smooth="no"/>
      <point x="1656" y="1169" type="line" smooth="no"/>
      <point x="1336" y="0" type="line" smooth="no"/>
      <point x="1130" y="0" type="line" smooth="no"/>
    </contour>
  </outline>
</glyph>
<glyph name="x" format="1">
  <advance width="1183"/>
  <unicode hex="0078"/>
  <outline>
    <contour>
      <point x="92" y="1169" type="line" smooth="no"/>
      <point x="308" y="1169" type="line" smooth="no"/>
      <point x="590" y="702" type="line" smooth="no"/>
      <point x="880" y="1169" type="line" smooth="no"/>
      <point x="1090" y="1169" type="line" smooth="no"/>
      <point x="684" y="584" type="line" smooth="no"/>
      <point x="1082" y="0" type="line" smooth="no"/>
      <point x="878" y="0" type="line" smooth="no"/>
      <point x="596" y="477" type="line" smooth="no"/>
      <point x="308" y="0" type="line" smooth="no"/>
      <point x="96" y="0" type="line" smooth="no"/>
      <point x="504" y="584" type="line" smooth="no"/>
    </contour>
  </outline>
</glyph>
<glyph name="y" format="1">
  <advance width="1209"/>
  <unicode hex="0079"/>
  <outline>
    <contour>
      <point x="624" y="249" type="line" smooth="no"/>
      <point x="925" y="1169" type="line" smooth="no"/>
      <point x="1120" y="1169" type="line" smooth="no"/>
      <point x="683" y="-37" type="line" smooth="yes"/>
      <point x="603" y="-259"/>
      <point x="526" y="-459"/>
      <point x="249" y="-459" type="curve" smooth="no"/>
      <point x="198" y="-334" type="line" smooth="no"/>
      <point x="428" y="-295"/>
      <point x="476" y="-186"/>
      <point x="538" y="23" type="curve" smooth="no"/>
      <point x="87" y="1169" type="line" smooth="no"/>
      <point x="269" y="1169" type="line" smooth="no"/>
    </contour>
  </outline>
</glyph>
<glyph name="braceleft" format="1">
  <advance width="766"/>
  <unicode hex="007b"/>
  <outline>
    <contour>
      <point x="57" y="571" type="line" smooth="yes"/>
      <point x="58" y="571" type="line" smooth="yes"/>
      <point x="517" y="571"/>
      <point x="38" y="-209"/>
      <point x="703" y="-209" type="curve" smooth="yes"/>
      <point x="704" y="-209" type="line" smooth="yes"/>
      <point x="705" y="-40" type="line" smooth="no"/>
      <point x="702" y="-40" type="line" smooth="yes"/>
      <point x="252" y="-40"/>
      <point x="676" y="547"/>
      <point x="224" y="665" type="curve" smooth="no"/>
      <point x="676" y="783"/>
      <point x="252" y="1370"/>
      <point x="702" y="1370" type="curve" smooth="yes"/>
      <point x="705" y="1370" type="line" smooth="no"/>
      <point x="704" y="1539" type="line" smooth="no"/>
      <point x="703" y="1539" type="line" smooth="yes"/>
      <point x="38" y="1539"/>
      <point x="517" y="759"/>
      <point x="58" y="759" type="curve" smooth="yes"/>
      <point x="57" y="759" type="line" smooth="yes"/>
    </contour>
  </outline>
</glyph>
<glyph name="braceright" format="1">
  <advance width="766"/>
  <unicode hex="007d"/>
  <outline>
    <contour>
      <point x="710" y="571" type="line" smooth="yes"/>
      <point x="709" y="571" type="line" smooth="yes"/>
      <point x="251" y="571"/>
      <point x="728" y="-209"/>
      <point x="64" y="-209" type="curve" smooth="yes"/>
      <point x="63" y="-209" type="line" smooth="yes"/>
      <point x="62" y="-40" type="line" smooth="no"/>
      <point x="65" y="-40" type="line" smooth="yes"/>
      <point x="515" y="-40"/>
      <point x="91" y="547"/>
      <point x="543" y="665" type="curve" smooth="no"/>
      <point x="92" y="783"/>
      <point x="514" y="1370"/>
      <point x="65" y="1370" type="curve" smooth="yes"/>
      <point x="62" y="1370" type="line" smooth="no"/>
      <point x="63" y="1539" type="line" smooth="no"/>
      <point x="64" y="1539" type="line" smooth="yes"/>
      <point x="728" y="1539"/>
      <point x="251" y="759"/>
      <point x="709" y="759" type="curve" smooth="yes"/>
      <point x="710" y="759" type="line" smooth="yes"/>
    </contour>
  </outline>
</glyph>
<glyph name="cent" format="1">
  <advance width="1014"/>
  <unicode hex="00a2"/>
  <outline>
    <contour>
      <point x="537" y="-159" type="line" smooth="no"/>
      <point x="640" y="-159" type="line" smooth="no"/>
      <point x="640" y="-19" type="line" smooth="no"/>
      <point x="740" y="-18"/>
      <point x="862" y="23"/>
      <point x="951" y="68" type="curve" smooth="no"/>
      <point x="905" y="205" type="line" smooth="no"/>
      <point x="827" y="158"/>
      <point x="731" y="130"/>
      <point x="640" y="130" type="curve" smooth="no"/>
      <point x="640" y="1038" type="line" smooth="no"/>
      <point x="730" y="1037"/>
      <point x="833" y="997"/>
      <point x="905" y="944" type="curve" smooth="no"/>
      <point x="962" y="1077" type="line" smooth="no"/>
      <point x="873" y="1131"/>
      <point x="744" y="1185"/>
      <point x="640" y="1186" type="curve" smooth="no"/>
      <point x="640" y="1329" type="line" smooth="no"/>
      <point x="537" y="1329" type="line" smooth="no"/>
      <point x="537" y="1189" type="line" smooth="no"/>
      <point x="202" y="1156"/>
      <point x="63" y="895"/>
      <point x="63" y="580" type="curve" smooth="yes"/>
      <point x="63" y="272"/>
      <point x="203" y="-2"/>
      <point x="537" y="-22" type="curve" smooth="no"/>
    </contour>
    <contour>
      <point x="537" y="129" type="line" smooth="no"/>
      <point x="307" y="153"/>
      <point x="253" y="385"/>
      <point x="253" y="580" type="curve" smooth="yes"/>
      <point x="253" y="781"/>
      <point x="303" y="1007"/>
      <point x="537" y="1037" type="curve" smooth="no"/>
    </contour>
  </outline>
</glyph>
<glyph name="registered" format="1">
  <advance width="1233"/>
  <unicode hex="00ae"/>
  <outline>
    <contour>
      <point x="594" y="1150" type="line" smooth="yes"/>
      <point x="671" y="1150"/>
      <point x="742" y="1164"/>
      <point x="742" y="1256" type="curve" smooth="yes"/>
      <point x="742" y="1321"/>
      <point x="642" y="1326"/>
      <point x="579" y="1326" type="curve" smooth="yes"/>
      <point x="546" y="1326" type="line" smooth="no"/>
      <point x="546" y="1150" type="line" smooth="no"/>
    </contour>
    <contour>
      <point x="846" y="1261" type="curve" smooth="yes"/>
      <point x="846" y="1146"/>
      <point x="784" y="1111"/>
      <point x="680" y="1086" type="curve" smooth="no"/>
      <point x="860" y="836" type="line" smooth="no"/>
      <point x="826" y="823"/>
      <point x="792" y="802"/>
      <point x="760" y="785" type="curve" smooth="no"/>
      <point x="586" y="1068" type="line" smooth="no"/>
      <point x="543" y="1068" type="line" smooth="no"/>
      <point x="543" y="807" type="line" smooth="no"/>
      <point x="437" y="807" type="line" smooth="no"/>
      <point x="437" y="1408" type="line" smooth="no"/>
      <point x="557" y="1408" type="line" smooth="yes"/>
      <point x="649" y="1408"/>
      <point x="846" y="1394"/>
    </contour>
    <contour>
      <point x="617" y="542" type="curve" smooth="yes"/>
      <point x="297" y="542"/>
      <point x="28" y="781"/>
      <point x="28" y="1108" type="curve" smooth="yes"/>
      <point x="28" y="1433"/>
      <point x="300" y="1674"/>
      <point x="617" y="1674" type="curve" smooth="yes"/>
      <point x="935" y="1674"/>
      <point x="1207" y="1434"/>
      <point x="1207" y="1108" type="curve" smooth="yes"/>
      <point x="1207" y="781"/>
      <point x="936" y="542"/>
    </contour>
    <contour>
      <point x="616" y="641" type="curve" smooth="yes"/>
      <point x="880" y="641"/>
      <point x="1099" y="837"/>
      <point x="1099" y="1106" type="curve" smooth="yes"/>
      <point x="1099" y="1376"/>
      <point x="881" y="1572"/>
      <point x="616" y="1572" type="curve" smooth="yes"/>
      <point x="350" y="1572"/>
      <point x="136" y="1375"/>
      <point x="136" y="1105" type="curve" smooth="yes"/>
      <point x="136" y="834"/>
      <point x="350" y="641"/>
    </contour>
  </outline>
</glyph>
<glyph name="degree" format="1">
  <advance width="565"/>
  <unicode hex="00b0"/>
  <outline>
    <contour>
      <point x="285" y="1048" type="curve" smooth="yes"/>
      <point x="202" y="1048"/>
      <point x="140" y="980"/>
      <point x="140" y="899" type="curve" smooth="yes"/>
      <point x="140" y="819"/>
      <point x="204" y="750"/>
      <point x="285" y="750" type="curve" smooth="yes"/>
      <point x="369" y="750"/>
      <point x="426" y="817"/>
      <point x="426" y="899" type="curve" smooth="yes"/>
      <point x="426" y="981"/>
      <point x="369" y="1048"/>
    </contour>
    <contour>
      <point x="287" y="1139" type="curve" smooth="yes"/>
      <point x="424" y="1139"/>
      <point x="523" y="1035"/>
      <point x="523" y="899" type="curve" smooth="yes"/>
      <point x="523" y="762"/>
      <point x="425" y="660"/>
      <point x="287" y="660" type="curve" smooth="yes"/>
      <point x="149" y="660"/>
      <point x="43" y="759"/>
      <point x="43" y="899" type="curve" smooth="yes"/>
      <point x="43" y="1039"/>
      <point x="148" y="1139"/>
    </contour>
  </outline>
</glyph>
<glyph name="plusminus" format="1">
  <advance width="852"/>
  <unicode hex="00b1"/>
  <outline>
    <contour>
      <point x="819" y="518" type="line" smooth="no"/>
      <point x="505" y="518" type="line" smooth="no"/>
      <point x="505" y="174" type="line" smooth="no"/>
      <point x="364" y="174" type="line" smooth="no"/>
      <point x="364" y="518" type="line" smooth="no"/>
      <point x="51" y="518" type="line" smooth="no"/>
      <point x="51" y="651" type="line" smooth="no"/>
      <point x="364" y="651" type="line" smooth="no"/>
      <point x="364" y="995" type="line" smooth="no"/>
      <point x="505" y="995" type="line" smooth="no"/>
      <point x="505" y="651" type="line" smooth="no"/>
      <point x="819" y="651" type="line" smooth="no"/>
    </contour>
    <contour>
      <point x="786" y="-55" type="line" smooth="no"/>
      <point x="85" y="-55" type="line" smooth="no"/>
      <point x="85" y="88" type="line" smooth="no"/>
      <point x="786" y="88" type="line" smooth="no"/>
    </contour>
  </outline>
</glyph>
<glyph name="cedilla" format="1">
  <advance width="502"/>
  <unicode hex="00b8"/>
  <outline>
    <contour>
      <point x="67" y="-540" type="curve" smooth="no"/>
      <point x="67" y="-423" type="line" smooth="no"/>
      <point x="107" y="-437"/>
      <point x="192" y="-464"/>
      <point x="231" y="-464" type="curve" smooth="yes"/>
      <point x="333" y="-464"/>
      <point x="370" y="-437"/>
      <point x="370" y="-328" type="curve" smooth="yes"/>
      <point x="370" y="-189"/>
      <point x="222" y="-186"/>
      <point x="117" y="-186" type="curve" smooth="no"/>
      <point x="117" y="76" type="line" smooth="no"/>
      <point x="238" y="76" type="line" smooth="no"/>
      <point x="238" y="-98" type="line" smooth="no"/>
      <point x="405" y="-98"/>
      <point x="503" y="-166"/>
      <point x="503" y="-342" type="curve" smooth="yes"/>
      <point x="503" y="-506"/>
      <point x="409" y="-578"/>
      <point x="251" y="-578" type="curve" smooth="yes"/>
      <point x="188" y="-578"/>
      <point x="126" y="-560"/>
    </contour>
  </outline>
</glyph>
<glyph name="Thorn" format="1">
  <advance width="1254"/>
  <unicode hex="00de"/>
  <outline>
    <contour>
      <point x="1212" y="973" type="curve" smooth="yes"/>
      <point x="1212" y="523"/>
      <point x="762" y="504"/>
      <point x="412" y="504" type="curve" smooth="yes"/>
      <point x="317" y="504" type="line" smooth="no"/>
      <point x="317" y="0" type="line" smooth="no"/>
      <point x="123" y="0" type="line" smooth="no"/>
      <point x="123" y="1579" type="line" smooth="no"/>
      <point x="317" y="1579" type="line" smooth="no"/>
      <point x="317" y="1444" type="line" smooth="no"/>
      <point x="376" y="1444"/>
      <point x="437" y="1445"/>
      <point x="500" y="1445" type="curve" smooth="yes"/>
      <point x="845" y="1445"/>
      <point x="1212" y="1411"/>
    </contour>
    <contour>
      <point x="479" y="649" type="line" smooth="yes"/>
      <point x="713" y="649"/>
      <point x="1030" y="655"/>
      <point x="1030" y="959" type="curve" smooth="yes"/>
      <point x="1030" y="1289"/>
      <point x="807" y="1300"/>
      <point x="526" y="1300" type="curve" smooth="yes"/>
      <point x="317" y="1300" type="line" smooth="no"/>
      <point x="317" y="649" type="line" smooth="no"/>
    </contour>
  </outline>
</glyph>
<glyph name="germandbls" format="1">
  <advance width="1303"/>
  <unicode hex="00df"/>
  <outline>
    <contour>
      <point x="901" y="1200" type="curve" smooth="yes"/>
      <point x="901" y="1399"/>
      <point x="748" y="1436"/>
      <point x="580" y="1436" type="curve" smooth="yes"/>
      <point x="306" y="1436"/>
      <point x="305" y="1240"/>
      <point x="305" y="1018" type="curve" smooth="yes"/>
      <point x="305" y="16" type="line" smooth="no"/>
      <point x="111" y="-6" type="line" smooth="no"/>
      <point x="110" y="1046" type="line" smooth="yes"/>
      <point x="110" y="1381"/>
      <point x="221" y="1579"/>
      <point x="580" y="1579" type="curve" smooth="yes"/>
      <point x="856" y="1579"/>
      <point x="1073" y="1484"/>
      <point x="1073" y="1176" type="curve" smooth="yes"/>
      <point x="1073" y="1015"/>
      <point x="1002" y="864"/>
      <point x="827" y="844" type="curve" smooth="no"/>
      <point x="1100" y="844"/>
      <point x="1255" y="661"/>
      <point x="1255" y="395" type="curve" smooth="yes"/>
      <point x="1255" y="-37"/>
      <point x="831" y="-129"/>
      <point x="481" y="-129" type="curve" smooth="no"/>
      <point x="481" y="27" type="line" smooth="no"/>
      <point x="797" y="27"/>
      <point x="1073" y="62"/>
      <point x="1073" y="432" type="curve" smooth="yes"/>
      <point x="1073" y="759"/>
      <point x="690" y="774"/>
      <point x="449" y="774" type="curve" smooth="no"/>
      <point x="449" y="905" type="line" smooth="no"/>
      <point x="478" y="904"/>
      <point x="507" y="903"/>
      <point x="535" y="903" type="curve" smooth="yes"/>
      <point x="737" y="903"/>
      <point x="901" y="949"/>
    </contour>
  </outline>
</glyph>
<glyph name="thorn" format="1">
  <advance width="1361"/>
  <unicode hex="00fe"/>
  <outline>
    <contour>
      <point x="1143" y="584" type="curve" smooth="yes"/>
      <point x="1143" y="257"/>
      <point x="1001" y="-20"/>
      <point x="674" y="-20" type="curve" smooth="yes"/>
      <point x="508" y="-20"/>
      <point x="388" y="26"/>
      <point x="315" y="117" type="curve" smooth="no"/>
      <point x="315" y="-465" type="line" smooth="no"/>
      <point x="129" y="-487" type="line" smooth="no"/>
      <point x="129" y="1565" type="line" smooth="no"/>
      <point x="313" y="1565" type="line" smooth="no"/>
      <point x="313" y="1004" type="line" smooth="no"/>
      <point x="388" y="1097"/>
      <point x="514" y="1190"/>
      <point x="674" y="1190" type="curve" smooth="yes"/>
      <point x="1005" y="1190"/>
      <point x="1143" y="914"/>
    </contour>
    <contour>
      <point x="961" y="543" type="curve" smooth="yes"/>
      <point x="961" y="787"/>
      <point x="916" y="1047"/>
      <point x="674" y="1047" type="curve" smooth="yes"/>
      <point x="525" y="1047"/>
      <point x="411" y="963"/>
      <point x="338" y="890" type="curve" smooth="no"/>
      <point x="322" y="244" type="line" smooth="no"/>
      <point x="397" y="180"/>
      <point x="545" y="123"/>
      <point x="682" y="123" type="curve" smooth="yes"/>
      <point x="887" y="123"/>
      <point x="961" y="339"/>
    </contour>
  </outline>
</glyph>
<glyph name="dotlessi" format="1">
  <advance width="634"/>
  <unicode hex="0131"/>
  <outline>
    <contour>
      <point x="406" y="0" type="line" smooth="no"/>
      <point x="224" y="0" type="line" smooth="no"/>
      <point x="224" y="1169" type="line" smooth="no"/>
      <point x="406" y="1169" type="line" smooth="no"/>
    </contour>
  </outline>
</glyph>
<glyph name="OE" format="1">
  <advance width="2269"/>
  <unicode hex="0152"/>
  <outline>
    <contour>
      <point x="2215" y="0" type="line" smooth="no"/>
      <point x="1232" y="0" type="line" smooth="no"/>
      <point x="1232" y="169" type="line" smooth="no"/>
      <point x="1135" y="37"/>
      <point x="988" y="-41"/>
      <point x="778" y="-41" type="curve" smooth="yes"/>
      <point x="300" y="-41"/>
      <point x="124" y="301"/>
      <point x="124" y="784" type="curve" smooth="yes"/>
      <point x="124" y="1260"/>
      <point x="298" y="1610"/>
      <point x="764" y="1610" type="curve" smooth="yes"/>
      <point x="982" y="1610"/>
      <point x="1133" y="1532"/>
      <point x="1232" y="1397" type="curve" smooth="no"/>
      <point x="1232" y="1579" type="line" smooth="no"/>
      <point x="2202" y="1579" type="line" smooth="no"/>
      <point x="2202" y="1436" type="line" smooth="no"/>
      <point x="1426" y="1436" type="line" smooth="no"/>
      <point x="1426" y="891" type="line" smooth="no"/>
      <point x="2104" y="891" type="line" smooth="no"/>
      <point x="2104" y="776" type="line" smooth="no"/>
      <point x="1426" y="776" type="line" smooth="no"/>
      <point x="1426" y="143" type="line" smooth="no"/>
      <point x="2215" y="143" type="line" smooth="no"/>
    </contour>
    <contour>
      <point x="1232" y="878" type="line" smooth="no"/>
      <point x="1217" y="1210"/>
      <point x="1115" y="1458"/>
      <point x="780" y="1458" type="curve" smooth="yes"/>
      <point x="412" y="1458"/>
      <point x="324" y="1154"/>
      <point x="324" y="784" type="curve" smooth="yes"/>
      <point x="324" y="409"/>
      <point x="417" y="111"/>
      <point x="780" y="111" type="curve" smooth="yes"/>
      <point x="1115" y="111"/>
      <point x="1217" y="367"/>
      <point x="1232" y="692" type="curve" smooth="no"/>
    </contour>
  </outline>
</glyph>
<glyph name="oe" format="1">
  <advance width="2041"/>
  <unicode hex="0153"/>
  <outline>
    <contour>
      <point x="656" y="-20" type="curve" smooth="yes"/>
      <point x="301" y="-20"/>
      <point x="126" y="228"/>
      <point x="126" y="582" type="curve" smooth="yes"/>
      <point x="126" y="935"/>
      <point x="303" y="1190"/>
      <point x="656" y="1190" type="curve" smooth="yes"/>
      <point x="863" y="1190"/>
      <point x="1009" y="1104"/>
      <point x="1095" y="961" type="curve" smooth="no"/>
      <point x="1179" y="1103"/>
      <point x="1320" y="1190"/>
      <point x="1519" y="1190" type="curve" smooth="yes"/>
      <point x="1814" y="1190"/>
      <point x="1962" y="976"/>
      <point x="1962" y="676" type="curve" smooth="yes"/>
      <point x="1962" y="644"/>
      <point x="1959" y="608"/>
      <point x="1954" y="567" type="curve" smooth="no"/>
      <point x="1194" y="567" type="line" smooth="no"/>
      <point x="1194" y="301"/>
      <point x="1273" y="127"/>
      <point x="1540" y="127" type="curve" smooth="yes"/>
      <point x="1653" y="127"/>
      <point x="1755" y="166"/>
      <point x="1846" y="244" type="curve" smooth="no"/>
      <point x="1908" y="99" type="line" smooth="no"/>
      <point x="1827" y="40"/>
      <point x="1657" y="-23"/>
      <point x="1528" y="-23" type="curve" smooth="yes"/>
      <point x="1324" y="-23"/>
      <point x="1179" y="62"/>
      <point x="1094" y="204" type="curve" smooth="no"/>
      <point x="1008" y="64"/>
      <point x="862" y="-20"/>
    </contour>
    <contour>
      <point x="656" y="117" type="curve" smooth="yes"/>
      <point x="915" y="117"/>
      <point x="1004" y="322"/>
      <point x="1004" y="582" type="curve" smooth="yes"/>
      <point x="1004" y="842"/>
      <point x="914" y="1051"/>
      <point x="656" y="1051" type="curve" smooth="yes"/>
      <point x="397" y="1051"/>
      <point x="308" y="841"/>
      <point x="308" y="582" type="curve" smooth="yes"/>
      <point x="308" y="322"/>
      <point x="397" y="117"/>
    </contour>
    <contour>
      <point x="1794" y="717" type="line" smooth="yes"/>
      <point x="1794" y="920"/>
      <point x="1717" y="1057"/>
      <point x="1520" y="1057" type="curve" smooth="yes"/>
      <point x="1299" y="1057"/>
      <point x="1194" y="908"/>
      <point x="1194" y="682" type="curve" smooth="no"/>
      <point x="1794" y="682" type="line" smooth="no"/>
    </contour>
  </outline>
</glyph>
<glyph name="ring" format="1">
  <advance width="1707"/>
  <unicode hex="02da"/>
  <outline>
    <contour>
      <point x="854" y="1035" type="curve" smooth="yes"/>
      <point x="710" y="1035"/>
      <point x="612" y="1131"/>
      <point x="612" y="1275" type="curve" smooth="yes"/>
      <point x="612" y="1419"/>
      <point x="710" y="1515"/>
      <point x="854" y="1515" type="curve" smooth="yes"/>
      <point x="998" y="1515"/>
      <point x="1096" y="1419"/>
      <point x="1096" y="1275" type="curve" smooth="yes"/>
      <point x="1096" y="1131"/>
      <point x="998" y="1035"/>
    </contour>
    <contour>
      <point x="854" y="1126" type="curve" smooth="yes"/>
      <point x="939" y="1126"/>
      <point x="999" y="1190"/>
      <point x="999" y="1275" type="curve" smooth="yes"/>
      <point x="999" y="1360"/>
      <point x="939" y="1424"/>
      <point x="854" y="1424" type="curve" smooth="yes"/>
      <point x="768" y="1424"/>
      <point x="709" y="1360"/>
      <point x="709" y="1275" type="curve" smooth="yes"/>
      <point x="709" y="1190"/>
      <point x="768" y="1126"/>
    </contour>
  </outline>
</glyph>
<glyph name="tilde" format="1">
  <advance width="1707"/>
  <unicode hex="02dc"/>
  <outline>
    <contour>
      <point x="1231" y="1285" type="line" smooth="no"/>
      <point x="1231" y="1149"/>
      <point x="1172" y="1035"/>
      <point x="1039" y="1035" type="curve" smooth="yes"/>
      <point x="891" y="1035"/>
      <point x="808" y="1154"/>
      <point x="686" y="1154" type="curve" smooth="yes"/>
      <point x="634" y="1154"/>
      <point x="627" y="1104"/>
      <point x="627" y="1039" type="curve" smooth="no"/>
      <point x="471" y="1039" type="line" smooth="no"/>
      <point x="471" y="1212"/>
      <point x="538" y="1299"/>
      <point x="672" y="1299" type="curve" smooth="yes"/>
      <point x="823" y="1299"/>
      <point x="883" y="1174"/>
      <point x="1016" y="1174" type="curve" smooth="yes"/>
      <point x="1055" y="1174"/>
      <point x="1075" y="1211"/>
      <point x="1075" y="1285" type="curve" smooth="no"/>
    </contour>
  </outline>
</glyph>
<glyph name="uni0E81" format="1">
  <advance width="1510"/>
  <unicode hex="0e81"/>
  <outline>
    <contour>
      <point x="559" y="1028" type="curve" smooth="no"/>
      <point x="668" y="1100"/>
      <point x="783" y="1192"/>
      <point x="959" y="1192" type="curve" smooth="yes"/>
      <point x="1284" y="1192"/>
      <point x="1386" y="1035"/>
      <point x="1386" y="711" type="curve" smooth="yes"/>
      <point x="1386" y="0" type="line" smooth="no"/>
      <point x="1215" y="0" type="line" smooth="no"/>
      <point x="1215" y="768" type="line" smooth="yes"/>
      <point x="1215" y="983"/>
      <point x="1169" y="1086"/>
      <point x="953" y="1086" type="curve" smooth="yes"/>
      <point x="800" y="1086"/>
      <point x="676" y="987"/>
      <point x="582" y="916" type="curve" smooth="no"/>
      <point x="582" y="361" type="line" smooth="yes"/>
      <point x="582" y="159"/>
      <point x="518" y="0"/>
      <point x="314" y="0" type="curve" smooth="yes"/>
      <point x="174" y="0"/>
      <point x="81" y="56"/>
      <point x="81" y="197" type="curve" smooth="yes"/>
      <point x="81" y="319"/>
      <point x="172" y="393"/>
      <point x="292" y="396" type="curve" smooth="yes"/>
      <point x="330" y="396"/>
      <point x="371" y="384"/>
      <point x="411" y="380" type="curve" smooth="no"/>
      <point x="411" y="827" type="line" smooth="no"/>
      <point x="382" y="817"/>
      <point x="350" y="808"/>
      <point x="311" y="808" type="curve" smooth="yes"/>
      <point x="175" y="808"/>
      <point x="80" y="864"/>
      <point x="80" y="1001" type="curve" smooth="yes"/>
      <point x="80" y="1130"/>
      <point x="178" y="1192"/>
      <point x="307" y="1192" type="curve" smooth="yes"/>
      <point x="443" y="1192"/>
      <point x="522" y="1131"/>
    </contour>
    <contour>
      <point x="411" y="936" type="curve" smooth="no"/>
      <point x="411" y="1013"/>
      <point x="393" y="1090"/>
      <point x="315" y="1090" type="curve" smooth="yes"/>
      <point x="256" y="1090"/>
      <point x="212" y="1064"/>
      <point x="212" y="1005" type="curve" smooth="yes"/>
      <point x="212" y="942"/>
      <point x="245" y="908"/>
      <point x="307" y="908" type="curve" smooth="yes"/>
      <point x="348" y="908"/>
      <point x="380" y="921"/>
    </contour>
    <contour>
      <point x="214" y="197" type="curve" smooth="yes"/>
      <point x="214" y="139"/>
      <point x="249" y="102"/>
      <point x="307" y="102" type="curve" smooth="yes"/>
      <point x="399" y="102"/>
      <point x="411" y="182"/>
      <point x="411" y="273" type="curve" smooth="yes"/>
      <point x="411" y="306" type="line" smooth="no"/>
      <point x="332" y="306" type="line" smooth="yes"/>
      <point x="253" y="306"/>
      <point x="214" y="269"/>
    </contour>
  </outline>
</glyph>
<glyph name="uni0E82" format="1">
  <advance width="1225"/>
  <unicode hex="0e82"/>
  <outline>
    <contour>
      <point x="941" y="345" type="curve" smooth="no"/>
      <point x="1062" y="342"/>
      <point x="1117" y="264"/>
      <point x="1117" y="141" type="curve" smooth="yes"/>
      <point x="1117" y="0" type="line" smooth="no"/>
      <point x="961" y="0" type="line" smooth="no"/>
      <point x="961" y="140" type="line" smooth="yes"/>
      <point x="961" y="185"/>
      <point x="938" y="220"/>
      <point x="891" y="220" type="curve" smooth="yes"/>
      <point x="850" y="220"/>
      <point x="815" y="206"/>
      <point x="788" y="192" type="curve" smooth="no"/>
      <point x="477" y="49" type="line" smooth="yes"/>
      <point x="420" y="23"/>
      <point x="365" y="0"/>
      <point x="298" y="0" type="curve" smooth="yes"/>
      <point x="175" y="0"/>
      <point x="83" y="79"/>
      <point x="83" y="202" type="curve" smooth="yes"/>
      <point x="83" y="368"/>
      <point x="233" y="414"/>
      <point x="356" y="458" type="curve" smooth="no"/>
      <point x="579" y="540" type="line" smooth="yes"/>
      <point x="720" y="592"/>
      <point x="958" y="623"/>
      <point x="958" y="807" type="curve" smooth="yes"/>
      <point x="958" y="983"/>
      <point x="773" y="1007"/>
      <point x="598" y="1007" type="curve" smooth="yes"/>
      <point x="455" y="1007"/>
      <point x="351" y="983"/>
      <point x="286" y="934" type="curve" smooth="no"/>
      <point x="301" y="936"/>
      <point x="316" y="937"/>
      <point x="332" y="937" type="curve" smooth="yes"/>
      <point x="455" y="937"/>
      <point x="534" y="871"/>
      <point x="534" y="748" type="curve" smooth="yes"/>
      <point x="534" y="625"/>
      <point x="442" y="571"/>
      <point x="320" y="571" type="curve" smooth="yes"/>
      <point x="172" y="571"/>
      <point x="97" y="649"/>
      <point x="97" y="797" type="curve" smooth="yes"/>
      <point x="97" y="1039"/>
      <point x="354" y="1102"/>
      <point x="597" y="1102" type="curve" smooth="yes"/>
      <point x="851" y="1102"/>
      <point x="1118" y="1058"/>
      <point x="1118" y="804" type="curve" smooth="yes"/>
      <point x="1118" y="614"/>
      <point x="929" y="554"/>
      <point x="790" y="502" type="curve" smooth="yes"/>
      <point x="350" y="335" type="line" smooth="yes"/>
      <point x="292" y="312"/>
      <point x="240" y="289"/>
      <point x="240" y="210" type="curve" smooth="yes"/>
      <point x="240" y="153"/>
      <point x="272" y="123"/>
      <point x="328" y="123" type="curve" smooth="yes"/>
      <point x="393" y="123"/>
      <point x="459" y="163"/>
      <point x="526" y="194" type="curve" smooth="yes"/>
      <point x="756" y="299" type="line" smooth="yes"/>
      <point x="817" y="327"/>
      <point x="871" y="341"/>
    </contour>
    <contour>
      <point x="326" y="657" type="curve" smooth="yes"/>
      <point x="387" y="657"/>
      <point x="413" y="698"/>
      <point x="413" y="759" type="curve" smooth="yes"/>
      <point x="413" y="836"/>
      <point x="354" y="851"/>
      <point x="278" y="851" type="curve" smooth="yes"/>
      <point x="223" y="851" type="line" smooth="no"/>
      <point x="217" y="832"/>
      <point x="214" y="812"/>
      <point x="214" y="793" type="curve" smooth="yes"/>
      <point x="214" y="711"/>
      <point x="248" y="657"/>
    </contour>
  </outline>
</glyph>
<glyph name="uni0E84" format="1">
  <advance width="1186"/>
  <unicode hex="0e84"/>
  <outline>
    <contour>
      <point x="585" y="1005" type="curve" smooth="yes"/>
      <point x="433" y="1005"/>
      <point x="248" y="980"/>
      <point x="248" y="828" type="curve" smooth="yes"/>
      <point x="248" y="723"/>
      <point x="323" y="658"/>
      <point x="428" y="658" type="curve" smooth="yes"/>
      <point x="553" y="658" type="line" smooth="no"/>
      <point x="553" y="546" type="line" smooth="no"/>
      <point x="428" y="546" type="line" smooth="yes"/>
      <point x="312" y="546"/>
      <point x="257" y="471"/>
      <point x="249" y="360" type="curve" smooth="no"/>
      <point x="249" y="352" type="line" smooth="no"/>
      <point x="310" y="362" type="line" smooth="yes"/>
      <point x="328" y="365"/>
      <point x="340" y="366"/>
      <point x="360" y="366" type="curve" smooth="yes"/>
      <point x="475" y="366"/>
      <point x="554" y="307"/>
      <point x="554" y="191" type="curve" smooth="yes"/>
      <point x="554" y="59"/>
      <point x="469" y="0"/>
      <point x="337" y="0" type="curve" smooth="yes"/>
      <point x="172" y="0"/>
      <point x="95" y="139"/>
      <point x="95" y="303" type="curve" smooth="yes"/>
      <point x="95" y="481"/>
      <point x="197" y="580"/>
      <point x="355" y="602" type="curve" smooth="no"/>
      <point x="215" y="605"/>
      <point x="95" y="681"/>
      <point x="95" y="824" type="curve" smooth="yes"/>
      <point x="95" y="1055"/>
      <point x="352" y="1104"/>
      <point x="585" y="1104" type="curve" smooth="yes"/>
      <point x="926" y="1104"/>
      <point x="1094" y="999"/>
      <point x="1094" y="658" type="curve" smooth="yes"/>
      <point x="1094" y="0" type="line" smooth="no"/>
      <point x="935" y="0" type="line" smooth="no"/>
      <point x="935" y="654" type="line" smooth="yes"/>
      <point x="935" y="912"/>
      <point x="842" y="1005"/>
    </contour>
    <contour>
      <point x="343" y="95" type="curve" smooth="yes"/>
      <point x="403" y="95"/>
      <point x="431" y="129"/>
      <point x="431" y="192" type="curve" smooth="yes"/>
      <point x="431" y="264"/>
      <point x="381" y="283"/>
      <point x="310" y="283" type="curve" smooth="yes"/>
      <point x="249" y="283" type="line" smooth="no"/>
      <point x="249" y="263" type="line" smooth="no"/>
      <point x="251" y="151"/>
      <point x="282" y="95"/>
    </contour>
  </outline>
</glyph>
<glyph name="uni0E87" format="1">
  <advance width="991"/>
  <unicode hex="0e87"/>
  <outline>
    <contour>
      <point x="918" y="133" type="line" smooth="yes"/>
      <point x="918" y="-222"/>
      <point x="806" y="-428"/>
      <point x="452" y="-428" type="curve" smooth="yes"/>
      <point x="213" y="-428"/>
      <point x="59" y="-345"/>
      <point x="59" y="-119" type="curve" smooth="no"/>
      <point x="180" y="-119" type="line" smooth="no"/>
      <point x="183" y="-275"/>
      <point x="290" y="-328"/>
      <point x="448" y="-328" type="curve" smooth="yes"/>
      <point x="726" y="-328"/>
      <point x="762" y="-145"/>
      <point x="762" y="131" type="curve" smooth="yes"/>
      <point x="762" y="598" type="line" smooth="yes"/>
      <point x="762" y="852"/>
      <point x="705" y="1008"/>
      <point x="452" y="1008" type="curve" smooth="yes"/>
      <point x="421" y="1008" type="line" smooth="no"/>
      <point x="439" y="955"/>
      <point x="448" y="918"/>
      <point x="448" y="899" type="curve" smooth="yes"/>
      <point x="445" y="782"/>
      <point x="366" y="736"/>
      <point x="247" y="736" type="curve" smooth="yes"/>
      <point x="135" y="736"/>
      <point x="39" y="794"/>
      <point x="39" y="907" type="curve" smooth="yes"/>
      <point x="39" y="1075"/>
      <point x="239" y="1104"/>
      <point x="407" y="1104" type="curve" smooth="yes"/>
      <point x="739" y="1104"/>
      <point x="918" y="932"/>
      <point x="918" y="603" type="curve" smooth="yes"/>
    </contour>
    <contour>
      <point x="163" y="910" type="curve" smooth="yes"/>
      <point x="163" y="851"/>
      <point x="195" y="821"/>
      <point x="256" y="821" type="curve" smooth="yes"/>
      <point x="317" y="821"/>
      <point x="338" y="862"/>
      <point x="338" y="924" type="curve" smooth="yes"/>
      <point x="338" y="1008" type="line" smooth="no"/>
      <point x="259" y="1005"/>
      <point x="163" y="993"/>
    </contour>
  </outline>
</glyph>
<glyph name="uni0E88" format="1">
  <advance width="1369"/>
  <unicode hex="0e88"/>
  <outline>
    <contour>
      <point x="34" y="780" type="line" smooth="yes"/>
      <point x="34" y="1088"/>
      <point x="357" y="1192"/>
      <point x="665" y="1192" type="curve" smooth="yes"/>
      <point x="1064" y="1192"/>
      <point x="1257" y="1071"/>
      <point x="1257" y="676" type="curve" smooth="yes"/>
      <point x="1257" y="2" type="line" smooth="no"/>
      <point x="1100" y="-70" type="line" smooth="no"/>
      <point x="1054" y="-50" type="line" smooth="no"/>
      <point x="868" y="45"/>
      <point x="743" y="234"/>
      <point x="712" y="486" type="curve" smooth="no"/>
      <point x="666" y="478" type="line" smooth="yes"/>
      <point x="648" y="476"/>
      <point x="627" y="473"/>
      <point x="608" y="473" type="curve" smooth="yes"/>
      <point x="464" y="473"/>
      <point x="372" y="530"/>
      <point x="372" y="670" type="curve" smooth="yes"/>
      <point x="372" y="807"/>
      <point x="475" y="877"/>
      <point x="614" y="877" type="curve" smooth="yes"/>
      <point x="784" y="877"/>
      <point x="864" y="774"/>
      <point x="864" y="598" type="curve" smooth="yes"/>
      <point x="864" y="372"/>
      <point x="942" y="156"/>
      <point x="1087" y="69" type="curve" smooth="no"/>
      <point x="1087" y="681" type="line" smooth="yes"/>
      <point x="1087" y="982"/>
      <point x="983" y="1085"/>
      <point x="682" y="1085" type="curve" smooth="yes"/>
      <point x="401" y="1085"/>
      <point x="192" y="1005"/>
      <point x="187" y="754" type="curve" smooth="no"/>
      <point x="187" y="732" type="line" smooth="no"/>
      <point x="35" y="732" type="line" smooth="no"/>
      <point x="34" y="747"/>
      <point x="34" y="759"/>
      <point x="34" y="765" type="curve" smooth="yes"/>
    </contour>
    <contour>
      <point x="606" y="782" type="curve" smooth="yes"/>
      <point x="539" y="782"/>
      <point x="505" y="741"/>
      <point x="505" y="672" type="curve" smooth="yes"/>
      <point x="505" y="586"/>
      <point x="558" y="563"/>
      <point x="649" y="563" type="curve" smooth="yes"/>
      <point x="704" y="563" type="line" smooth="no"/>
      <point x="703" y="567"/>
      <point x="703" y="573"/>
      <point x="703" y="581" type="curve" smooth="yes"/>
      <point x="703" y="610" type="line" smooth="yes"/>
      <point x="703" y="709"/>
      <point x="689" y="782"/>
    </contour>
  </outline>
</glyph>
<glyph name="uni0E8A" format="1">
  <advance width="1318"/>
  <unicode hex="0e8a"/>
  <outline>
    <contour>
      <point x="584" y="813" type="curve" smooth="yes"/>
      <point x="584" y="678"/>
      <point x="480" y="605"/>
      <point x="343" y="605" type="curve" smooth="yes"/>
      <point x="182" y="605"/>
      <point x="106" y="699"/>
      <point x="106" y="861" type="curve" smooth="yes"/>
      <point x="106" y="1113"/>
      <point x="382" y="1192"/>
      <point x="642" y="1192" type="curve" smooth="yes"/>
      <point x="916" y="1192"/>
      <point x="1211" y="1127"/>
      <point x="1211" y="863" type="curve" smooth="yes"/>
      <point x="1211" y="662"/>
      <point x="1037" y="612"/>
      <point x="883" y="553" type="curve" smooth="yes"/>
      <point x="569" y="434" type="line" smooth="yes"/>
      <point x="386" y="365"/>
      <point x="250" y="366"/>
      <point x="250" y="230" type="curve" smooth="yes"/>
      <point x="250" y="165"/>
      <point x="281" y="137"/>
      <point x="340" y="132" type="curve" smooth="no"/>
      <point x="565" y="141"/>
      <point x="752" y="359"/>
      <point x="978" y="359" type="curve" smooth="yes"/>
      <point x="1149" y="359"/>
      <point x="1162" y="249"/>
      <point x="1183" y="93" type="curve" smooth="yes"/>
      <point x="1244" y="-352" type="line" smooth="no"/>
      <point x="1099" y="-352" type="line" smooth="no"/>
      <point x="1042" y="93" type="line" smooth="yes"/>
      <point x="1034" y="158"/>
      <point x="1037" y="239"/>
      <point x="967" y="239" type="curve" smooth="yes"/>
      <point x="751" y="239"/>
      <point x="558" y="0"/>
      <point x="326" y="0" type="curve" smooth="yes"/>
      <point x="193" y="0"/>
      <point x="94" y="87"/>
      <point x="94" y="220" type="curve" smooth="yes"/>
      <point x="94" y="408"/>
      <point x="299" y="464"/>
      <point x="438" y="514" type="curve" smooth="no"/>
      <point x="636" y="586" type="line" smooth="yes"/>
      <point x="782" y="639"/>
      <point x="1065" y="696"/>
      <point x="1065" y="863" type="curve" smooth="yes"/>
      <point x="1065" y="1035"/>
      <point x="860" y="1088"/>
      <point x="661" y="1088" type="curve" smooth="yes"/>
      <point x="512" y="1088"/>
      <point x="393" y="1068"/>
      <point x="312" y="1008" type="curve" smooth="no"/>
      <point x="334" y="1010"/>
      <point x="352" y="1013"/>
      <point x="370" y="1013" type="curve" smooth="yes"/>
      <point x="499" y="1010"/>
      <point x="584" y="944"/>
    </contour>
    <contour>
      <point x="353" y="707" type="curve" smooth="yes"/>
      <point x="429" y="707"/>
      <point x="447" y="748"/>
      <point x="450" y="820" type="curve" smooth="no"/>
      <point x="450" y="886"/>
      <point x="403" y="919"/>
      <point x="309" y="919" type="curve" smooth="yes"/>
      <point x="245" y="919" type="line" smooth="no"/>
      <point x="239" y="898"/>
      <point x="235" y="877"/>
      <point x="235" y="855" type="curve" smooth="yes"/>
      <point x="235" y="762"/>
      <point x="261" y="707"/>
    </contour>
  </outline>
</glyph>
<glyph name="uni0E8D" format="1">
  <advance width="1267"/>
  <unicode hex="0e8d"/>
  <outline>
    <contour>
      <point x="588" y="994" type="curve" smooth="yes"/>
      <point x="588" y="865"/>
      <point x="509" y="800"/>
      <point x="379" y="796" type="curve" smooth="yes"/>
      <point x="360" y="796"/>
      <point x="339" y="799"/>
      <point x="317" y="801" type="curve" smooth="no"/>
      <point x="259" y="812" type="line" smooth="no"/>
      <point x="259" y="791" type="line" smooth="yes"/>
      <point x="259" y="681"/>
      <point x="331" y="603"/>
      <point x="442" y="603" type="curve" smooth="yes"/>
      <point x="587" y="603" type="line" smooth="no"/>
      <point x="587" y="481" type="line" smooth="no"/>
      <point x="442" y="481" type="line" smooth="yes"/>
      <point x="335" y="481"/>
      <point x="258" y="407"/>
      <point x="258" y="300" type="curve" smooth="yes"/>
      <point x="258" y="148"/>
      <point x="423" y="105"/>
      <point x="600" y="105" type="curve" smooth="yes"/>
      <point x="880" y="105"/>
      <point x="1000" y="185"/>
      <point x="1000" y="465" type="curve" smooth="yes"/>
      <point x="1000" y="1192" type="line" smooth="no"/>
      <point x="1171" y="1192" type="line" smooth="no"/>
      <point x="1171" y="482" type="line" smooth="yes"/>
      <point x="1171" y="118"/>
      <point x="987" y="0"/>
      <point x="622" y="0" type="curve" smooth="yes"/>
      <point x="350" y="0"/>
      <point x="93" y="62"/>
      <point x="93" y="302" type="curve" smooth="yes"/>
      <point x="93" y="450"/>
      <point x="222" y="541"/>
      <point x="373" y="541" type="curve" smooth="no"/>
      <point x="194" y="560"/>
      <point x="93" y="666"/>
      <point x="93" y="864" type="curve" smooth="yes"/>
      <point x="93" y="1051"/>
      <point x="176" y="1192"/>
      <point x="361" y="1192" type="curve" smooth="yes"/>
      <point x="497" y="1192"/>
      <point x="588" y="1128"/>
    </contour>
    <contour>
      <point x="327" y="887" type="line" smooth="yes"/>
      <point x="413" y="887"/>
      <point x="452" y="909"/>
      <point x="455" y="986" type="curve" smooth="no"/>
      <point x="452" y="1054"/>
      <point x="423" y="1088"/>
      <point x="368" y="1089" type="curve" smooth="no"/>
      <point x="291" y="1089"/>
      <point x="259" y="1024"/>
      <point x="259" y="940" type="curve" smooth="yes"/>
      <point x="259" y="887" type="line" smooth="no"/>
    </contour>
  </outline>
</glyph>
<glyph name="uni0E94" format="1">
  <advance width="1199"/>
  <unicode hex="0e94"/>
  <outline>
    <contour>
      <point x="347" y="366" type="curve" smooth="yes"/>
      <point x="468" y="366"/>
      <point x="559" y="310"/>
      <point x="559" y="191" type="curve" smooth="yes"/>
      <point x="559" y="64"/>
      <point x="483" y="0"/>
      <point x="332" y="0" type="curve" smooth="yes"/>
      <point x="174" y="0"/>
      <point x="95" y="108"/>
      <point x="95" y="324" type="curve" smooth="yes"/>
      <point x="95" y="658" type="line" smooth="yes"/>
      <point x="95" y="992"/>
      <point x="260" y="1104"/>
      <point x="596" y="1104" type="curve" smooth="yes"/>
      <point x="933" y="1104"/>
      <point x="1106" y="993"/>
      <point x="1106" y="658" type="curve" smooth="yes"/>
      <point x="1106" y="0" type="line" smooth="no"/>
      <point x="948" y="0" type="line" smooth="no"/>
      <point x="948" y="654" type="line" smooth="yes"/>
      <point x="948" y="905"/>
      <point x="848" y="1005"/>
      <point x="596" y="1005" type="curve" smooth="yes"/>
      <point x="347" y="1005"/>
      <point x="253" y="904"/>
      <point x="253" y="654" type="curve" smooth="yes"/>
      <point x="253" y="352" type="line" smooth="no"/>
      <point x="308" y="363" type="line" smooth="no"/>
      <point x="327" y="365"/>
      <point x="340" y="366"/>
    </contour>
    <contour>
      <point x="253" y="245" type="line" smooth="yes"/>
      <point x="253" y="157"/>
      <point x="267" y="97"/>
      <point x="349" y="94" type="curve" smooth="no"/>
      <point x="406" y="96"/>
      <point x="434" y="128"/>
      <point x="435" y="191" type="curve" smooth="no"/>
      <point x="435" y="267"/>
      <point x="385" y="283"/>
      <point x="303" y="283" type="curve" smooth="yes"/>
      <point x="253" y="283" type="line" smooth="no"/>
    </contour>
  </outline>
</glyph>
<glyph name="uni0E95" format="1">
  <advance width="1549"/>
  <unicode hex="0e95"/>
  <outline>
    <contour>
      <point x="779" y="955" type="curve" smooth="no"/>
      <point x="803" y="1117"/>
      <point x="891" y="1192"/>
      <point x="1072" y="1192" type="curve" smooth="yes"/>
      <point x="1365" y="1192"/>
      <point x="1451" y="1002"/>
      <point x="1451" y="706" type="curve" smooth="yes"/>
      <point x="1451" y="0" type="line" smooth="no"/>
      <point x="1281" y="0" type="line" smooth="no"/>
      <point x="1281" y="715" type="line" smooth="yes"/>
      <point x="1281" y="899"/>
      <point x="1265" y="1084"/>
      <point x="1081" y="1084" type="curve" smooth="yes"/>
      <point x="873" y="1084"/>
      <point x="866" y="903"/>
      <point x="866" y="687" type="curve" smooth="yes"/>
      <point x="866" y="553" type="line" smooth="no"/>
      <point x="694" y="553" type="line" smooth="no"/>
      <point x="694" y="687" type="line" smooth="yes"/>
      <point x="694" y="885"/>
      <point x="691" y="1085"/>
      <point x="503" y="1085" type="curve" smooth="yes"/>
      <point x="302" y="1085"/>
      <point x="277" y="950"/>
      <point x="277" y="745" type="curve" smooth="yes"/>
      <point x="277" y="382" type="line" smooth="no"/>
      <point x="318" y="391" type="line" smooth="no"/>
      <point x="340" y="393"/>
      <point x="358" y="395"/>
      <point x="377" y="395" type="curve" smooth="yes"/>
      <point x="511" y="395"/>
      <point x="608" y="338"/>
      <point x="608" y="206" type="curve" smooth="yes"/>
      <point x="608" y="56"/>
      <point x="519" y="0"/>
      <point x="365" y="0" type="curve" smooth="yes"/>
      <point x="182" y="0"/>
      <point x="107" y="138"/>
      <point x="107" y="332" type="curve" smooth="yes"/>
      <point x="107" y="711" type="line" smooth="yes"/>
      <point x="107" y="1013"/>
      <point x="196" y="1192"/>
      <point x="495" y="1192" type="curve" smooth="yes"/>
      <point x="670" y="1192"/>
      <point x="756" y="1109"/>
    </contour>
    <contour>
      <point x="475" y="206" type="curve" smooth="no"/>
      <point x="475" y="284"/>
      <point x="419" y="306"/>
      <point x="336" y="306" type="curve" smooth="yes"/>
      <point x="277" y="306" type="line" smooth="no"/>
      <point x="277" y="246" type="line" smooth="yes"/>
      <point x="277" y="150"/>
      <point x="313" y="102"/>
      <point x="385" y="102" type="curve" smooth="yes"/>
      <point x="443" y="102"/>
      <point x="474" y="136"/>
    </contour>
  </outline>
</glyph>
<glyph name="uni0E96" format="1">
  <advance width="1275"/>
  <unicode hex="0e96"/>
  <outline>
    <contour>
      <point x="789" y="1104" type="curve" smooth="yes"/>
      <point x="1073" y="1104"/>
      <point x="1184" y="959"/>
      <point x="1184" y="675" type="curve" smooth="yes"/>
      <point x="1184" y="-311" type="line" smooth="no"/>
      <point x="1027" y="-311" type="line" smooth="no"/>
      <point x="1027" y="692" type="line" smooth="yes"/>
      <point x="1027" y="895"/>
      <point x="980" y="1005"/>
      <point x="779" y="1005" type="curve" smooth="yes"/>
      <point x="643" y="1005"/>
      <point x="537" y="915"/>
      <point x="436" y="851" type="curve" smooth="no"/>
      <point x="436" y="353" type="line" smooth="no"/>
      <point x="468" y="360" type="line" smooth="yes"/>
      <point x="486" y="364"/>
      <point x="506" y="364"/>
      <point x="528" y="364" type="curve" smooth="yes"/>
      <point x="655" y="364"/>
      <point x="742" y="313"/>
      <point x="742" y="191" type="curve" smooth="no"/>
      <point x="735" y="61"/>
      <point x="657" y="0"/>
      <point x="518" y="0" type="curve" smooth="yes"/>
      <point x="339" y="0"/>
      <point x="279" y="131"/>
      <point x="279" y="322" type="curve" smooth="yes"/>
      <point x="279" y="769" type="line" smooth="no"/>
      <point x="239" y="756"/>
      <point x="204" y="749"/>
      <point x="173" y="749" type="curve" smooth="yes"/>
      <point x="39" y="749"/>
      <point x="-19" y="806"/>
      <point x="-28" y="929" type="curve" smooth="no"/>
      <point x="-28" y="1052"/>
      <point x="61" y="1104"/>
      <point x="192" y="1104" type="curve" smooth="yes"/>
      <point x="308" y="1104"/>
      <point x="383" y="1055"/>
      <point x="416" y="958" type="curve" smooth="yes"/>
      <point x="416" y="957"/>
      <point x="416" y="956"/>
      <point x="417" y="955" type="curve" smooth="no"/>
      <point x="528" y="1029"/>
      <point x="623" y="1104"/>
    </contour>
    <contour>
      <point x="95" y="931" type="curve" smooth="no"/>
      <point x="98" y="876"/>
      <point x="126" y="846"/>
      <point x="183" y="846" type="curve" smooth="yes"/>
      <point x="212" y="846"/>
      <point x="244" y="854"/>
      <point x="279" y="871" type="curve" smooth="no"/>
      <point x="279" y="879" type="line" smooth="yes"/>
      <point x="279" y="964"/>
      <point x="259" y="1010"/>
      <point x="182" y="1010" type="curve" smooth="yes"/>
      <point x="125" y="1010"/>
      <point x="96" y="984"/>
    </contour>
    <contour>
      <point x="523" y="94" type="curve" smooth="yes"/>
      <point x="584" y="94"/>
      <point x="615" y="119"/>
      <point x="618" y="178" type="curve" smooth="no"/>
      <point x="618" y="191" type="line" smooth="yes"/>
      <point x="618" y="265"/>
      <point x="569" y="283"/>
      <point x="490" y="283" type="curve" smooth="yes"/>
      <point x="436" y="283" type="line" smooth="no"/>
      <point x="436" y="241" type="line" smooth="yes"/>
      <point x="436" y="159"/>
      <point x="452" y="94"/>
    </contour>
  </outline>
</glyph>
<glyph name="uni0E97" format="1">
  <advance width="1384"/>
  <unicode hex="0e97"/>
  <outline>
    <contour>
      <point x="654" y="686" type="line" smooth="yes"/>
      <point x="654" y="943"/>
      <point x="734" y="1104"/>
      <point x="973" y="1104" type="curve" smooth="yes"/>
      <point x="1223" y="1104"/>
      <point x="1291" y="936"/>
      <point x="1291" y="683" type="curve" smooth="yes"/>
      <point x="1291" y="0" type="line" smooth="no"/>
      <point x="1135" y="0" type="line" smooth="no"/>
      <point x="1135" y="748" type="line" smooth="yes"/>
      <point x="1135" y="884"/>
      <point x="1102" y="1005"/>
      <point x="980" y="1005" type="curve" smooth="yes"/>
      <point x="852" y="1005"/>
      <point x="813" y="901"/>
      <point x="813" y="758" type="curve" smooth="yes"/>
      <point x="813" y="463" type="line" smooth="yes"/>
      <point x="813" y="182"/>
      <point x="753" y="0"/>
      <point x="477" y="0" type="curve" smooth="yes"/>
      <point x="281" y="0"/>
      <point x="165" y="85"/>
      <point x="165" y="276" type="curve" smooth="yes"/>
      <point x="165" y="444"/>
      <point x="238" y="599"/>
      <point x="281" y="751" type="curve" smooth="no"/>
      <point x="212" y="738" type="line" smooth="no"/>
      <point x="92" y="738"/>
      <point x="13" y="801"/>
      <point x="13" y="921" type="curve" smooth="yes"/>
      <point x="13" y="1043"/>
      <point x="85" y="1104"/>
      <point x="229" y="1104" type="curve" smooth="yes"/>
      <point x="361" y="1104"/>
      <point x="464" y="1047"/>
      <point x="464" y="917" type="curve" smooth="yes"/>
      <point x="464" y="896"/>
      <point x="460" y="870"/>
      <point x="453" y="839" type="curve" smooth="no"/>
      <point x="404" y="661"/>
      <point x="363" y="515"/>
      <point x="330" y="334" type="curve" smooth="yes"/>
      <point x="326" y="314"/>
      <point x="324" y="299"/>
      <point x="324" y="290" type="curve" smooth="yes"/>
      <point x="324" y="169"/>
      <point x="362" y="98"/>
      <point x="474" y="98" type="curve" smooth="yes"/>
      <point x="641" y="98"/>
      <point x="654" y="265"/>
      <point x="654" y="430" type="curve" smooth="yes"/>
    </contour>
    <contour>
      <point x="232" y="1008" type="curve" smooth="yes"/>
      <point x="169" y="1008"/>
      <point x="137" y="985"/>
      <point x="137" y="925" type="curve" smooth="yes"/>
      <point x="137" y="919" type="line" smooth="yes"/>
      <point x="137" y="843"/>
      <point x="179" y="821"/>
      <point x="257" y="821" type="curve" smooth="yes"/>
      <point x="300" y="821" type="line" smooth="no"/>
      <point x="311" y="857"/>
      <point x="325" y="887"/>
      <point x="325" y="922" type="curve" smooth="yes"/>
      <point x="325" y="974"/>
      <point x="286" y="1008"/>
    </contour>
  </outline>
</glyph>
<glyph name="uni0E99" format="1">
  <advance width="1316"/>
  <unicode hex="0e99"/>
  <outline>
    <contour>
      <point x="210" y="737" type="curve" smooth="yes"/>
      <point x="92" y="737"/>
      <point x="12" y="799"/>
      <point x="9" y="914" type="curve" smooth="no"/>
      <point x="10" y="1041"/>
      <point x="82" y="1104"/>
      <point x="225" y="1104" type="curve" smooth="yes"/>
      <point x="402" y="1104"/>
      <point x="471" y="984"/>
      <point x="471" y="797" type="curve" smooth="yes"/>
      <point x="471" y="403" type="line" smooth="yes"/>
      <point x="471" y="192"/>
      <point x="576" y="98"/>
      <point x="787" y="98" type="curve" smooth="yes"/>
      <point x="980" y="98"/>
      <point x="1067" y="182"/>
      <point x="1067" y="372" type="curve" smooth="yes"/>
      <point x="1067" y="1104" type="line" smooth="no"/>
      <point x="1224" y="1104" type="line" smooth="no"/>
      <point x="1224" y="428" type="line" smooth="yes"/>
      <point x="1224" y="137"/>
      <point x="1078" y="0"/>
      <point x="786" y="0" type="curve" smooth="yes"/>
      <point x="584" y="0"/>
      <point x="434" y="73"/>
      <point x="395" y="235" type="curve" smooth="no"/>
      <point x="359" y="81"/>
      <point x="232" y="0"/>
      <point x="39" y="0" type="curve" smooth="no"/>
      <point x="39" y="99" type="line" smooth="no"/>
      <point x="221" y="99"/>
      <point x="315" y="214"/>
      <point x="315" y="400" type="curve" smooth="yes"/>
      <point x="315" y="763" type="line" smooth="no"/>
      <point x="275" y="746"/>
      <point x="240" y="737"/>
    </contour>
    <contour>
      <point x="227" y="1008" type="curve" smooth="yes"/>
      <point x="161" y="1008"/>
      <point x="132" y="980"/>
      <point x="132" y="913" type="curve" smooth="yes"/>
      <point x="132" y="837"/>
      <point x="177" y="821"/>
      <point x="257" y="821" type="curve" smooth="yes"/>
      <point x="315" y="821" type="line" smooth="no"/>
      <point x="315" y="858" type="line" smooth="yes"/>
      <point x="315" y="943"/>
      <point x="301" y="1008"/>
    </contour>
  </outline>
</glyph>
<glyph name="uni0E9A" format="1">
  <advance width="1218"/>
  <unicode hex="0e9a"/>
  <outline>
    <contour>
      <point x="14" y="921" type="curve" smooth="yes"/>
      <point x="14" y="1054"/>
      <point x="109" y="1103"/>
      <point x="249" y="1104" type="curve" smooth="yes"/>
      <point x="368" y="1104"/>
      <point x="465" y="1030"/>
      <point x="465" y="912" type="curve" smooth="yes"/>
      <point x="465" y="889"/>
      <point x="456" y="842"/>
      <point x="438" y="772" type="curve" smooth="yes"/>
      <point x="337" y="377" type="line" smooth="yes"/>
      <point x="337" y="376"/>
      <point x="336" y="374"/>
      <point x="336" y="373" type="curve" smooth="yes"/>
      <point x="329" y="341"/>
      <point x="324" y="307"/>
      <point x="324" y="268" type="curve" smooth="yes"/>
      <point x="324" y="131"/>
      <point x="495" y="98"/>
      <point x="640" y="98" type="curve" smooth="yes"/>
      <point x="881" y="98"/>
      <point x="968" y="195"/>
      <point x="968" y="436" type="curve" smooth="yes"/>
      <point x="968" y="1104" type="line" smooth="no"/>
      <point x="1125" y="1104" type="line" smooth="no"/>
      <point x="1125" y="463" type="line" smooth="yes"/>
      <point x="1125" y="133"/>
      <point x="975" y="0"/>
      <point x="645" y="0" type="curve" smooth="yes"/>
      <point x="414" y="0"/>
      <point x="167" y="66"/>
      <point x="167" y="290" type="curve" smooth="yes"/>
      <point x="167" y="329"/>
      <point x="171" y="355"/>
      <point x="180" y="384" type="curve" smooth="yes"/>
      <point x="284" y="749" type="line" smooth="no"/>
      <point x="252" y="740"/>
      <point x="227" y="736"/>
      <point x="210" y="736" type="curve" smooth="yes"/>
      <point x="95" y="736"/>
      <point x="14" y="806"/>
    </contour>
    <contour>
      <point x="224" y="1008" type="curve" smooth="yes"/>
      <point x="167" y="1008"/>
      <point x="139" y="977"/>
      <point x="138" y="921" type="curve" smooth="no"/>
      <point x="138" y="839"/>
      <point x="185" y="821"/>
      <point x="267" y="821" type="curve" smooth="yes"/>
      <point x="303" y="821" type="line" smooth="no"/>
      <point x="321" y="884" type="line" smooth="yes"/>
      <point x="324" y="895"/>
      <point x="326" y="903"/>
      <point x="326" y="913" type="curve" smooth="yes"/>
      <point x="326" y="974"/>
      <point x="288" y="1008"/>
    </contour>
  </outline>
</glyph>
<glyph name="uni0E9B" format="1">
  <advance width="1219"/>
  <unicode hex="0e9b"/>
  <outline>
    <contour>
      <point x="206" y="736" type="curve" smooth="yes"/>
      <point x="96" y="736"/>
      <point x="15" y="811"/>
      <point x="15" y="921" type="curve" smooth="yes"/>
      <point x="15" y="1038"/>
      <point x="92" y="1099"/>
      <point x="245" y="1104" type="curve" smooth="no"/>
      <point x="364" y="1104"/>
      <point x="466" y="1048"/>
      <point x="466" y="931" type="curve" smooth="yes"/>
      <point x="466" y="886"/>
      <point x="459" y="843"/>
      <point x="446" y="802" type="curve" smooth="no"/>
      <point x="338" y="376" type="line" smooth="yes"/>
      <point x="329" y="344"/>
      <point x="325" y="314"/>
      <point x="325" y="278" type="curve" smooth="yes"/>
      <point x="325" y="134"/>
      <point x="501" y="98"/>
      <point x="652" y="98" type="curve" smooth="yes"/>
      <point x="889" y="98"/>
      <point x="970" y="207"/>
      <point x="970" y="444" type="curve" smooth="yes"/>
      <point x="970" y="1427" type="line" smooth="no"/>
      <point x="1127" y="1427" type="line" smooth="no"/>
      <point x="1127" y="483" type="line" smooth="yes"/>
      <point x="1127" y="142"/>
      <point x="989" y="0"/>
      <point x="649" y="0" type="curve" smooth="yes"/>
      <point x="415" y="0"/>
      <point x="168" y="64"/>
      <point x="168" y="290" type="curve" smooth="yes"/>
      <point x="168" y="330"/>
      <point x="172" y="359"/>
      <point x="181" y="389" type="curve" smooth="yes"/>
      <point x="284" y="748" type="line" smooth="no"/>
      <point x="253" y="740"/>
      <point x="227" y="736"/>
    </contour>
    <contour>
      <point x="327" y="924" type="curve" smooth="yes"/>
      <point x="327" y="979"/>
      <point x="292" y="1008"/>
      <point x="234" y="1008" type="curve" smooth="no"/>
      <point x="173" y="1002"/>
      <point x="142" y="974"/>
      <point x="139" y="923" type="curve" smooth="no"/>
      <point x="139" y="840"/>
      <point x="180" y="821"/>
      <point x="265" y="821" type="curve" smooth="yes"/>
      <point x="304" y="821" type="line" smooth="no"/>
      <point x="322" y="884" type="line" smooth="no"/>
      <point x="324" y="897"/>
      <point x="327" y="910"/>
    </contour>
  </outline>
</glyph>
<glyph name="uni0E9C" format="1">
  <advance width="1553"/>
  <unicode hex="0e9c"/>
  <outline>
    <contour>
      <point x="868" y="917" type="curve" smooth="yes"/>
      <point x="868" y="1053"/>
      <point x="956" y="1100"/>
      <point x="1095" y="1104" type="curve" smooth="no"/>
      <point x="1220" y="1103"/>
      <point x="1295" y="1034"/>
      <point x="1318" y="897" type="curve" smooth="no"/>
      <point x="1343" y="934"/>
      <point x="1355" y="986"/>
      <point x="1355" y="1053" type="curve" smooth="yes"/>
      <point x="1355" y="1238" type="line" smooth="no"/>
      <point x="1472" y="1238" type="line" smooth="no"/>
      <point x="1472" y="1053" type="line" smooth="yes"/>
      <point x="1472" y="922"/>
      <point x="1413" y="849"/>
      <point x="1330" y="794" type="curve" smooth="no"/>
      <point x="1331" y="776"/>
      <point x="1331" y="761"/>
      <point x="1331" y="750" type="curve" smooth="yes"/>
      <point x="1331" y="482" type="line" smooth="yes"/>
      <point x="1331" y="199"/>
      <point x="1248" y="0"/>
      <point x="989" y="0" type="curve" smooth="yes"/>
      <point x="831" y="0"/>
      <point x="735" y="85"/>
      <point x="713" y="226" type="curve" smooth="no"/>
      <point x="694" y="82"/>
      <point x="602" y="0"/>
      <point x="440" y="0" type="curve" smooth="yes"/>
      <point x="159" y="0"/>
      <point x="95" y="180"/>
      <point x="95" y="465" type="curve" smooth="yes"/>
      <point x="95" y="804" type="line" smooth="yes"/>
      <point x="95" y="987"/>
      <point x="165" y="1104"/>
      <point x="339" y="1104" type="curve" smooth="yes"/>
      <point x="476" y="1104"/>
      <point x="559" y="1046"/>
      <point x="559" y="914" type="curve" smooth="yes"/>
      <point x="559" y="801"/>
      <point x="474" y="737"/>
      <point x="359" y="737" type="curve" smooth="yes"/>
      <point x="319" y="737"/>
      <point x="286" y="746"/>
      <point x="252" y="758" type="curve" smooth="no"/>
      <point x="252" y="410" type="line" smooth="yes"/>
      <point x="252" y="234"/>
      <point x="272" y="98"/>
      <point x="442" y="98" type="curve" smooth="yes"/>
      <point x="600" y="98"/>
      <point x="633" y="238"/>
      <point x="633" y="417" type="curve" smooth="yes"/>
      <point x="633" y="473" type="line" smooth="no"/>
      <point x="792" y="473" type="line" smooth="no"/>
      <point x="792" y="416" type="line" smooth="yes"/>
      <point x="792" y="245"/>
      <point x="833" y="98"/>
      <point x="985" y="98" type="curve" smooth="yes"/>
      <point x="1142" y="98"/>
      <point x="1174" y="228"/>
      <point x="1174" y="403" type="curve" smooth="yes"/>
      <point x="1174" y="743" type="line" smooth="no"/>
      <point x="1148" y="739"/>
      <point x="1119" y="737"/>
      <point x="1087" y="737" type="curve" smooth="yes"/>
      <point x="955" y="737"/>
      <point x="868" y="791"/>
    </contour>
    <contour>
      <point x="992" y="919" type="curve" smooth="yes"/>
      <point x="992" y="833"/>
      <point x="1046" y="820"/>
      <point x="1133" y="820" type="curve" smooth="yes"/>
      <point x="1146" y="820"/>
      <point x="1160" y="821"/>
      <point x="1174" y="823" type="curve" smooth="no"/>
      <point x="1174" y="858" type="line" smooth="yes"/>
      <point x="1174" y="947"/>
      <point x="1159" y="1008"/>
      <point x="1081" y="1008" type="curve" smooth="yes"/>
      <point x="1024" y="1008"/>
      <point x="992" y="976"/>
    </contour>
    <contour>
      <point x="434" y="913" type="curve" smooth="yes"/>
      <point x="434" y="974"/>
      <point x="405" y="1007"/>
      <point x="347" y="1008" type="curve" smooth="no"/>
      <point x="269" y="1008"/>
      <point x="252" y="943"/>
      <point x="252" y="858" type="curve" smooth="yes"/>
      <point x="252" y="821" type="line" smooth="no"/>
      <point x="304" y="821" type="line" smooth="yes"/>
      <point x="383" y="821"/>
      <point x="434" y="835"/>
    </contour>
  </outline>
</glyph>
<glyph name="uni0E9D" format="1">
  <advance width="1547"/>
  <unicode hex="0e9d"/>
  <outline>
    <contour>
      <point x="275" y="437" type="line" smooth="yes"/>
      <point x="275" y="246"/>
      <point x="303" y="109"/>
      <point x="487" y="106" type="curve" smooth="no"/>
      <point x="655" y="106"/>
      <point x="692" y="250"/>
      <point x="692" y="437" type="curve" smooth="yes"/>
      <point x="692" y="513" type="line" smooth="no"/>
      <point x="862" y="513" type="line" smooth="no"/>
      <point x="862" y="437" type="line" smooth="yes"/>
      <point x="862" y="263"/>
      <point x="905" y="106"/>
      <point x="1062" y="106" type="curve" smooth="yes"/>
      <point x="1250" y="106"/>
      <point x="1278" y="245"/>
      <point x="1278" y="437" type="curve" smooth="yes"/>
      <point x="1278" y="1541" type="line" smooth="no"/>
      <point x="1450" y="1541" type="line" smooth="no"/>
      <point x="1450" y="521" type="line" smooth="yes"/>
      <point x="1450" y="211"/>
      <point x="1386" y="0"/>
      <point x="1081" y="0" type="curve" smooth="no"/>
      <point x="911" y="2"/>
      <point x="810" y="83"/>
      <point x="777" y="244" type="curve" smooth="no"/>
      <point x="742" y="87"/>
      <point x="662" y="3"/>
      <point x="484" y="0" type="curve" smooth="no"/>
      <point x="176" y="3"/>
      <point x="106" y="194"/>
      <point x="106" y="508" type="curve" smooth="yes"/>
      <point x="106" y="839" type="line" smooth="yes"/>
      <point x="106" y="1057"/>
      <point x="171" y="1184"/>
      <point x="369" y="1192" type="curve" smooth="no"/>
      <point x="513" y="1190"/>
      <point x="607" y="1137"/>
      <point x="607" y="998" type="curve" smooth="yes"/>
      <point x="607" y="866"/>
      <point x="521" y="796"/>
      <point x="388" y="796" type="curve" smooth="yes"/>
      <point x="356" y="796"/>
      <point x="318" y="806"/>
      <point x="275" y="824" type="curve" smooth="no"/>
    </contour>
    <contour>
      <point x="473" y="987" type="curve" smooth="yes"/>
      <point x="473" y="1049"/>
      <point x="446" y="1089"/>
      <point x="384" y="1089" type="curve" smooth="yes"/>
      <point x="292" y="1089"/>
      <point x="275" y="1025"/>
      <point x="275" y="927" type="curve" smooth="yes"/>
      <point x="275" y="887" type="line" smooth="no"/>
      <point x="332" y="887" type="line" smooth="yes"/>
      <point x="418" y="887"/>
      <point x="473" y="903"/>
    </contour>
  </outline>
</glyph>
<glyph name="uni0E9E" format="1">
  <advance width="1446"/>
  <unicode hex="0e9e"/>
  <outline>
    <contour>
      <point x="321" y="247" type="curve" smooth="yes"/>
      <point x="321" y="151"/>
      <point x="373" y="98"/>
      <point x="470" y="98" type="curve" smooth="yes"/>
      <point x="623" y="98"/>
      <point x="657" y="227"/>
      <point x="657" y="397" type="curve" smooth="yes"/>
      <point x="657" y="1104" type="line" smooth="no"/>
      <point x="815" y="1104" type="line" smooth="no"/>
      <point x="815" y="397" type="line" smooth="yes"/>
      <point x="815" y="228"/>
      <point x="862" y="98"/>
      <point x="1016" y="98" type="curve" smooth="yes"/>
      <point x="1169" y="98"/>
      <point x="1198" y="231"/>
      <point x="1198" y="402" type="curve" smooth="yes"/>
      <point x="1198" y="1104" type="line" smooth="no"/>
      <point x="1355" y="1104" type="line" smooth="no"/>
      <point x="1355" y="483" type="line" smooth="yes"/>
      <point x="1355" y="196"/>
      <point x="1298" y="0"/>
      <point x="1016" y="0" type="curve" smooth="yes"/>
      <point x="843" y="0"/>
      <point x="770" y="90"/>
      <point x="736" y="231" type="curve" smooth="no"/>
      <point x="709" y="75"/>
      <point x="627" y="0"/>
      <point x="445" y="0" type="curve" smooth="yes"/>
      <point x="262" y="0"/>
      <point x="161" y="93"/>
      <point x="161" y="275" type="curve" smooth="yes"/>
      <point x="161" y="308"/>
      <point x="167" y="345"/>
      <point x="178" y="384" type="curve" smooth="yes"/>
      <point x="281" y="748" type="line" smooth="no"/>
      <point x="250" y="740"/>
      <point x="225" y="736"/>
      <point x="208" y="736" type="curve" smooth="yes"/>
      <point x="87" y="736"/>
      <point x="12" y="805"/>
      <point x="12" y="926" type="curve" smooth="yes"/>
      <point x="12" y="1054"/>
      <point x="109" y="1104"/>
      <point x="247" y="1104" type="curve" smooth="yes"/>
      <point x="367" y="1104"/>
      <point x="463" y="1030"/>
      <point x="463" y="910" type="curve" smooth="yes"/>
      <point x="463" y="887"/>
      <point x="458" y="857"/>
      <point x="449" y="821" type="curve" smooth="yes"/>
      <point x="344" y="409" type="line" smooth="yes"/>
      <point x="330" y="355"/>
      <point x="321" y="304"/>
    </contour>
    <contour>
      <point x="223" y="1008" type="curve" smooth="yes"/>
      <point x="166" y="1008"/>
      <point x="137" y="978"/>
      <point x="136" y="923" type="curve" smooth="no"/>
      <point x="136" y="840"/>
      <point x="178" y="821"/>
      <point x="260" y="821" type="curve" smooth="yes"/>
      <point x="301" y="821" type="line" smooth="no"/>
      <point x="317" y="876" type="line" smooth="yes"/>
      <point x="321" y="891"/>
      <point x="320" y="907"/>
      <point x="324" y="922" type="curve" smooth="no"/>
      <point x="324" y="977"/>
      <point x="282" y="1008"/>
    </contour>
  </outline>
</glyph>
<glyph name="uni0E9F" format="1">
  <advance width="1526"/>
  <unicode hex="0e9f"/>
  <outline>
    <contour>
      <point x="236" y="1104" type="curve" smooth="yes"/>
      <point x="361" y="1104"/>
      <point x="463" y="1042"/>
      <point x="463" y="919" type="curve" smooth="yes"/>
      <point x="463" y="885"/>
      <point x="454" y="855"/>
      <point x="446" y="822" type="curve" smooth="yes"/>
      <point x="347" y="426" type="line" smooth="no"/>
      <point x="337" y="394"/>
      <point x="319" y="329"/>
      <point x="319" y="263" type="curve" smooth="yes"/>
      <point x="319" y="163"/>
      <point x="366" y="98"/>
      <point x="464" y="98" type="curve" smooth="yes"/>
      <point x="636" y="98"/>
      <point x="657" y="222"/>
      <point x="657" y="397" type="curve" smooth="yes"/>
      <point x="657" y="1104" type="line" smooth="no"/>
      <point x="815" y="1104" type="line" smooth="no"/>
      <point x="815" y="397" type="line" smooth="yes"/>
      <point x="815" y="225"/>
      <point x="853" y="98"/>
      <point x="1021" y="98" type="curve" smooth="yes"/>
      <point x="1179" y="98"/>
      <point x="1196" y="239"/>
      <point x="1196" y="401" type="curve" smooth="yes"/>
      <point x="1196" y="1428" type="line" smooth="no"/>
      <point x="1353" y="1428" type="line" smooth="no"/>
      <point x="1353" y="483" type="line" smooth="yes"/>
      <point x="1353" y="196"/>
      <point x="1296" y="0"/>
      <point x="1015" y="0" type="curve" smooth="yes"/>
      <point x="839" y="0"/>
      <point x="767" y="85"/>
      <point x="736" y="231" type="curve" smooth="no"/>
      <point x="711" y="76"/>
      <point x="626" y="0"/>
      <point x="453" y="0" type="curve" smooth="yes"/>
      <point x="442" y="0" type="line" smooth="no"/>
      <point x="275" y="3"/>
      <point x="160" y="104"/>
      <point x="160" y="274" type="curve" smooth="yes"/>
      <point x="160" y="315"/>
      <point x="167" y="351"/>
      <point x="177" y="387" type="curve" smooth="yes"/>
      <point x="282" y="754" type="line" smooth="no"/>
      <point x="244" y="745"/>
      <point x="229" y="741"/>
      <point x="195" y="741" type="curve" smooth="yes"/>
      <point x="85" y="741"/>
      <point x="12" y="811"/>
      <point x="12" y="922" type="curve" smooth="yes"/>
      <point x="12" y="1050"/>
      <point x="100" y="1104"/>
    </contour>
    <contour>
      <point x="324" y="927" type="curve" smooth="yes"/>
      <point x="324" y="977"/>
      <point x="276" y="1010"/>
      <point x="222" y="1010" type="curve" smooth="yes"/>
      <point x="165" y="1010"/>
      <point x="136" y="979"/>
      <point x="135" y="916" type="curve" smooth="no"/>
      <point x="135" y="840"/>
      <point x="185" y="822"/>
      <point x="265" y="822" type="curve" smooth="yes"/>
      <point x="300" y="822" type="line" smooth="no"/>
      <point x="311" y="862" type="line" smooth="no"/>
      <point x="316" y="885"/>
      <point x="324" y="905"/>
    </contour>
  </outline>
</glyph>
<glyph name="uni0EA1" format="1">
  <advance width="1617"/>
  <unicode hex="0ea1"/>
  <outline>
    <contour>
      <point x="703" y="448" type="line" smooth="yes"/>
      <point x="703" y="215"/>
      <point x="811" y="109"/>
      <point x="1039" y="106" type="curve" smooth="no"/>
      <point x="1234" y="106"/>
      <point x="1345" y="207"/>
      <point x="1345" y="404" type="curve" smooth="yes"/>
      <point x="1345" y="1192" type="line" smooth="no"/>
      <point x="1515" y="1192" type="line" smooth="no"/>
      <point x="1515" y="504" type="line" smooth="yes"/>
      <point x="1515" y="174"/>
      <point x="1365" y="0"/>
      <point x="1040" y="0" type="curve" smooth="yes"/>
      <point x="813" y="0"/>
      <point x="670" y="82"/>
      <point x="619" y="255" type="curve" smooth="no"/>
      <point x="576" y="85"/>
      <point x="447" y="0"/>
      <point x="233" y="0" type="curve" smooth="yes"/>
      <point x="95" y="0"/>
      <point x="-18" y="61"/>
      <point x="-18" y="200" type="curve" smooth="yes"/>
      <point x="-18" y="324"/>
      <point x="65" y="396"/>
      <point x="194" y="396" type="curve" smooth="yes"/>
      <point x="325" y="396"/>
      <point x="413" y="346"/>
      <point x="413" y="222" type="curve" smooth="yes"/>
      <point x="413" y="198"/>
      <point x="404" y="164"/>
      <point x="388" y="118" type="curve" smooth="no"/>
      <point x="485" y="154"/>
      <point x="534" y="262"/>
      <point x="534" y="447" type="curve" smooth="yes"/>
      <point x="534" y="1192" type="line" smooth="no"/>
      <point x="703" y="1192" type="line" smooth="no"/>
    </contour>
    <contour>
      <point x="206" y="306" type="curve" smooth="yes"/>
      <point x="140" y="306"/>
      <point x="116" y="264"/>
      <point x="116" y="197" type="curve" smooth="yes"/>
      <point x="116" y="112"/>
      <point x="168" y="102"/>
      <point x="254" y="102" type="curve" smooth="yes"/>
      <point x="267" y="102"/>
      <point x="281" y="103"/>
      <point x="294" y="103" type="curve" smooth="no"/>
      <point x="294" y="206" type="line" smooth="yes"/>
      <point x="294" y="268"/>
      <point x="265" y="306"/>
    </contour>
  </outline>
</glyph>
<glyph name="uni0EA2" format="1">
  <advance width="1224"/>
  <unicode hex="0ea2"/>
  <outline>
    <contour>
      <point x="572" y="97" type="curve" smooth="yes"/>
      <point x="579" y="97"/>
      <point x="585" y="98"/>
      <point x="592" y="98" type="curve" smooth="yes"/>
      <point x="839" y="98"/>
      <point x="942" y="184"/>
      <point x="942" y="431" type="curve" smooth="yes"/>
      <point x="942" y="1073" type="line" smooth="yes"/>
      <point x="942" y="1212"/>
      <point x="957" y="1314"/>
      <point x="1000" y="1415" type="curve" smooth="no"/>
      <point x="1151" y="1415" type="line" smooth="no"/>
      <point x="1120" y="1299"/>
      <point x="1101" y="1186"/>
      <point x="1101" y="1050" type="curve" smooth="yes"/>
      <point x="1101" y="446" type="line" smooth="yes"/>
      <point x="1101" y="110"/>
      <point x="929" y="1"/>
      <point x="592" y="1" type="curve" smooth="yes"/>
      <point x="341" y="1"/>
      <point x="102" y="58"/>
      <point x="102" y="280" type="curve" smooth="yes"/>
      <point x="102" y="418"/>
      <point x="222" y="501"/>
      <point x="362" y="501" type="curve" smooth="no"/>
      <point x="194" y="519"/>
      <point x="102" y="616"/>
      <point x="102" y="800" type="curve" smooth="yes"/>
      <point x="102" y="973"/>
      <point x="180" y="1104"/>
      <point x="351" y="1104" type="curve" smooth="yes"/>
      <point x="475" y="1104"/>
      <point x="561" y="1042"/>
      <point x="561" y="920" type="curve" smooth="yes"/>
      <point x="561" y="801"/>
      <point x="487" y="740"/>
      <point x="367" y="737" type="curve" smooth="yes"/>
      <point x="349" y="737"/>
      <point x="330" y="740"/>
      <point x="310" y="742" type="curve" smooth="no"/>
      <point x="256" y="752" type="line" smooth="no"/>
      <point x="256" y="732" type="line" smooth="yes"/>
      <point x="256" y="631"/>
      <point x="324" y="558"/>
      <point x="426" y="558" type="curve" smooth="yes"/>
      <point x="560" y="558" type="line" smooth="no"/>
      <point x="560" y="445" type="line" smooth="no"/>
      <point x="426" y="445" type="line" smooth="yes"/>
      <point x="327" y="445"/>
      <point x="255" y="376"/>
      <point x="255" y="276" type="curve" smooth="yes"/>
      <point x="255" y="137"/>
      <point x="409" y="97"/>
    </contour>
    <contour>
      <point x="319" y="821" type="line" smooth="yes"/>
      <point x="400" y="821"/>
      <point x="435" y="840"/>
      <point x="438" y="913" type="curve" smooth="no"/>
      <point x="436" y="976"/>
      <point x="409" y="1007"/>
      <point x="357" y="1008" type="curve" smooth="no"/>
      <point x="286" y="1008"/>
      <point x="256" y="948"/>
      <point x="256" y="870" type="curve" smooth="yes"/>
      <point x="256" y="821" type="line" smooth="no"/>
    </contour>
  </outline>
</glyph>
<glyph name="uni0EA3" format="1">
  <advance width="1355"/>
  <unicode hex="0ea3"/>
  <outline>
    <contour>
      <point x="93" y="332" type="curve" smooth="yes"/>
      <point x="93" y="496"/>
      <point x="176" y="577"/>
      <point x="339" y="578" type="curve" smooth="yes"/>
      <point x="479" y="578"/>
      <point x="570" y="518"/>
      <point x="570" y="381" type="curve" smooth="yes"/>
      <point x="570" y="265"/>
      <point x="489" y="191"/>
      <point x="377" y="188" type="curve" smooth="no"/>
      <point x="282" y="204" type="line" smooth="no"/>
      <point x="365" y="133"/>
      <point x="495" y="104"/>
      <point x="657" y="104" type="curve" smooth="yes"/>
      <point x="874" y="104"/>
      <point x="1087" y="136"/>
      <point x="1089" y="320" type="curve" smooth="no"/>
      <point x="1089" y="465"/>
      <point x="996" y="492"/>
      <point x="884" y="531" type="curve" smooth="yes"/>
      <point x="428" y="688" type="line" smooth="yes"/>
      <point x="289" y="737"/>
      <point x="116" y="775"/>
      <point x="116" y="948" type="curve" smooth="no"/>
      <point x="113" y="1159"/>
      <point x="387" y="1192"/>
      <point x="642" y="1192" type="curve" smooth="yes"/>
      <point x="961" y="1192"/>
      <point x="1240" y="1156"/>
      <point x="1240" y="848" type="curve" smooth="yes"/>
      <point x="1240" y="825" type="line" smooth="no"/>
      <point x="1103" y="825" type="line" smooth="no"/>
      <point x="1103" y="852" type="line" smooth="yes"/>
      <point x="1103" y="1073"/>
      <point x="878" y="1085"/>
      <point x="648" y="1085" type="curve" smooth="yes"/>
      <point x="634" y="1085" type="line" smooth="yes"/>
      <point x="487" y="1085"/>
      <point x="287" y="1084"/>
      <point x="287" y="953" type="curve" smooth="yes"/>
      <point x="287" y="840"/>
      <point x="475" y="806"/>
      <point x="575" y="773" type="curve" smooth="yes"/>
      <point x="712" y="728" type="line" smooth="no"/>
      <point x="933" y="657"/>
      <point x="1260" y="618"/>
      <point x="1260" y="337" type="curve" smooth="no"/>
      <point x="1262" y="68"/>
      <point x="962" y="0"/>
      <point x="653" y="0" type="curve" smooth="yes"/>
      <point x="388" y="0"/>
      <point x="93" y="78"/>
    </contour>
    <contour>
      <point x="271" y="273" type="line" smooth="yes"/>
      <point x="377" y="273"/>
      <point x="434" y="281"/>
      <point x="437" y="380" type="curve" smooth="no"/>
      <point x="437" y="442"/>
      <point x="412" y="483"/>
      <point x="353" y="483" type="curve" smooth="yes"/>
      <point x="264" y="483"/>
      <point x="220" y="428"/>
      <point x="220" y="337" type="curve" smooth="yes"/>
      <point x="220" y="316"/>
      <point x="224" y="295"/>
      <point x="232" y="273" type="curve" smooth="no"/>
    </contour>
  </outline>
</glyph>
<glyph name="uni0EA5" format="1">
  <advance width="1298"/>
  <unicode hex="0ea5"/>
  <outline>
    <contour>
      <point x="68" y="266" type="curve" smooth="yes"/>
      <point x="68" y="457"/>
      <point x="188" y="612"/>
      <point x="378" y="612" type="curve" smooth="yes"/>
      <point x="653" y="612"/>
      <point x="711" y="276"/>
      <point x="856" y="138" type="curve" smooth="yes"/>
      <point x="878" y="117"/>
      <point x="896" y="104"/>
      <point x="932" y="104" type="curve" smooth="yes"/>
      <point x="1041" y="104"/>
      <point x="1048" y="242"/>
      <point x="1048" y="351" type="curve" smooth="yes"/>
      <point x="1048" y="623" type="line" smooth="yes"/>
      <point x="1048" y="920"/>
      <point x="957" y="1005"/>
      <point x="660" y="1005" type="curve" smooth="yes"/>
      <point x="656" y="1005" type="line" smooth="yes"/>
      <point x="419" y="1005"/>
      <point x="234" y="930"/>
      <point x="231" y="713" type="curve" smooth="no"/>
      <point x="94" y="713" type="line" smooth="no"/>
      <point x="94" y="1009"/>
      <point x="350" y="1104"/>
      <point x="679" y="1104" type="curve" smooth="yes"/>
      <point x="1034" y="1104"/>
      <point x="1206" y="989"/>
      <point x="1206" y="636" type="curve" smooth="yes"/>
      <point x="1206" y="413" type="line" smooth="yes"/>
      <point x="1206" y="177"/>
      <point x="1153" y="0"/>
      <point x="923" y="0" type="curve" smooth="yes"/>
      <point x="683" y="0"/>
      <point x="601" y="342"/>
      <point x="465" y="472" type="curve" smooth="yes"/>
      <point x="441" y="495"/>
      <point x="420" y="508"/>
      <point x="381" y="508" type="curve" smooth="yes"/>
      <point x="280" y="508"/>
      <point x="238" y="435"/>
      <point x="226" y="339" type="curve" smooth="no"/>
      <point x="261" y="350"/>
      <point x="295" y="370"/>
      <point x="327" y="370" type="curve" smooth="yes"/>
      <point x="448" y="370"/>
      <point x="527" y="302"/>
      <point x="527" y="181" type="curve" smooth="yes"/>
      <point x="527" y="50"/>
      <point x="437" y="0"/>
      <point x="299" y="0" type="curve" smooth="yes"/>
      <point x="151" y="0"/>
      <point x="68" y="116"/>
    </contour>
    <contour>
      <point x="316" y="94" type="curve" smooth="yes"/>
      <point x="378" y="94"/>
      <point x="400" y="128"/>
      <point x="404" y="192" type="curve" smooth="no"/>
      <point x="404" y="262"/>
      <point x="357" y="277"/>
      <point x="288" y="283" type="curve" smooth="no"/>
      <point x="221" y="283" type="line" smooth="no"/>
      <point x="221" y="264" type="line" smooth="yes"/>
      <point x="221" y="173"/>
      <point x="228" y="94"/>
    </contour>
  </outline>
</glyph>
<glyph name="uni0EA7" format="1">
  <advance width="1406"/>
  <unicode hex="0ea7"/>
  <outline>
    <contour>
      <point x="394" y="578" type="curve" smooth="yes"/>
      <point x="535" y="578"/>
      <point x="626" y="518"/>
      <point x="626" y="381" type="curve" smooth="yes"/>
      <point x="626" y="255"/>
      <point x="562" y="188"/>
      <point x="436" y="188" type="curve" smooth="no"/>
      <point x="325" y="207" type="line" smooth="no"/>
      <point x="390" y="138"/>
      <point x="511" y="104"/>
      <point x="689" y="104" type="curve" smooth="yes"/>
      <point x="988" y="104"/>
      <point x="1138" y="236"/>
      <point x="1138" y="501" type="curve" smooth="yes"/>
      <point x="1138" y="673" type="line" smooth="yes"/>
      <point x="1138" y="999"/>
      <point x="1027" y="1085"/>
      <point x="701" y="1085" type="curve" smooth="yes"/>
      <point x="448" y="1085"/>
      <point x="266" y="1002"/>
      <point x="260" y="770" type="curve" smooth="no"/>
      <point x="112" y="770" type="line" smooth="no"/>
      <point x="112" y="1083"/>
      <point x="388" y="1192"/>
      <point x="709" y="1192" type="curve" smooth="yes"/>
      <point x="1083" y="1192"/>
      <point x="1308" y="1100"/>
      <point x="1308" y="731" type="curve" smooth="yes"/>
      <point x="1308" y="486" type="line" smooth="yes"/>
      <point x="1308" y="136"/>
      <point x="1048" y="0"/>
      <point x="693" y="0" type="curve" smooth="yes"/>
      <point x="429" y="0"/>
      <point x="118" y="75"/>
      <point x="118" y="327" type="curve" smooth="yes"/>
      <point x="118" y="492"/>
      <point x="228" y="578"/>
    </contour>
    <contour>
      <point x="304" y="273" type="line" smooth="yes"/>
      <point x="413" y="273"/>
      <point x="491" y="275"/>
      <point x="491" y="380" type="curve" smooth="yes"/>
      <point x="491" y="451"/>
      <point x="461" y="482"/>
      <point x="391" y="482" type="curve" smooth="yes"/>
      <point x="311" y="482"/>
      <point x="277" y="421"/>
      <point x="277" y="337" type="curve" smooth="yes"/>
      <point x="277" y="316"/>
      <point x="281" y="295"/>
      <point x="286" y="273" type="curve" smooth="no"/>
    </contour>
  </outline>
</glyph>
<glyph name="uni0EAA" format="1">
  <advance width="1379"/>
  <unicode hex="0eaa"/>
  <outline>
    <contour>
      <point x="321" y="0" type="curve" smooth="yes"/>
      <point x="170" y="0"/>
      <point x="105" y="111"/>
      <point x="105" y="272" type="curve" smooth="yes"/>
      <point x="105" y="452"/>
      <point x="210" y="558"/>
      <point x="392" y="558" type="curve" smooth="yes"/>
      <point x="719" y="558"/>
      <point x="680" y="232"/>
      <point x="890" y="122" type="curve" smooth="yes"/>
      <point x="911" y="111"/>
      <point x="934" y="105"/>
      <point x="961" y="105" type="curve" smooth="yes"/>
      <point x="1080" y="105"/>
      <point x="1088" y="236"/>
      <point x="1088" y="355" type="curve" smooth="yes"/>
      <point x="1088" y="758" type="line" smooth="no"/>
      <point x="1047" y="653"/>
      <point x="825" y="619"/>
      <point x="675" y="619" type="curve" smooth="yes"/>
      <point x="414" y="619"/>
      <point x="124" y="641"/>
      <point x="124" y="844" type="curve" smooth="yes"/>
      <point x="124" y="1062"/>
      <point x="445" y="1104"/>
      <point x="675" y="1104" type="curve" smooth="yes"/>
      <point x="860" y="1104"/>
      <point x="999" y="1070"/>
      <point x="1104" y="994" type="curve" smooth="no"/>
      <point x="1132" y="1047"/>
      <point x="1150" y="1140"/>
      <point x="1150" y="1229" type="curve" smooth="no"/>
      <point x="1276" y="1229" type="line" smooth="no"/>
      <point x="1276" y="1111"/>
      <point x="1232" y="978"/>
      <point x="1190" y="892" type="curve" smooth="no"/>
      <point x="1231" y="846"/>
      <point x="1247" y="736"/>
      <point x="1247" y="649" type="curve" smooth="yes"/>
      <point x="1247" y="401" type="line" smooth="yes"/>
      <point x="1247" y="162"/>
      <point x="1178" y="1"/>
      <point x="958" y="1" type="curve" smooth="yes"/>
      <point x="678" y="1"/>
      <point x="662" y="291"/>
      <point x="510" y="424" type="curve" smooth="yes"/>
      <point x="482" y="449"/>
      <point x="451" y="464"/>
      <point x="402" y="464" type="curve" smooth="yes"/>
      <point x="304" y="464"/>
      <point x="260" y="422"/>
      <point x="244" y="339" type="curve" smooth="no"/>
      <point x="356" y="367" type="line" smooth="no"/>
      <point x="470" y="367"/>
      <point x="544" y="303"/>
      <point x="544" y="189" type="curve" smooth="yes"/>
      <point x="544" y="56"/>
      <point x="460" y="0"/>
    </contour>
    <contour>
      <point x="279" y="844" type="curve" smooth="yes"/>
      <point x="279" y="725"/>
      <point x="507" y="721"/>
      <point x="675" y="721" type="curve" smooth="yes"/>
      <point x="866" y="721"/>
      <point x="1010" y="757"/>
      <point x="1056" y="885" type="curve" smooth="no"/>
      <point x="983" y="973"/>
      <point x="845" y="1005"/>
      <point x="675" y="1005" type="curve" smooth="yes"/>
      <point x="519" y="1005"/>
      <point x="279" y="987"/>
    </contour>
    <contour>
      <point x="421" y="193" type="curve" smooth="yes"/>
      <point x="421" y="272"/>
      <point x="365" y="283"/>
      <point x="279" y="283" type="curve" smooth="yes"/>
      <point x="239" y="283" type="line" smooth="no"/>
      <point x="238" y="280"/>
      <point x="238" y="277"/>
      <point x="238" y="274" type="curve" smooth="yes"/>
      <point x="238" y="253" type="line" smooth="yes"/>
      <point x="238" y="167"/>
      <point x="251" y="100"/>
      <point x="329" y="94" type="curve" smooth="no"/>
      <point x="392" y="95"/>
      <point x="421" y="126"/>
    </contour>
  </outline>
</glyph>
<glyph name="uni0EAB" format="1">
  <advance width="1860"/>
  <unicode hex="0eab"/>
  <outline>
    <contour>
      <point x="1054" y="463" type="line" smooth="yes"/>
      <point x="1054" y="143"/>
      <point x="942" y="0"/>
      <point x="619" y="0" type="curve" smooth="yes"/>
      <point x="387" y="0"/>
      <point x="174" y="79"/>
      <point x="174" y="306" type="curve" smooth="yes"/>
      <point x="174" y="339"/>
      <point x="179" y="374"/>
      <point x="189" y="410" type="curve" smooth="yes"/>
      <point x="284" y="755" type="line" smooth="no"/>
      <point x="239" y="743"/>
      <point x="214" y="737"/>
      <point x="210" y="737" type="curve" smooth="yes"/>
      <point x="92" y="737"/>
      <point x="16" y="805"/>
      <point x="16" y="923" type="curve" smooth="yes"/>
      <point x="16" y="1049"/>
      <point x="98" y="1104"/>
      <point x="229" y="1104" type="curve" smooth="yes"/>
      <point x="355" y="1104"/>
      <point x="465" y="1047"/>
      <point x="465" y="923" type="curve" smooth="yes"/>
      <point x="465" y="894"/>
      <point x="457" y="849"/>
      <point x="442" y="788" type="curve" smooth="yes"/>
      <point x="345" y="408" type="line" smooth="yes"/>
      <point x="336" y="376"/>
      <point x="331" y="347"/>
      <point x="331" y="311" type="curve" smooth="yes"/>
      <point x="331" y="155"/>
      <point x="442" y="97"/>
      <point x="611" y="97" type="curve" smooth="yes"/>
      <point x="840" y="97"/>
      <point x="897" y="207"/>
      <point x="897" y="438" type="curve" smooth="yes"/>
      <point x="897" y="749" type="line" smooth="no"/>
      <point x="869" y="740"/>
      <point x="843" y="736"/>
      <point x="818" y="736" type="curve" smooth="yes"/>
      <point x="678" y="736"/>
      <point x="589" y="790"/>
      <point x="589" y="923" type="curve" smooth="yes"/>
      <point x="589" y="1054"/>
      <point x="696" y="1102"/>
      <point x="826" y="1102" type="curve" smooth="yes"/>
      <point x="950" y="1102"/>
      <point x="1025" y="1045"/>
      <point x="1050" y="931" type="curve" smooth="no"/>
      <point x="1144" y="993"/>
      <point x="1258" y="1104"/>
      <point x="1405" y="1104" type="curve" smooth="yes"/>
      <point x="1658" y="1104"/>
      <point x="1719" y="919"/>
      <point x="1719" y="662" type="curve" smooth="yes"/>
      <point x="1719" y="0" type="line" smooth="no"/>
      <point x="1563" y="0" type="line" smooth="no"/>
      <point x="1563" y="658" type="line" smooth="yes"/>
      <point x="1563" y="669.733"/>
      <point x="1563.03" y="681.444"/>
      <point x="1563.03" y="693.084" type="curve" smooth="yes"/>
      <point x="1563.03" y="856.04"/>
      <point x="1557.8" y="1005"/>
      <point x="1401" y="1005" type="curve" smooth="yes"/>
      <point x="1260" y="1005"/>
      <point x="1150" y="878"/>
      <point x="1054" y="822" type="curve" smooth="no"/>
    </contour>
    <contour>
      <point x="815" y="1010" type="curve" smooth="yes"/>
      <point x="755" y="1010"/>
      <point x="712" y="987"/>
      <point x="712" y="931" type="curve" smooth="no"/>
      <point x="715" y="861"/>
      <point x="756" y="827"/>
      <point x="826" y="824" type="curve" smooth="no"/>
      <point x="849" y="825"/>
      <point x="872" y="831"/>
      <point x="897" y="842" type="curve" smooth="no"/>
      <point x="897" y="916" type="line" smooth="yes"/>
      <point x="897" y="973"/>
      <point x="871" y="1010"/>
    </contour>
    <contour>
      <point x="236" y="1008" type="curve" smooth="yes"/>
      <point x="176" y="1008"/>
      <point x="141" y="976"/>
      <point x="138" y="921" type="curve" smooth="no"/>
      <point x="138" y="838"/>
      <point x="189" y="821"/>
      <point x="273" y="821" type="curve" smooth="yes"/>
      <point x="302" y="821" type="line" smooth="no"/>
      <point x="317" y="872"/>
      <point x="325" y="907"/>
      <point x="325" y="924" type="curve" smooth="yes"/>
      <point x="325" y="973"/>
      <point x="287" y="1008"/>
    </contour>
  </outline>
</glyph>
<glyph name="uni0EAD" format="1">
  <advance width="1406"/>
  <unicode hex="0ead"/>
  <outline>
    <contour>
      <point x="691" y="1192" type="curve" smooth="yes"/>
      <point x="1060" y="1192"/>
      <point x="1309" y="1090"/>
      <point x="1309" y="752" type="curve" smooth="yes"/>
      <point x="1309" y="546" type="line" smooth="yes"/>
      <point x="1309" y="155"/>
      <point x="1088" y="0"/>
      <point x="688" y="0" type="curve" smooth="yes"/>
      <point x="430" y="0"/>
      <point x="117" y="80"/>
      <point x="117" y="327" type="curve" smooth="yes"/>
      <point x="117" y="489"/>
      <point x="226" y="578"/>
      <point x="391" y="578" type="curve" smooth="yes"/>
      <point x="531" y="578"/>
      <point x="625" y="520"/>
      <point x="625" y="384" type="curve" smooth="yes"/>
      <point x="625" y="272"/>
      <point x="554" y="191"/>
      <point x="444" y="188" type="curve" smooth="no"/>
      <point x="405" y="188"/>
      <point x="368" y="195"/>
      <point x="325" y="203" type="curve" smooth="no"/>
      <point x="387" y="137"/>
      <point x="507" y="104"/>
      <point x="685" y="104" type="curve" smooth="yes"/>
      <point x="1101" y="104"/>
      <point x="1140" y="319"/>
      <point x="1140" y="739" type="curve" smooth="yes"/>
      <point x="1140" y="748" type="line" smooth="no"/>
      <point x="1058" y="666"/>
      <point x="863" y="656"/>
      <point x="692" y="656" type="curve" smooth="yes"/>
      <point x="417" y="656"/>
      <point x="116" y="690"/>
      <point x="116" y="912" type="curve" smooth="yes"/>
      <point x="116" y="1150"/>
      <point x="438" y="1192"/>
    </contour>
    <contour>
      <point x="691" y="1085" type="curve" smooth="yes"/>
      <point x="501" y="1085"/>
      <point x="285" y="1064"/>
      <point x="285" y="912" type="curve" smooth="no"/>
      <point x="287" y="772"/>
      <point x="502" y="768"/>
      <point x="691" y="768" type="curve" smooth="yes"/>
      <point x="844" y="768"/>
      <point x="1107" y="781"/>
      <point x="1116" y="912" type="curve" smooth="no"/>
      <point x="1112" y="1058"/>
      <point x="853" y="1085"/>
    </contour>
    <contour>
      <point x="491" y="381" type="curve" smooth="yes"/>
      <point x="491" y="448"/>
      <point x="454" y="481"/>
      <point x="387" y="482" type="curve" smooth="no"/>
      <point x="308" y="481"/>
      <point x="277" y="423"/>
      <point x="277" y="337" type="curve" smooth="yes"/>
      <point x="277" y="313"/>
      <point x="281" y="290"/>
      <point x="286" y="273" type="curve" smooth="no"/>
      <point x="337" y="273" type="line" smooth="yes"/>
      <point x="432" y="273"/>
      <point x="491" y="288"/>
    </contour>
  </outline>
</glyph>
<glyph name="uni0EAE" format="1">
  <advance width="1240"/>
  <unicode hex="0eae"/>
  <outline>
    <contour>
      <point x="315" y="1104" type="curve" smooth="yes"/>
      <point x="526" y="1104"/>
      <point x="710" y="907"/>
      <point x="917" y="890" type="curve" smooth="no"/>
      <point x="922" y="890" type="line" smooth="yes"/>
      <point x="988" y="890"/>
      <point x="1021" y="934"/>
      <point x="1021" y="1022" type="curve" smooth="yes"/>
      <point x="1021" y="1104" type="line" smooth="no"/>
      <point x="1132" y="1104" type="line" smooth="no"/>
      <point x="1132" y="1023" type="line" smooth="yes"/>
      <point x="1132" y="888"/>
      <point x="1065" y="786"/>
      <point x="931" y="786" type="curve" smooth="yes"/>
      <point x="832" y="786"/>
      <point x="530" y="933"/>
      <point x="392" y="978" type="curve" smooth="yes"/>
      <point x="365" y="987"/>
      <point x="343" y="991"/>
      <point x="326" y="991" type="curve" smooth="yes"/>
      <point x="268" y="991"/>
      <point x="239" y="959"/>
      <point x="239" y="900" type="curve" smooth="yes"/>
      <point x="239" y="786"/>
      <point x="389" y="759"/>
      <point x="485" y="723" type="curve" smooth="yes"/>
      <point x="770" y="616" type="line" smooth="yes"/>
      <point x="920" y="560"/>
      <point x="1132" y="507"/>
      <point x="1132" y="307" type="curve" smooth="yes"/>
      <point x="1132" y="65"/>
      <point x="875" y="0"/>
      <point x="625" y="0" type="curve" smooth="yes"/>
      <point x="372" y="0"/>
      <point x="107" y="63"/>
      <point x="107" y="307" type="curve" smooth="yes"/>
      <point x="107" y="455"/>
      <point x="208" y="535"/>
      <point x="358" y="535" type="curve" smooth="yes"/>
      <point x="492" y="535"/>
      <point x="578" y="480"/>
      <point x="578" y="350" type="curve" smooth="yes"/>
      <point x="578" y="244"/>
      <point x="502" y="175"/>
      <point x="396" y="175" type="curve" smooth="no"/>
      <point x="291" y="193" type="line" smooth="no"/>
      <point x="346" y="128"/>
      <point x="460" y="96"/>
      <point x="633" y="96" type="curve" smooth="yes"/>
      <point x="826" y="96"/>
      <point x="976" y="135"/>
      <point x="976" y="303" type="curve" smooth="yes"/>
      <point x="976" y="643"/>
      <point x="98" y="572"/>
      <point x="98" y="905" type="curve" smooth="yes"/>
      <point x="98" y="1035"/>
      <point x="185" y="1104"/>
    </contour>
    <contour>
      <point x="323" y="253" type="line" smooth="yes"/>
      <point x="408" y="253"/>
      <point x="455" y="269"/>
      <point x="455" y="345" type="curve" smooth="yes"/>
      <point x="455" y="411"/>
      <point x="431" y="446"/>
      <point x="367" y="446" type="curve" smooth="yes"/>
      <point x="287" y="446"/>
      <point x="255" y="390"/>
      <point x="255" y="306" type="curve" smooth="yes"/>
      <point x="255" y="285"/>
      <point x="257" y="267"/>
      <point x="262" y="253" type="curve" smooth="no"/>
    </contour>
  </outline>
</glyph>
<glyph name="uni0EAF" format="1">
  <advance width="1299"/>
  <unicode hex="0eaf"/>
  <outline>
    <contour>
      <point x="339" y="964" type="curve" smooth="no"/>
      <point x="257" y="932"/>
      <point x="206" y="831"/>
      <point x="206" y="717" type="curve" smooth="yes"/>
      <point x="206" y="575"/>
      <point x="294" y="508"/>
      <point x="442" y="508" type="curve" smooth="yes"/>
      <point x="650" y="508"/>
      <point x="792" y="655"/>
      <point x="900" y="797" type="curve" smooth="yes"/>
      <point x="1089" y="1047" type="line" smooth="no"/>
      <point x="1257" y="963" type="line" smooth="no"/>
      <point x="680" y="-387" type="line" smooth="no"/>
      <point x="549" y="-332" type="line" smooth="no"/>
      <point x="1029" y="793" type="line" smooth="no"/>
      <point x="990" y="734" type="line" smooth="yes"/>
      <point x="883" y="571"/>
      <point x="715" y="392"/>
      <point x="458" y="392" type="curve" smooth="yes"/>
      <point x="229" y="392"/>
      <point x="49" y="477"/>
      <point x="49" y="702" type="curve" smooth="yes"/>
      <point x="49" y="933"/>
      <point x="187" y="1104"/>
      <point x="416" y="1104" type="curve" smooth="yes"/>
      <point x="564" y="1104"/>
      <point x="681" y="1033"/>
      <point x="681" y="887" type="curve" smooth="yes"/>
      <point x="681" y="757"/>
      <point x="608" y="676"/>
      <point x="478" y="676" type="curve" smooth="yes"/>
      <point x="384" y="676"/>
      <point x="304" y="730"/>
      <point x="304" y="823" type="curve" smooth="yes"/>
      <point x="304" y="865"/>
      <point x="330" y="924"/>
    </contour>
    <contour>
      <point x="405" y="854" type="line" smooth="yes"/>
      <point x="405" y="807"/>
      <point x="429" y="773"/>
      <point x="475" y="773" type="curve" smooth="yes"/>
      <point x="529" y="773"/>
      <point x="550" y="808"/>
      <point x="550" y="867" type="curve" smooth="yes"/>
      <point x="550" y="951"/>
      <point x="491" y="974"/>
      <point x="405" y="976" type="curve" smooth="no"/>
    </contour>
  </outline>
</glyph>
<glyph name="uni0EB0" format="1">
  <advance width="1181"/>
  <unicode hex="0eb0"/>
  <outline>
    <contour>
      <point x="284" y="1104" type="curve" smooth="yes"/>
      <point x="398" y="1104"/>
      <point x="475" y="1050"/>
      <point x="475" y="939" type="curve" smooth="yes"/>
      <point x="475" y="918"/>
      <point x="471" y="896"/>
      <point x="463" y="872" type="curve" smooth="yes"/>
      <point x="443" y="809" type="line" smooth="no"/>
      <point x="671" y="809" type="line" smooth="yes"/>
      <point x="887" y="809"/>
      <point x="975" y="891"/>
      <point x="978" y="1104" type="curve" smooth="no"/>
      <point x="1089" y="1104" type="line" smooth="no"/>
      <point x="1086" y="809"/>
      <point x="969" y="686"/>
      <point x="671" y="686" type="curve" smooth="yes"/>
      <point x="451" y="686" type="line" smooth="yes"/>
      <point x="246" y="686"/>
      <point x="82" y="717"/>
      <point x="82" y="916" type="curve" smooth="yes"/>
      <point x="82" y="1034"/>
      <point x="165" y="1104"/>
    </contour>
    <contour>
      <point x="389" y="875" type="line" smooth="yes"/>
      <point x="389" y="957"/>
      <point x="364" y="999"/>
      <point x="288" y="999" type="curve" smooth="yes"/>
      <point x="225" y="999"/>
      <point x="194" y="972"/>
      <point x="194" y="918" type="curve" smooth="yes"/>
      <point x="194" y="843"/>
      <point x="257" y="809"/>
      <point x="339" y="809" type="curve" smooth="yes"/>
      <point x="389" y="809" type="line" smooth="no"/>
    </contour>
    <contour>
      <point x="293" y="576" type="curve" smooth="yes"/>
      <point x="390" y="576"/>
      <point x="476" y="512"/>
      <point x="476" y="416" type="curve" smooth="yes"/>
      <point x="476" y="397"/>
      <point x="473" y="377"/>
      <point x="466" y="358" type="curve" smooth="yes"/>
      <point x="438" y="280" type="line" smooth="no"/>
      <point x="671" y="280" type="line" smooth="yes"/>
      <point x="888" y="280"/>
      <point x="976" y="361"/>
      <point x="979" y="575" type="curve" smooth="no"/>
      <point x="1088" y="575" type="line" smooth="no"/>
      <point x="1088" y="292"/>
      <point x="984" y="160"/>
      <point x="702" y="160" type="curve" smooth="yes"/>
      <point x="480" y="160" type="line" smooth="yes"/>
      <point x="276" y="160"/>
      <point x="82" y="186"/>
      <point x="82" y="381" type="curve" smooth="yes"/>
      <point x="82" y="508"/>
      <point x="162" y="576"/>
    </contour>
    <contour>
      <point x="389" y="364" type="line" smooth="yes"/>
      <point x="389" y="431"/>
      <point x="355" y="470"/>
      <point x="289" y="470" type="curve" smooth="yes"/>
      <point x="226" y="470"/>
      <point x="194" y="441"/>
      <point x="194" y="382" type="curve" smooth="yes"/>
      <point x="194" y="313"/>
      <point x="254" y="280"/>
      <point x="330" y="280" type="curve" smooth="yes"/>
      <point x="389" y="280" type="line" smooth="no"/>
    </contour>
  </outline>
</glyph>
<glyph name="uni0EB1" format="1">
  <advance width="4"/>
  <unicode hex="0eb1"/>
  <outline>
    <contour>
      <point x="-990" y="1818" type="curve" smooth="yes"/>
      <point x="-881" y="1818"/>
      <point x="-794" y="1755"/>
      <point x="-794" y="1647" type="curve" smooth="yes"/>
      <point x="-794" y="1622"/>
      <point x="-798" y="1599"/>
      <point x="-806" y="1576" type="curve" smooth="yes"/>
      <point x="-832" y="1499" type="line" smooth="no"/>
      <point x="-588" y="1499" type="line" smooth="yes"/>
      <point x="-363" y="1499"/>
      <point x="-266" y="1580"/>
      <point x="-266" y="1804" type="curve" smooth="no"/>
      <point x="-147" y="1804" type="line" smooth="no"/>
      <point x="-147" y="1468"/>
      <point x="-294" y="1372"/>
      <point x="-631" y="1372" type="curve" smooth="yes"/>
      <point x="-789" y="1372" type="line" smooth="yes"/>
      <point x="-1011" y="1372"/>
      <point x="-1217" y="1396"/>
      <point x="-1217" y="1611" type="curve" smooth="yes"/>
      <point x="-1217" y="1745"/>
      <point x="-1129" y="1818"/>
    </contour>
    <contour>
      <point x="-994" y="1703" type="curve" smooth="yes"/>
      <point x="-1057" y="1703"/>
      <point x="-1096" y="1673"/>
      <point x="-1096" y="1611" type="curve" smooth="yes"/>
      <point x="-1096" y="1532"/>
      <point x="-1033" y="1499"/>
      <point x="-948" y="1499" type="curve" smooth="yes"/>
      <point x="-886" y="1499" type="line" smooth="no"/>
      <point x="-886" y="1594" type="line" smooth="yes"/>
      <point x="-886" y="1665"/>
      <point x="-924" y="1703"/>
    </contour>
  </outline>
</glyph>
<glyph name="uni0EB2" format="1">
  <advance width="943"/>
  <unicode hex="0eb2"/>
  <outline>
    <contour>
      <point x="95" y="891" type="curve" smooth="yes"/>
      <point x="95" y="1039"/>
      <point x="277" y="1104"/>
      <point x="432" y="1104" type="curve" smooth="yes"/>
      <point x="711" y="1104"/>
      <point x="851" y="978"/>
      <point x="851" y="725" type="curve" smooth="yes"/>
      <point x="851" y="0" type="line" smooth="no"/>
      <point x="694" y="0" type="line" smooth="no"/>
      <point x="694" y="732" type="line" smooth="yes"/>
      <point x="694" y="890"/>
      <point x="640" y="984"/>
      <point x="508" y="1004" type="curve" smooth="no"/>
      <point x="516" y="954"/>
      <point x="521" y="920"/>
      <point x="525" y="869" type="curve" smooth="no"/>
      <point x="525" y="738"/>
      <point x="463" y="676"/>
      <point x="333" y="676" type="curve" smooth="yes"/>
      <point x="193" y="676"/>
      <point x="95" y="751"/>
    </contour>
    <contour>
      <point x="217" y="896" type="curve" smooth="no"/>
      <point x="217" y="820"/>
      <point x="259" y="770"/>
      <point x="335" y="770" type="curve" smooth="yes"/>
      <point x="427" y="770"/>
      <point x="436" y="818"/>
      <point x="436" y="911" type="curve" smooth="yes"/>
      <point x="436" y="1008" type="line" smooth="no"/>
      <point x="321" y="1005"/>
      <point x="222" y="991"/>
    </contour>
  </outline>
</glyph>
<glyph name="uni0EB3" format="1">
  <advance width="1773"/>
  <unicode hex="0eb3"/>
  <outline>
    <contour>
      <point x="588" y="1509" type="curve" smooth="yes"/>
      <point x="588" y="1372"/>
      <point x="483" y="1283"/>
      <point x="347" y="1280" type="curve" smooth="no"/>
      <point x="211" y="1280"/>
      <point x="107" y="1375"/>
      <point x="107" y="1511" type="curve" smooth="yes"/>
      <point x="107" y="1644"/>
      <point x="213" y="1741"/>
      <point x="347" y="1741" type="curve" smooth="yes"/>
      <point x="484" y="1741"/>
      <point x="588" y="1646"/>
    </contour>
    <contour>
      <point x="352" y="1374" type="curve" smooth="yes"/>
      <point x="432" y="1374"/>
      <point x="487" y="1429"/>
      <point x="490" y="1508" type="curve" smooth="no"/>
      <point x="490" y="1586"/>
      <point x="431" y="1645"/>
      <point x="352" y="1645" type="curve" smooth="yes"/>
      <point x="273" y="1645"/>
      <point x="211" y="1587"/>
      <point x="211" y="1508" type="curve" smooth="yes"/>
      <point x="211" y="1431"/>
      <point x="274" y="1374"/>
    </contour>
    <contour>
      <point x="860" y="962" type="curve" smooth="yes"/>
      <point x="860" y="1122"/>
      <point x="1057" y="1192"/>
      <point x="1223" y="1192" type="curve" smooth="yes"/>
      <point x="1516" y="1192"/>
      <point x="1677" y="1070"/>
      <point x="1677" y="785" type="curve" smooth="yes"/>
      <point x="1677" y="0" type="line" smooth="no"/>
      <point x="1507" y="0" type="line" smooth="no"/>
      <point x="1507" y="791" type="line" smooth="yes"/>
      <point x="1507" y="957"/>
      <point x="1446" y="1063"/>
      <point x="1306" y="1085" type="curve" smooth="no"/>
      <point x="1314" y="1030"/>
      <point x="1318" y="995"/>
      <point x="1326" y="939" type="curve" smooth="no"/>
      <point x="1326" y="801"/>
      <point x="1258" y="732"/>
      <point x="1117" y="732" type="curve" smooth="yes"/>
      <point x="965" y="732"/>
      <point x="860" y="810"/>
    </contour>
    <contour>
      <point x="992" y="968" type="curve" smooth="no"/>
      <point x="992" y="886"/>
      <point x="1038" y="833"/>
      <point x="1120" y="833" type="curve" smooth="yes"/>
      <point x="1219" y="833"/>
      <point x="1229" y="886"/>
      <point x="1229" y="986" type="curve" smooth="yes"/>
      <point x="1229" y="1091" type="line" smooth="no"/>
      <point x="1103" y="1088"/>
      <point x="997" y="1071"/>
    </contour>
  </outline>
</glyph>
<glyph name="uni0EB4" format="1">
  <advance width="4"/>
  <unicode hex="0eb4"/>
  <outline>
    <contour>
      <point x="-503" y="1482" type="line" smooth="yes"/>
      <point x="-394" y="1482"/>
      <point x="-286" y="1498"/>
      <point x="-286" y="1608" type="curve" smooth="yes"/>
      <point x="-286" y="1715"/>
      <point x="-417" y="1768"/>
      <point x="-679" y="1768" type="curve" smooth="yes"/>
      <point x="-941" y="1768"/>
      <point x="-1073" y="1714"/>
      <point x="-1073" y="1607" type="curve" smooth="yes"/>
      <point x="-1073" y="1496"/>
      <point x="-966" y="1482"/>
      <point x="-855" y="1482" type="curve" smooth="yes"/>
      <point x="-807" y="1482" type="line" smooth="no"/>
      <point x="-807" y="1377" type="line" smooth="no"/>
      <point x="-875" y="1377" type="line" smooth="yes"/>
      <point x="-1069" y="1377"/>
      <point x="-1210" y="1436"/>
      <point x="-1210" y="1614" type="curve" smooth="yes"/>
      <point x="-1210" y="1844"/>
      <point x="-911" y="1879"/>
      <point x="-679" y="1879" type="curve" smooth="yes"/>
      <point x="-434" y="1879"/>
      <point x="-147" y="1838"/>
      <point x="-147" y="1593" type="curve" smooth="yes"/>
      <point x="-147" y="1422"/>
      <point x="-316" y="1377"/>
      <point x="-507" y="1377" type="curve" smooth="yes"/>
      <point x="-550" y="1377" type="line" smooth="no"/>
      <point x="-550" y="1482" type="line" smooth="no"/>
    </contour>
  </outline>
</glyph>
<glyph name="uni0EB5" format="1">
  <advance width="0"/>
  <unicode hex="0eb5"/>
  <outline>
    <contour>
      <point x="-241" y="1418" type="curve" smooth="yes"/>
      <point x="-241" y="1361"/>
      <point x="-279" y="1326"/>
      <point x="-317" y="1302" type="curve" smooth="no"/>
      <point x="-90" y="1302" type="line" smooth="no"/>
      <point x="-90" y="1205" type="line" smooth="no"/>
      <point x="-617" y="1205" type="line" smooth="no"/>
      <point x="-617" y="1302" type="line" smooth="no"/>
      <point x="-570" y="1302" type="line" smooth="yes"/>
      <point x="-469" y="1302"/>
      <point x="-369" y="1317"/>
      <point x="-369" y="1419" type="curve" smooth="yes"/>
      <point x="-369" y="1518"/>
      <point x="-490" y="1567"/>
      <point x="-733" y="1567" type="curve" smooth="yes"/>
      <point x="-976" y="1567"/>
      <point x="-1098" y="1517"/>
      <point x="-1098" y="1418" type="curve" smooth="yes"/>
      <point x="-1098" y="1315"/>
      <point x="-999" y="1302"/>
      <point x="-896" y="1302" type="curve" smooth="yes"/>
      <point x="-852" y="1302" type="line" smooth="no"/>
      <point x="-852" y="1205" type="line" smooth="no"/>
      <point x="-915" y="1205" type="line" smooth="yes"/>
      <point x="-1095" y="1205"/>
      <point x="-1225" y="1259"/>
      <point x="-1225" y="1424" type="curve" smooth="yes"/>
      <point x="-1225" y="1637"/>
      <point x="-948" y="1670"/>
      <point x="-733" y="1670" type="curve" smooth="yes"/>
      <point x="-513" y="1670"/>
      <point x="-241" y="1636"/>
    </contour>
  </outline>
</glyph>
<glyph name="uni0EB6" format="1">
  <advance width="4"/>
  <unicode hex="0eb6"/>
  <outline>
    <contour>
      <point x="-503" y="1482" type="line" smooth="yes"/>
      <point x="-377" y="1482"/>
      <point x="-286" y="1496"/>
      <point x="-286" y="1608" type="curve" smooth="yes"/>
      <point x="-286" y="1713"/>
      <point x="-417" y="1767"/>
      <point x="-679" y="1768" type="curve" smooth="no"/>
      <point x="-943" y="1768"/>
      <point x="-1074" y="1714"/>
      <point x="-1074" y="1607" type="curve" smooth="yes"/>
      <point x="-1074" y="1495"/>
      <point x="-972" y="1482"/>
      <point x="-855" y="1482" type="curve" smooth="yes"/>
      <point x="-807" y="1482" type="line" smooth="no"/>
      <point x="-807" y="1377" type="line" smooth="no"/>
      <point x="-875" y="1377" type="line" smooth="yes"/>
      <point x="-1069" y="1377"/>
      <point x="-1210" y="1436"/>
      <point x="-1210" y="1614" type="curve" smooth="yes"/>
      <point x="-1210" y="1841"/>
      <point x="-908" y="1879"/>
      <point x="-679" y="1879" type="curve" smooth="yes"/>
      <point x="-435" y="1879"/>
      <point x="-147" y="1847"/>
      <point x="-147" y="1607" type="curve" smooth="yes"/>
      <point x="-147" y="1426"/>
      <point x="-308" y="1377"/>
      <point x="-507" y="1377" type="curve" smooth="yes"/>
      <point x="-550" y="1377" type="line" smooth="no"/>
      <point x="-550" y="1482" type="line" smooth="no"/>
    </contour>
    <contour>
      <point x="-674" y="1661" type="curve" smooth="yes"/>
      <point x="-626" y="1661"/>
      <point x="-578" y="1635"/>
      <point x="-578" y="1587" type="curve" smooth="yes"/>
      <point x="-578" y="1536"/>
      <point x="-619" y="1506"/>
      <point x="-674" y="1506" type="curve" smooth="yes"/>
      <point x="-725" y="1506"/>
      <point x="-771" y="1536"/>
      <point x="-771" y="1587" type="curve" smooth="yes"/>
      <point x="-771" y="1632"/>
      <point x="-724" y="1661"/>
    </contour>
  </outline>
</glyph>
<glyph name="uni0EB7" format="1">
  <advance width="0"/>
  <unicode hex="0eb7"/>
  <outline>
    <contour>
      <point x="-241" y="1418" type="curve" smooth="yes"/>
      <point x="-241" y="1361"/>
      <point x="-277" y="1326"/>
      <point x="-317" y="1302" type="curve" smooth="no"/>
      <point x="-90" y="1302" type="line" smooth="no"/>
      <point x="-90" y="1205" type="line" smooth="no"/>
      <point x="-617" y="1205" type="line" smooth="no"/>
      <point x="-617" y="1302" type="line" smooth="no"/>
      <point x="-570" y="1302" type="line" smooth="yes"/>
      <point x="-453" y="1302"/>
      <point x="-369" y="1315"/>
      <point x="-369" y="1419" type="curve" smooth="yes"/>
      <point x="-369" y="1518"/>
      <point x="-490" y="1567"/>
      <point x="-733" y="1567" type="curve" smooth="yes"/>
      <point x="-977" y="1567"/>
      <point x="-1099" y="1517"/>
      <point x="-1099" y="1418" type="curve" smooth="yes"/>
      <point x="-1099" y="1314"/>
      <point x="-1004" y="1302"/>
      <point x="-896" y="1302" type="curve" smooth="yes"/>
      <point x="-852" y="1302" type="line" smooth="no"/>
      <point x="-852" y="1205" type="line" smooth="no"/>
      <point x="-915" y="1205" type="line" smooth="yes"/>
      <point x="-1095" y="1205"/>
      <point x="-1225" y="1259"/>
      <point x="-1225" y="1424" type="curve" smooth="yes"/>
      <point x="-1225" y="1644"/>
      <point x="-956" y="1670"/>
      <point x="-733" y="1670" type="curve" smooth="yes"/>
      <point x="-507" y="1670"/>
      <point x="-241" y="1640"/>
    </contour>
    <contour>
      <point x="-739" y="1468" type="curve" smooth="yes"/>
      <point x="-694" y="1468"/>
      <point x="-649" y="1443"/>
      <point x="-649" y="1399" type="curve" smooth="yes"/>
      <point x="-650" y="1352"/>
      <point x="-688" y="1324"/>
      <point x="-739" y="1324" type="curve" smooth="yes"/>
      <point x="-786" y="1324"/>
      <point x="-828" y="1352"/>
      <point x="-828" y="1399" type="curve" smooth="yes"/>
      <point x="-828" y="1441"/>
      <point x="-786" y="1468"/>
    </contour>
  </outline>
</glyph>
<glyph name="uni0EB8" format="1">
  <advance width="0"/>
  <unicode hex="0eb8"/>
  <outline>
    <contour>
      <point x="-303" y="-86" type="curve" smooth="no"/>
      <point x="-195" y="-88"/>
      <point x="-90" y="-131"/>
      <point x="-90" y="-233" type="curve" smooth="yes"/>
      <point x="-90" y="-289"/>
      <point x="-114" y="-382"/>
      <point x="-172" y="-440" type="curve" smooth="no"/>
      <point x="-213" y="-494"/>
      <point x="-255" y="-540"/>
      <point x="-299" y="-578" type="curve" smooth="no"/>
      <point x="-324" y="-598" type="line" smooth="no"/>
      <point x="-390" y="-538" type="line" smooth="no"/>
      <point x="-337" y="-478" type="line" smooth="yes"/>
      <point x="-304" y="-440"/>
      <point x="-277" y="-402"/>
      <point x="-256" y="-365" type="curve" smooth="no"/>
      <point x="-329" y="-381" type="line" smooth="yes"/>
      <point x="-341.091" y="-383.673"/>
      <point x="-352.842" y="-384.952"/>
      <point x="-364.143" y="-384.952" type="curve" smooth="yes"/>
      <point x="-441.638" y="-384.952"/>
      <point x="-498" y="-324.782"/>
      <point x="-498" y="-241" type="curve" smooth="yes"/>
      <point x="-498" y="-138"/>
      <point x="-419" y="-86"/>
    </contour>
    <contour>
      <point x="-228" y="-312" type="line" smooth="no"/>
      <point x="-215" y="-282"/>
      <point x="-208" y="-257"/>
      <point x="-207" y="-236" type="curve" smooth="no"/>
      <point x="-212" y="-187"/>
      <point x="-245" y="-162"/>
      <point x="-306" y="-161" type="curve" smooth="no"/>
      <point x="-367" y="-163"/>
      <point x="-398" y="-190"/>
      <point x="-399" y="-241" type="curve" smooth="no"/>
      <point x="-397.04" y="-288.04"/>
      <point x="-365.308" y="-312.03"/>
      <point x="-302.863" y="-312.03" type="curve" smooth="yes"/>
      <point x="-301.588" y="-312.03"/>
      <point x="-300.301" y="-312.02"/>
      <point x="-299" y="-312" type="curve" smooth="yes"/>
    </contour>
  </outline>
</glyph>
<glyph name="uni0EB9" format="1">
  <advance width="0"/>
  <unicode hex="0eb9"/>
  <outline>
    <contour>
      <point x="-289" y="-550" type="curve" smooth="yes"/>
      <point x="-199.835" y="-550"/>
      <point x="-197.997" y="-503.119"/>
      <point x="-197.997" y="-416.409" type="curve" smooth="yes"/>
      <point x="-197.997" y="-412.679"/>
      <point x="-198" y="-408.876"/>
      <point x="-198" y="-405" type="curve" smooth="yes"/>
      <point x="-198" y="-140" type="line" smooth="no"/>
      <point x="-82" y="-140" type="line" smooth="no"/>
      <point x="-82" y="-394" type="line" smooth="yes"/>
      <point x="-82" y="-556"/>
      <point x="-126" y="-649"/>
      <point x="-286" y="-649" type="curve" smooth="yes"/>
      <point x="-405" y="-649"/>
      <point x="-493" y="-615"/>
      <point x="-493" y="-506" type="curve" smooth="yes"/>
      <point x="-493" y="-496"/>
      <point x="-492" y="-485"/>
      <point x="-489" y="-472" type="curve" smooth="yes"/>
      <point x="-484" y="-448" type="line" smooth="no"/>
      <point x="-505" y="-461"/>
      <point x="-532" y="-468"/>
      <point x="-565" y="-468" type="curve" smooth="yes"/>
      <point x="-671" y="-468"/>
      <point x="-749" y="-413"/>
      <point x="-749" y="-308" type="curve" smooth="yes"/>
      <point x="-749" y="-202"/>
      <point x="-668" y="-140"/>
      <point x="-560" y="-140" type="curve" smooth="yes"/>
      <point x="-445" y="-140"/>
      <point x="-359" y="-203"/>
      <point x="-359" y="-318" type="curve" smooth="yes"/>
      <point x="-359" y="-368"/>
      <point x="-391" y="-418"/>
      <point x="-391" y="-471" type="curve" smooth="yes"/>
      <point x="-391" y="-528"/>
      <point x="-350" y="-550"/>
    </contour>
    <contour>
      <point x="-655" y="-305" type="curve" smooth="yes"/>
      <point x="-655" y="-372"/>
      <point x="-605" y="-389"/>
      <point x="-535" y="-389" type="curve" smooth="yes"/>
      <point x="-515" y="-389"/>
      <point x="-494" y="-386"/>
      <point x="-473" y="-381" type="curve" smooth="no"/>
      <point x="-474" y="-324" type="line" smooth="yes"/>
      <point x="-475" y="-264"/>
      <point x="-501" y="-231"/>
      <point x="-560" y="-231" type="curve" smooth="yes"/>
      <point x="-615" y="-231"/>
      <point x="-655" y="-253"/>
    </contour>
  </outline>
</glyph>
<glyph name="uni0EBB" format="1">
  <advance width="5"/>
  <unicode hex="0ebb"/>
  <outline>
    <contour>
      <point x="-959" y="1323" type="curve" smooth="yes"/>
      <point x="-1096" y="1323"/>
      <point x="-1186" y="1397"/>
      <point x="-1186" y="1534" type="curve" smooth="yes"/>
      <point x="-1186" y="1748"/>
      <point x="-972" y="1769"/>
      <point x="-751" y="1769" type="curve" smooth="yes"/>
      <point x="-599" y="1769" type="line" smooth="yes"/>
      <point x="-264" y="1769"/>
      <point x="-148" y="1658"/>
      <point x="-148" y="1323" type="curve" smooth="no"/>
      <point x="-266" y="1323" type="line" smooth="no"/>
      <point x="-266" y="1558"/>
      <point x="-346" y="1644"/>
      <point x="-581" y="1644" type="curve" smooth="yes"/>
      <point x="-802" y="1644" type="line" smooth="no"/>
      <point x="-776" y="1572" type="line" smooth="yes"/>
      <point x="-766" y="1544"/>
      <point x="-761" y="1519"/>
      <point x="-761" y="1496" type="curve" smooth="yes"/>
      <point x="-761" y="1388"/>
      <point x="-850" y="1323"/>
    </contour>
    <contour>
      <point x="-910" y="1644" type="line" smooth="yes"/>
      <point x="-1000" y="1644"/>
      <point x="-1063" y="1613"/>
      <point x="-1066" y="1533" type="curve" smooth="no"/>
      <point x="-1064" y="1471"/>
      <point x="-1030" y="1438"/>
      <point x="-966" y="1437" type="curve" smooth="no"/>
      <point x="-898" y="1437"/>
      <point x="-861" y="1472"/>
      <point x="-856" y="1540" type="curve" smooth="no"/>
      <point x="-856" y="1644" type="line" smooth="no"/>
    </contour>
  </outline>
</glyph>
<glyph name="uni0EBC" format="1">
  <advance width="0"/>
  <unicode hex="0ebc"/>
  <outline>
    <contour>
      <point x="-687" y="-296" type="curve" smooth="yes"/>
      <point x="-687" y="-380"/>
      <point x="-745" y="-438"/>
      <point x="-832" y="-438" type="curve" smooth="yes"/>
      <point x="-940" y="-438"/>
      <point x="-1008" y="-373"/>
      <point x="-1008" y="-264" type="curve" smooth="yes"/>
      <point x="-1008" y="-136"/>
      <point x="-879" y="-88"/>
      <point x="-747" y="-88" type="curve" smooth="yes"/>
      <point x="-633" y="-88"/>
      <point x="-547" y="-140"/>
      <point x="-479" y="-204" type="curve" smooth="yes"/>
      <point x="-416" y="-263" type="line" smooth="yes"/>
      <point x="-379" y="-298"/>
      <point x="-347" y="-342"/>
      <point x="-306" y="-342" type="curve" smooth="yes"/>
      <point x="-237.898" y="-342"/>
      <point x="-228.782" y="-260.492"/>
      <point x="-228.782" y="-176.796" type="curve" smooth="yes"/>
      <point x="-228.782" y="-146.198"/>
      <point x="-230" y="-115.307"/>
      <point x="-230" y="-88" type="curve" smooth="no"/>
      <point x="-116" y="-88" type="line" smooth="no"/>
      <point x="-116" y="-274"/>
      <point x="-126" y="-440"/>
      <point x="-305" y="-440" type="curve" smooth="yes"/>
      <point x="-398" y="-440"/>
      <point x="-468" y="-391"/>
      <point x="-529" y="-339" type="curve" smooth="yes"/>
      <point x="-617" y="-263" type="line" smooth="no"/>
      <point x="-644" y="-236"/>
      <point x="-672" y="-213"/>
      <point x="-703" y="-199" type="curve" smooth="no"/>
      <point x="-695" y="-232" type="line" smooth="yes"/>
      <point x="-690" y="-252"/>
      <point x="-687" y="-273"/>
    </contour>
    <contour>
      <point x="-901" y="-265" type="curve" smooth="yes"/>
      <point x="-901" y="-309"/>
      <point x="-883" y="-340"/>
      <point x="-840" y="-340" type="curve" smooth="yes"/>
      <point x="-766" y="-340"/>
      <point x="-749" y="-303"/>
      <point x="-749" y="-229" type="curve" smooth="yes"/>
      <point x="-749" y="-190" type="line" smooth="no"/>
      <point x="-850" y="-192"/>
      <point x="-901" y="-217"/>
    </contour>
  </outline>
</glyph>
<glyph name="uni0EBD" format="1">
  <advance width="1137"/>
  <unicode hex="0ebd"/>
  <outline>
    <contour>
      <point x="517" y="-279" type="curve" smooth="yes"/>
      <point x="751" y="-279"/>
      <point x="824" y="-177"/>
      <point x="824" y="58" type="curve" smooth="yes"/>
      <point x="824" y="349" type="line" smooth="yes"/>
      <point x="824" y="520"/>
      <point x="764" y="620"/>
      <point x="655" y="684" type="curve" smooth="no"/>
      <point x="348" y="833" type="line" smooth="yes"/>
      <point x="247" y="883"/>
      <point x="165" y="927"/>
      <point x="165" y="1071" type="curve" smooth="yes"/>
      <point x="165" y="1220"/>
      <point x="266" y="1304"/>
      <point x="416" y="1304" type="curve" smooth="yes"/>
      <point x="491" y="1304"/>
      <point x="791" y="1118"/>
      <point x="906" y="1118" type="curve" smooth="yes"/>
      <point x="930" y="1118"/>
      <point x="948" y="1140"/>
      <point x="961" y="1185" type="curve" smooth="yes"/>
      <point x="998" y="1314" type="line" smooth="no"/>
      <point x="1103" y="1314" type="line" smooth="no"/>
      <point x="1056" y="1152" type="line" smooth="yes"/>
      <point x="1035" y="1077"/>
      <point x="1011" y="1007"/>
      <point x="937" y="1007" type="curve" smooth="yes"/>
      <point x="774" y="1007"/>
      <point x="610" y="1129"/>
      <point x="468" y="1176" type="curve" smooth="yes"/>
      <point x="446" y="1183"/>
      <point x="429" y="1187"/>
      <point x="416" y="1187" type="curve" smooth="yes"/>
      <point x="343" y="1187"/>
      <point x="307" y="1145"/>
      <point x="307" y="1069" type="curve" smooth="yes"/>
      <point x="307" y="990"/>
      <point x="361" y="960"/>
      <point x="424" y="930" type="curve" smooth="yes"/>
      <point x="724" y="784" type="line" smooth="yes"/>
      <point x="893" y="701"/>
      <point x="982" y="598"/>
      <point x="982" y="348" type="curve" smooth="yes"/>
      <point x="982" y="85" type="line" smooth="yes"/>
      <point x="982" y="-241"/>
      <point x="842" y="-378"/>
      <point x="516" y="-378" type="curve" smooth="yes"/>
      <point x="246" y="-378"/>
      <point x="95" y="-261"/>
      <point x="95" y="2" type="curve" smooth="yes"/>
      <point x="95" y="216"/>
      <point x="147" y="365"/>
      <point x="339" y="365" type="curve" smooth="yes"/>
      <point x="471" y="365"/>
      <point x="554" y="312"/>
      <point x="554" y="183" type="curve" smooth="yes"/>
      <point x="554" y="64"/>
      <point x="483" y="5"/>
      <point x="340" y="5" type="curve" smooth="yes"/>
      <point x="311" y="5"/>
      <point x="287" y="9"/>
      <point x="253" y="13" type="curve" smooth="no"/>
      <point x="253" y="0" type="line" smooth="yes"/>
      <point x="253" y="-193"/>
      <point x="324" y="-279"/>
    </contour>
    <contour>
      <point x="432" y="183" type="curve" smooth="yes"/>
      <point x="432" y="246"/>
      <point x="407" y="283"/>
      <point x="348" y="284" type="curve" smooth="no"/>
      <point x="264" y="284"/>
      <point x="253" y="207"/>
      <point x="253" y="112" type="curve" smooth="yes"/>
      <point x="253" y="79" type="line" smooth="no"/>
      <point x="299" y="79" type="line" smooth="yes"/>
      <point x="386" y="79"/>
      <point x="432" y="97"/>
    </contour>
  </outline>
</glyph>
<glyph name="uni0EC0" format="1">
  <advance width="650"/>
  <unicode hex="0ec0"/>
  <outline>
    <contour>
      <point x="398" y="1104" type="curve" smooth="yes"/>
      <point x="451" y="1104"/>
      <point x="501" y="1097"/>
      <point x="543" y="1083" type="curve" smooth="no"/>
      <point x="543" y="987" type="line" smooth="no"/>
      <point x="482" y="998"/>
      <point x="441" y="1003"/>
      <point x="421" y="1003" type="curve" smooth="yes"/>
      <point x="277" y="1003"/>
      <point x="275" y="844"/>
      <point x="275" y="693" type="curve" smooth="yes"/>
      <point x="275" y="338" type="line" smooth="no"/>
      <point x="326" y="354"/>
      <point x="370" y="362"/>
      <point x="408" y="362" type="curve" smooth="yes"/>
      <point x="510" y="362"/>
      <point x="579" y="291"/>
      <point x="579" y="188" type="curve" smooth="yes"/>
      <point x="579" y="59"/>
      <point x="499" y="0"/>
      <point x="365" y="0" type="curve" smooth="yes"/>
      <point x="189" y="0"/>
      <point x="116" y="121"/>
      <point x="116" y="307" type="curve" smooth="yes"/>
      <point x="116" y="615" type="line" smooth="yes"/>
      <point x="116" y="872"/>
      <point x="140" y="1104"/>
    </contour>
    <contour>
      <point x="455" y="187" type="curve" smooth="no"/>
      <point x="455" y="265"/>
      <point x="411" y="278"/>
      <point x="328" y="278" type="curve" smooth="yes"/>
      <point x="275" y="278" type="line" smooth="no"/>
      <point x="275" y="232" type="line" smooth="yes"/>
      <point x="275" y="139"/>
      <point x="306" y="93"/>
      <point x="368" y="93" type="curve" smooth="yes"/>
      <point x="425" y="93"/>
      <point x="454" y="124"/>
    </contour>
  </outline>
</glyph>
<glyph name="uni0EC2" format="1">
  <advance width="779"/>
  <unicode hex="0ec2"/>
  <outline>
    <contour>
      <point x="464" y="0" type="curve" smooth="yes"/>
      <point x="268" y="0"/>
      <point x="219" y="143"/>
      <point x="219" y="356" type="curve" smooth="yes"/>
      <point x="219" y="874" type="line" smooth="yes"/>
      <point x="219" y="1094"/>
      <point x="158" y="1180"/>
      <point x="34" y="1276" type="curve" smooth="yes"/>
      <point x="-134" y="1405" type="line" smooth="yes"/>
      <point x="-177" y="1437"/>
      <point x="-201" y="1479"/>
      <point x="-201" y="1543" type="curve" smooth="yes"/>
      <point x="-201" y="1663"/>
      <point x="-116" y="1746"/>
      <point x="5" y="1746" type="curve" smooth="yes"/>
      <point x="109" y="1746"/>
      <point x="183" y="1688"/>
      <point x="249" y="1646" type="curve" smooth="yes"/>
      <point x="656" y="1390" type="line" smooth="no"/>
      <point x="588" y="1282" type="line" smooth="no"/>
      <point x="180" y="1542" type="line" smooth="yes"/>
      <point x="119" y="1581"/>
      <point x="72" y="1619"/>
      <point x="9" y="1619" type="curve" smooth="yes"/>
      <point x="-33" y="1619"/>
      <point x="-56" y="1592"/>
      <point x="-56" y="1549" type="curve" smooth="yes"/>
      <point x="-56" y="1514"/>
      <point x="-24" y="1485"/>
      <point x="2" y="1465" type="curve" smooth="yes"/>
      <point x="173" y="1327" type="line" smooth="yes"/>
      <point x="313" y="1214"/>
      <point x="377" y="1124"/>
      <point x="377" y="871" type="curve" smooth="yes"/>
      <point x="377" y="339" type="line" smooth="no"/>
      <point x="413" y="351"/>
      <point x="447" y="367"/>
      <point x="486" y="367" type="curve" smooth="yes"/>
      <point x="598" y="367"/>
      <point x="690" y="302"/>
      <point x="690" y="191" type="curve" smooth="yes"/>
      <point x="690" y="64"/>
      <point x="615" y="0"/>
    </contour>
    <contour>
      <point x="472" y="94" type="curve" smooth="yes"/>
      <point x="533" y="94"/>
      <point x="560" y="128"/>
      <point x="560" y="191" type="curve" smooth="yes"/>
      <point x="560" y="262"/>
      <point x="511" y="283"/>
      <point x="436" y="283" type="curve" smooth="yes"/>
      <point x="377" y="283" type="line" smooth="no"/>
      <point x="377" y="232" type="line" smooth="yes"/>
      <point x="377" y="150"/>
      <point x="398" y="94"/>
    </contour>
  </outline>
</glyph>
<glyph name="uni0EC3" format="1">
  <advance width="890"/>
  <unicode hex="0ec3"/>
  <outline>
    <contour>
      <point x="373" y="1788" type="curve" smooth="yes"/>
      <point x="199" y="1788"/>
      <point x="102" y="1713"/>
      <point x="102" y="1542" type="curve" smooth="yes"/>
      <point x="102" y="1425"/>
      <point x="153" y="1367"/>
      <point x="253" y="1367" type="curve" smooth="yes"/>
      <point x="332" y="1367"/>
      <point x="386" y="1398"/>
      <point x="386" y="1475" type="curve" smooth="yes"/>
      <point x="386" y="1519"/>
      <point x="367" y="1563"/>
      <point x="337" y="1601" type="curve" smooth="no"/>
      <point x="473" y="1601" type="line" smooth="no"/>
      <point x="497" y="1569"/>
      <point x="515" y="1528"/>
      <point x="515" y="1474" type="curve" smooth="yes"/>
      <point x="515" y="1331"/>
      <point x="400" y="1258"/>
      <point x="255" y="1258" type="curve" smooth="yes"/>
      <point x="84" y="1258"/>
      <point x="-37" y="1368"/>
      <point x="-37" y="1539" type="curve" smooth="yes"/>
      <point x="-37" y="1785"/>
      <point x="129" y="1914"/>
      <point x="376" y="1914" type="curve" smooth="yes"/>
      <point x="656" y="1914"/>
      <point x="835" y="1779"/>
      <point x="835" y="1500" type="curve" smooth="yes"/>
      <point x="835" y="1330"/>
      <point x="744" y="1176"/>
      <point x="559" y="1039" type="curve" smooth="yes"/>
      <point x="449" y="957"/>
      <point x="387" y="929"/>
      <point x="387" y="746" type="curve" smooth="yes"/>
      <point x="387" y="366" type="line" smooth="no"/>
      <point x="425" y="379"/>
      <point x="461" y="396"/>
      <point x="502" y="396" type="curve" smooth="yes"/>
      <point x="625" y="396"/>
      <point x="726" y="328"/>
      <point x="726" y="206" type="curve" smooth="yes"/>
      <point x="726" y="61"/>
      <point x="634" y="0"/>
      <point x="484" y="0" type="curve" smooth="yes"/>
      <point x="278" y="0"/>
      <point x="214" y="146"/>
      <point x="214" y="366" type="curve" smooth="yes"/>
      <point x="214" y="697" type="line" smooth="yes"/>
      <point x="214" y="925"/>
      <point x="265" y="1018"/>
      <point x="399" y="1108" type="curve" smooth="yes"/>
      <point x="498" y="1175" type="line" smooth="yes"/>
      <point x="609" y="1251"/>
      <point x="684" y="1329"/>
      <point x="684" y="1509" type="curve" smooth="yes"/>
      <point x="684" y="1696"/>
      <point x="580" y="1788"/>
    </contour>
    <contour>
      <point x="483" y="102" type="curve" smooth="yes"/>
      <point x="553" y="102"/>
      <point x="582" y="140"/>
      <point x="582" y="213" type="curve" smooth="yes"/>
      <point x="582" y="280"/>
      <point x="534" y="306"/>
      <point x="462" y="306" type="curve" smooth="yes"/>
      <point x="387" y="306" type="line" smooth="no"/>
      <point x="387" y="252" type="line" smooth="yes"/>
      <point x="387" y="166"/>
      <point x="406" y="102"/>
    </contour>
  </outline>
</glyph>
<glyph name="uni0EC4" format="1">
  <advance width="830"/>
  <unicode hex="0ec4"/>
  <outline>
    <contour>
      <point x="456" y="396" type="curve" smooth="yes"/>
      <point x="583" y="396"/>
      <point x="684" y="332"/>
      <point x="684" y="206" type="curve" smooth="yes"/>
      <point x="684" y="69"/>
      <point x="603" y="0"/>
      <point x="442" y="0" type="curve" smooth="yes"/>
      <point x="264" y="1"/>
      <point x="174" y="123"/>
      <point x="174" y="364" type="curve" smooth="yes"/>
      <point x="174" y="989" type="line" smooth="yes"/>
      <point x="174" y="1258"/>
      <point x="291" y="1364"/>
      <point x="450" y="1482" type="curve" smooth="no"/>
      <point x="528" y="1540" type="line" smooth="yes"/>
      <point x="579" y="1578"/>
      <point x="641" y="1604"/>
      <point x="647" y="1672" type="curve" smooth="no"/>
      <point x="646" y="1712"/>
      <point x="622" y="1735"/>
      <point x="574" y="1740" type="curve" smooth="no"/>
      <point x="474" y="1736"/>
      <point x="349" y="1619"/>
      <point x="287" y="1581" type="curve" smooth="yes"/>
      <point x="208" y="1532"/>
      <point x="140" y="1480"/>
      <point x="34" y="1480" type="curve" smooth="yes"/>
      <point x="-93" y="1480"/>
      <point x="-177" y="1538"/>
      <point x="-177" y="1665" type="curve" smooth="yes"/>
      <point x="-177" y="1866" type="line" smooth="no"/>
      <point x="-38" y="1866" type="line" smooth="no"/>
      <point x="-38" y="1662" type="line" smooth="yes"/>
      <point x="-38" y="1626"/>
      <point x="-12" y="1603"/>
      <point x="27" y="1603" type="curve" smooth="yes"/>
      <point x="87" y="1603"/>
      <point x="145" y="1643"/>
      <point x="198" y="1676" type="curve" smooth="yes"/>
      <point x="297" y="1739" type="line" smooth="no"/>
      <point x="433" y="1823"/>
      <point x="426" y="1867"/>
      <point x="580" y="1867" type="curve" smooth="yes"/>
      <point x="707" y="1867"/>
      <point x="796" y="1801"/>
      <point x="796" y="1674" type="curve" smooth="yes"/>
      <point x="796" y="1481"/>
      <point x="479" y="1364"/>
      <point x="398" y="1231" type="curve" smooth="yes"/>
      <point x="358" y="1164"/>
      <point x="345" y="1095"/>
      <point x="345" y="989" type="curve" smooth="yes"/>
      <point x="345" y="366" type="line" smooth="no"/>
      <point x="386" y="380"/>
      <point x="420" y="396"/>
    </contour>
    <contour>
      <point x="451" y="103" type="curve" smooth="no"/>
      <point x="513" y="106"/>
      <point x="543" y="139"/>
      <point x="543" y="206" type="curve" smooth="yes"/>
      <point x="543" y="272"/>
      <point x="505" y="306"/>
      <point x="428" y="306" type="curve" smooth="yes"/>
      <point x="345" y="306" type="line" smooth="no"/>
      <point x="345" y="247" type="line" smooth="yes"/>
      <point x="345" y="155"/>
      <point x="370" y="107"/>
    </contour>
  </outline>
</glyph>
<glyph name="uni0EC6" format="1">
  <advance width="1406"/>
  <unicode hex="0ec6"/>
  <outline>
    <contour>
      <point x="984" y="1192" type="curve" smooth="yes"/>
      <point x="1225" y="1192"/>
      <point x="1292" y="989"/>
      <point x="1292" y="718" type="curve" smooth="yes"/>
      <point x="1292" y="294" type="line" smooth="yes"/>
      <point x="1292" y="-123"/>
      <point x="1176" y="-393"/>
      <point x="766" y="-393" type="curve" smooth="yes"/>
      <point x="564" y="-393"/>
      <point x="408" y="-326"/>
      <point x="301" y="-193" type="curve" smooth="no"/>
      <point x="353" y="-148" type="line" smooth="no"/>
      <point x="470" y="-220"/>
      <point x="595" y="-274"/>
      <point x="766" y="-274" type="curve" smooth="yes"/>
      <point x="1073" y="-274"/>
      <point x="1123" y="-22"/>
      <point x="1123" y="292" type="curve" smooth="yes"/>
      <point x="1123" y="793" type="line" smooth="yes"/>
      <point x="1123" y="988"/>
      <point x="1073" y="1086"/>
      <point x="970" y="1086" type="curve" smooth="yes"/>
      <point x="816" y="1086"/>
      <point x="804" y="896"/>
      <point x="674" y="896" type="curve" smooth="yes"/>
      <point x="548" y="896"/>
      <point x="510" y="1086"/>
      <point x="365" y="1086" type="curve" smooth="yes"/>
      <point x="284" y="1086"/>
      <point x="244" y="1005"/>
      <point x="244" y="842" type="curve" smooth="yes"/>
      <point x="244" y="801" type="line" smooth="no"/>
      <point x="276" y="816"/>
      <point x="312" y="833"/>
      <point x="351" y="833" type="curve" smooth="yes"/>
      <point x="482" y="833"/>
      <point x="580" y="770"/>
      <point x="580" y="640" type="curve" smooth="yes"/>
      <point x="580" y="499"/>
      <point x="491" y="437"/>
      <point x="344" y="437" type="curve" smooth="yes"/>
      <point x="149" y="437"/>
      <point x="73" y="577"/>
      <point x="73" y="789" type="curve" smooth="yes"/>
      <point x="73" y="1013"/>
      <point x="147" y="1192"/>
      <point x="366" y="1192" type="curve" smooth="yes"/>
      <point x="513" y="1192"/>
      <point x="610" y="1108"/>
      <point x="672" y="1022" type="curve" smooth="no"/>
      <point x="738" y="1104"/>
      <point x="838" y="1192"/>
    </contour>
    <contour>
      <point x="440" y="630" type="curve" smooth="yes"/>
      <point x="440" y="633"/>
      <point x="439" y="634"/>
      <point x="439" y="637" type="curve" smooth="yes"/>
      <point x="439" y="728"/>
      <point x="385" y="741"/>
      <point x="294" y="741" type="curve" smooth="yes"/>
      <point x="244" y="741" type="line" smooth="no"/>
      <point x="244" y="689" type="line" smooth="yes"/>
      <point x="244" y="599"/>
      <point x="263" y="541"/>
      <point x="347" y="538" type="curve" smooth="no"/>
      <point x="405" y="539"/>
      <point x="440" y="570"/>
    </contour>
  </outline>
</glyph>
<glyph name="uni0EC8" format="1">
  <advance width="17"/>
  <unicode hex="0ec8"/>
  <outline>
    <contour>
      <point x="-600" y="1461" type="line" smooth="no"/>
      <point x="-600" y="1904" type="line" smooth="no"/>
      <point x="-451" y="1904" type="line" smooth="no"/>
      <point x="-451" y="1461" type="line" smooth="no"/>
    </contour>
  </outline>
</glyph>
<glyph name="uni0EC9" format="1">
  <advance width="0"/>
  <unicode hex="0ec9"/>
  <outline>
    <contour>
      <point x="-170" y="1631" type="line" smooth="yes"/>
      <point x="-170" y="1352"/>
      <point x="-340" y="1270"/>
      <point x="-622" y="1270" type="curve" smooth="yes"/>
      <point x="-1118" y="1270" type="line" smooth="no"/>
      <point x="-1118" y="1355" type="line" smooth="no"/>
      <point x="-1064" y="1355"/>
      <point x="-1004" y="1376"/>
      <point x="-946" y="1386" type="curve" smooth="no"/>
      <point x="-924" y="1450" type="line" smooth="no"/>
      <point x="-929" y="1449"/>
      <point x="-935" y="1449"/>
      <point x="-940" y="1449" type="curve" smooth="yes"/>
      <point x="-964" y="1449" type="line" smooth="yes"/>
      <point x="-1086" y="1449"/>
      <point x="-1174" y="1493"/>
      <point x="-1174" y="1608" type="curve" smooth="yes"/>
      <point x="-1174" y="1717"/>
      <point x="-1098" y="1778"/>
      <point x="-985" y="1778" type="curve" smooth="yes"/>
      <point x="-865" y="1778"/>
      <point x="-785" y="1716"/>
      <point x="-785" y="1596" type="curve" smooth="yes"/>
      <point x="-785" y="1528"/>
      <point x="-818" y="1457"/>
      <point x="-849" y="1404" type="curve" smooth="no"/>
      <point x="-859" y="1384" type="line" smooth="no"/>
      <point x="-613" y="1384" type="line" smooth="yes"/>
      <point x="-423" y="1384"/>
      <point x="-296" y="1424"/>
      <point x="-296" y="1609" type="curve" smooth="yes"/>
      <point x="-296" y="1713" type="line" smooth="no"/>
      <point x="-170" y="1713" type="line" smooth="no"/>
    </contour>
    <contour>
      <point x="-898" y="1576" type="line" smooth="yes"/>
      <point x="-898" y="1647"/>
      <point x="-907" y="1687"/>
      <point x="-978" y="1687" type="curve" smooth="yes"/>
      <point x="-1046" y="1687"/>
      <point x="-1080" y="1663"/>
      <point x="-1080" y="1615" type="curve" smooth="yes"/>
      <point x="-1080" y="1539"/>
      <point x="-987" y="1526"/>
      <point x="-898" y="1525" type="curve" smooth="no"/>
    </contour>
  </outline>
</glyph>
<glyph name="uni0ECA" format="1">
  <advance width="13"/>
  <unicode hex="0eca"/>
  <outline>
    <contour>
      <point x="-1177" y="1644" type="curve" smooth="yes"/>
      <point x="-1177" y="1751"/>
      <point x="-1105" y="1820"/>
      <point x="-997" y="1820" type="curve" smooth="yes"/>
      <point x="-901" y="1820"/>
      <point x="-842" y="1776"/>
      <point x="-818" y="1708" type="curve" smooth="no"/>
      <point x="-794" y="1772"/>
      <point x="-740" y="1820"/>
      <point x="-649" y="1820" type="curve" smooth="yes"/>
      <point x="-536" y="1820"/>
      <point x="-459" y="1754"/>
      <point x="-459" y="1642" type="curve" smooth="yes"/>
      <point x="-459" y="1571"/>
      <point x="-492" y="1530"/>
      <point x="-549" y="1515" type="curve" smooth="no"/>
      <point x="-346" y="1515" type="line" smooth="no"/>
      <point x="-346" y="1432" type="line" smooth="no"/>
      <point x="-723" y="1432" type="line" smooth="no"/>
      <point x="-723" y="1515" type="line" smooth="no"/>
      <point x="-633" y="1515"/>
      <point x="-563" y="1545"/>
      <point x="-563" y="1635" type="curve" smooth="yes"/>
      <point x="-563" y="1701"/>
      <point x="-594" y="1734"/>
      <point x="-656" y="1734" type="curve" smooth="yes"/>
      <point x="-722" y="1734"/>
      <point x="-764" y="1684"/>
      <point x="-764" y="1617" type="curve" smooth="no"/>
      <point x="-870" y="1617" type="line" smooth="no"/>
      <point x="-870" y="1685"/>
      <point x="-916" y="1734"/>
      <point x="-982" y="1734" type="curve" smooth="yes"/>
      <point x="-1035" y="1734"/>
      <point x="-1070" y="1697"/>
      <point x="-1070" y="1642" type="curve" smooth="yes"/>
      <point x="-1070" y="1548"/>
      <point x="-1027" y="1515"/>
      <point x="-925" y="1515" type="curve" smooth="no"/>
      <point x="-925" y="1433" type="line" smooth="no"/>
      <point x="-1073" y="1433"/>
      <point x="-1177" y="1496"/>
    </contour>
  </outline>
</glyph>
<glyph name="uni0ECB" format="1">
  <advance width="28"/>
  <unicode hex="0ecb"/>
  <outline>
    <contour>
      <point x="-857" y="1402" type="line" smooth="no"/>
      <point x="-980" y="1402" type="line" smooth="no"/>
      <point x="-980" y="1523" type="line" smooth="no"/>
      <point x="-1104" y="1523" type="line" smooth="no"/>
      <point x="-1104" y="1637" type="line" smooth="no"/>
      <point x="-980" y="1637" type="line" smooth="no"/>
      <point x="-980" y="1759" type="line" smooth="no"/>
      <point x="-857" y="1759" type="line" smooth="no"/>
      <point x="-857" y="1637" type="line" smooth="no"/>
      <point x="-733" y="1637" type="line" smooth="no"/>
      <point x="-733" y="1523" type="line" smooth="no"/>
      <point x="-857" y="1523" type="line" smooth="no"/>
    </contour>
  </outline>
</glyph>
<glyph name="uni0ECC" format="1">
  <advance width="0"/>
  <unicode hex="0ecc"/>
  <outline>
    <contour>
      <point x="-665" y="1383" type="line" smooth="no"/>
      <point x="-665" y="1298"/>
      <point x="-728" y="1251"/>
      <point x="-815" y="1251" type="curve" smooth="yes"/>
      <point x="-917" y="1251"/>
      <point x="-986" y="1323"/>
      <point x="-986" y="1425" type="curve" smooth="yes"/>
      <point x="-986" y="1538"/>
      <point x="-885" y="1601"/>
      <point x="-770" y="1601" type="curve" smooth="yes"/>
      <point x="-659" y="1601"/>
      <point x="-556" y="1564"/>
      <point x="-456" y="1564" type="curve" smooth="yes"/>
      <point x="-401" y="1564"/>
      <point x="-399" y="1614"/>
      <point x="-398" y="1672" type="curve" smooth="no"/>
      <point x="-314" y="1672" type="line" smooth="no"/>
      <point x="-314" y="1546"/>
      <point x="-326" y="1463"/>
      <point x="-449" y="1463" type="curve" smooth="yes"/>
      <point x="-527" y="1463"/>
      <point x="-586" y="1479"/>
      <point x="-672" y="1493" type="curve" smooth="no"/>
    </contour>
    <contour>
      <point x="-769" y="1501" type="line" smooth="yes"/>
      <point x="-833" y="1501"/>
      <point x="-880" y="1481"/>
      <point x="-880" y="1421" type="curve" smooth="yes"/>
      <point x="-880" y="1377"/>
      <point x="-854" y="1349"/>
      <point x="-809" y="1349" type="curve" smooth="yes"/>
      <point x="-754" y="1349"/>
      <point x="-728" y="1381"/>
      <point x="-728" y="1436" type="curve" smooth="yes"/>
      <point x="-728" y="1499" type="line" smooth="no"/>
      <point x="-735" y="1500"/>
      <point x="-742" y="1501"/>
      <point x="-749" y="1501" type="curve" smooth="yes"/>
    </contour>
  </outline>
</glyph>
<glyph name="uni0ECD" format="1">
  <advance width="16"/>
  <unicode hex="0ecd"/>
  <outline>
    <contour>
      <point x="-424" y="1550" type="curve" smooth="yes"/>
      <point x="-424" y="1419"/>
      <point x="-526" y="1324"/>
      <point x="-658" y="1324" type="curve" smooth="yes"/>
      <point x="-790" y="1324"/>
      <point x="-895" y="1418"/>
      <point x="-895" y="1550" type="curve" smooth="yes"/>
      <point x="-895" y="1682"/>
      <point x="-791" y="1777"/>
      <point x="-658" y="1777" type="curve" smooth="yes"/>
      <point x="-528" y="1777"/>
      <point x="-424" y="1681"/>
    </contour>
    <contour>
      <point x="-660" y="1430" type="curve" smooth="yes"/>
      <point x="-588" y="1430"/>
      <point x="-535" y="1482"/>
      <point x="-535" y="1554" type="curve" smooth="yes"/>
      <point x="-535" y="1623"/>
      <point x="-590" y="1679"/>
      <point x="-660" y="1679" type="curve" smooth="yes"/>
      <point x="-728" y="1679"/>
      <point x="-783" y="1622"/>
      <point x="-783" y="1554" type="curve" smooth="yes"/>
      <point x="-783" y="1484"/>
      <point x="-731" y="1430"/>
    </contour>
  </outline>
</glyph>
<glyph name="uni0ED0" format="1">
  <advance width="1184"/>
  <unicode hex="0ed0"/>
  <outline>
    <contour>
      <point x="1067" y="571" type="curve" smooth="yes"/>
      <point x="1067" y="249"/>
      <point x="910" y="0"/>
      <point x="592" y="0" type="curve" smooth="yes"/>
      <point x="274" y="0"/>
      <point x="117" y="249"/>
      <point x="117" y="571" type="curve" smooth="yes"/>
      <point x="117" y="876"/>
      <point x="290" y="1104"/>
      <point x="592" y="1104" type="curve" smooth="yes"/>
      <point x="893" y="1104"/>
      <point x="1067" y="874"/>
    </contour>
    <contour>
      <point x="260" y="575" type="curve" smooth="yes"/>
      <point x="260" y="324"/>
      <point x="349" y="100"/>
      <point x="593" y="100" type="curve" smooth="yes"/>
      <point x="838" y="100"/>
      <point x="926" y="325"/>
      <point x="926" y="575" type="curve" smooth="yes"/>
      <point x="926" y="800"/>
      <point x="815" y="1007"/>
      <point x="593" y="1007" type="curve" smooth="yes"/>
      <point x="371" y="1007"/>
      <point x="260" y="801"/>
    </contour>
  </outline>
</glyph>
<glyph name="uni0ED1" format="1">
  <advance width="1303"/>
  <unicode hex="0ed1"/>
  <outline>
    <contour>
      <point x="641" y="636" type="curve" smooth="yes"/>
      <point x="769" y="636"/>
      <point x="855" y="576"/>
      <point x="855" y="449" type="curve" smooth="yes"/>
      <point x="855" y="322"/>
      <point x="748" y="276"/>
      <point x="614" y="269" type="curve" smooth="yes"/>
      <point x="554" y="266" type="line" smooth="no"/>
      <point x="286" y="266"/>
      <point x="83" y="385"/>
      <point x="83" y="651" type="curve" smooth="yes"/>
      <point x="83" y="954"/>
      <point x="305" y="1104"/>
      <point x="612" y="1104" type="curve" smooth="yes"/>
      <point x="975" y="1104"/>
      <point x="1212" y="904"/>
      <point x="1212" y="543" type="curve" smooth="yes"/>
      <point x="1212" y="149"/>
      <point x="863" y="-79"/>
      <point x="486" y="-92" type="curve" smooth="no"/>
      <point x="486" y="-5" type="line" smooth="no"/>
      <point x="787" y="31"/>
      <point x="1055" y="206"/>
      <point x="1055" y="537" type="curve" smooth="yes"/>
      <point x="1055" y="831"/>
      <point x="903" y="995"/>
      <point x="609" y="995" type="curve" smooth="yes"/>
      <point x="372" y="995"/>
      <point x="241" y="885"/>
      <point x="241" y="652" type="curve" smooth="yes"/>
      <point x="241" y="485"/>
      <point x="336" y="391"/>
      <point x="486" y="367" type="curve" smooth="no"/>
      <point x="469" y="401"/>
      <point x="445" y="438"/>
      <point x="445" y="474" type="curve" smooth="yes"/>
      <point x="445" y="585"/>
      <point x="523" y="636"/>
    </contour>
    <contour>
      <point x="554" y="363" type="curve" smooth="no"/>
      <point x="646" y="363"/>
      <point x="729" y="369"/>
      <point x="732" y="454" type="curve" smooth="no"/>
      <point x="731" y="519"/>
      <point x="699" y="551"/>
      <point x="637" y="551" type="curve" smooth="yes"/>
      <point x="586" y="551"/>
      <point x="558" y="523"/>
      <point x="555" y="475" type="curve" smooth="no"/>
      <point x="555" y="456" type="line" smooth="yes"/>
      <point x="555" y="426"/>
      <point x="554" y="402"/>
    </contour>
  </outline>
</glyph>
